<svg width="427" height="428" viewBox="0 0 427 428" fill="none" xmlns="http://www.w3.org/2000/svg">
<path d="M426.094 221.961C426.094 335.459 334.085 427.468 220.587 427.468L205.84 427.468C92.3414 427.468 0.332863 335.459 0.332873 221.961L0.332875 206.502C0.332884 93.0036 92.3414 0.995118 205.84 0.995128L220.587 0.99513C334.085 0.99514 426.094 93.0036 426.094 206.502L426.094 221.961Z" fill="url(#paint0_linear_1825_212)"/>
<mask id="mask0_1825_212" style="mask-type:alpha" maskUnits="userSpaceOnUse" x="0" y="0" width="427" height="428">
<path d="M426.094 214.177C426.094 331.808 330.735 427.468 213.105 427.468V427.468C95.5941 427.468 0.332864 331.796 0.332874 214.286V214.286C0.332884 96.7152 95.6427 0.995119 213.213 0.995129V0.995129C330.784 0.995139 426.094 96.6065 426.094 214.177V214.177Z" fill="url(#paint1_linear_1825_212)"/>
</mask>
<g mask="url(#mask0_1825_212)">
<path fill-rule="evenodd" clip-rule="evenodd" d="M310.41 -37.8026C313.377 -38.0108 317.795 -35.9234 321.068 -28.577C324.35 -21.2122 326.468 -8.56763 324.71 12.2102C323.614 25.1578 320.394 38.5064 316.601 51.8066C315.048 57.2508 313.394 62.7005 311.754 68.1087C309.399 75.8713 307.07 83.5484 305.101 91.0007C298.42 116.292 295.683 139.689 309.993 156.917C317.127 165.507 327.376 170.668 338.835 172.733C350.298 174.799 363.013 173.775 375.132 169.948C399.334 162.306 421.351 143.403 426.097 115.288L425.018 115.013C420.396 142.394 398.876 161.053 374.857 168.637C362.865 172.424 350.299 173.431 338.995 171.394C327.687 169.356 317.683 164.28 310.764 155.951C296.968 139.34 299.466 116.716 306.149 91.4184C308.115 83.9769 310.425 76.3642 312.77 68.6356L312.771 68.6345C314.412 63.2248 316.071 57.7584 317.641 52.2541C321.442 38.9273 324.697 25.4585 325.806 12.3501C327.575 -8.56163 325.468 -21.5219 322.035 -29.2267C318.594 -36.9499 313.809 -39.3969 310.347 -39.1539L310.41 -37.8026ZM-70.6836 1.82624C-51.9758 2.78871 -22.3794 7.38282 5.55724 18.0322C33.5047 28.6856 59.6873 45.3582 71.7382 70.4186C86.798 101.736 74.5862 140.044 57.3541 173.343C48.7492 189.971 38.9181 205.302 30.6768 217.826C29.4807 219.644 28.3177 221.403 27.1965 223.099L27.1825 223.12L27.1805 223.123C24.448 227.256 21.965 231.012 19.8612 234.316C16.8954 238.975 14.6554 242.779 13.5272 245.509C9.08887 256.251 -1.70392 286.904 0.598816 317.154C1.75079 332.287 6.18307 347.36 16.3707 359.787C26.5671 372.225 42.4856 381.959 66.4966 386.474C90.4668 390.98 121.345 390.358 154.959 388.938C160.494 388.704 166.105 388.448 171.773 388.19L171.779 388.19C200.557 386.878 230.804 385.5 260.171 386.557C330.491 389.09 395.443 405.576 422.815 470.115L423.994 469.696C396.331 404.47 330.653 387.936 260.221 385.4C230.793 384.34 200.479 385.721 171.701 387.033L171.7 387.033C166.034 387.291 160.428 387.547 154.9 387.78C121.262 389.202 90.5414 389.811 66.751 385.339C43.0015 380.874 27.3697 371.274 17.3825 359.091C7.38653 346.898 3.00208 332.064 1.86093 317.073C-0.422607 287.076 10.2926 256.612 14.7105 245.919C15.7965 243.291 17.9845 239.565 20.9542 234.9C23.0528 231.603 25.5278 227.86 28.2581 223.73C29.3849 222.026 30.5552 220.256 31.7604 218.424C40.0059 205.893 49.8642 190.521 58.4973 173.839C75.7413 140.518 88.2006 101.778 72.8961 69.9516C60.6555 44.4967 34.1223 27.6661 6.04343 16.9625C-22.0463 6.25483 -51.7868 1.638 -70.6126 0.669453L-70.6836 1.82624Z" fill="#EDF2FF"/>
<path d="M38.1133 -16.3287C116.976 -29.8754 273.184 -31.9431 267.111 68.1598C259.52 193.288 293.679 238.206 423.993 251.04" stroke="#EDF2FF"/>
</g>
<defs>
<linearGradient id="paint0_linear_1825_212" x1="213.213" y1="427.468" x2="213.213" y2="0.995129" gradientUnits="userSpaceOnUse">
<stop stop-color="#A8B1FF"/>
<stop offset="0.760417" stop-color="#C6D2FF"/>
</linearGradient>
<linearGradient id="paint1_linear_1825_212" x1="213.213" y1="427.468" x2="213.213" y2="0.995129" gradientUnits="userSpaceOnUse">
<stop stop-color="#A8B1FF"/>
<stop offset="0.760417" stop-color="#C6D2FF"/>
</linearGradient>
</defs>
</svg>
