<svg width="41" height="41" viewBox="0 0 41 41" fill="none" xmlns="http://www.w3.org/2000/svg">
<path d="M40.5413 12.024C40.5431 11.5187 40.5486 11.0362 40.5394 10.5555C40.4699 6.86498 37.8429 4.35455 34.0433 4.34406C33.4707 4.34231 32.8963 4.34406 32.2542 4.34406V2.3913C32.2542 1.27769 31.3267 0.375606 30.1833 0.375606H30.1796C29.0363 0.375606 28.1088 1.27769 28.1088 2.3913V4.29161C26.2465 4.29161 24.4683 4.29161 22.6298 4.29161L18.5265 4.30035C16.6404 4.30035 14.8586 4.30035 12.9944 4.30035V2.38605C12.9963 1.27244 12.0688 0.370361 10.9254 0.370361C9.78203 0.370361 8.85453 1.27244 8.85453 2.38605V4.37203C6.45072 4.2042 4.2079 4.37902 2.42608 6.12724C0.852807 7.67091 0.534494 9.53101 0.625963 11.531H0.611328V18.4504H0.625963C0.625963 23.6374 0.624134 28.8261 0.631451 34.013C0.631451 34.534 0.657063 35.0655 0.770484 35.5724C1.42906 38.5164 3.89873 40.3643 7.17881 40.366C16.1153 40.373 25.0519 40.3713 33.9902 40.3625C34.5464 40.3625 35.1171 40.3276 35.6568 40.2105C38.6533 39.5619 40.5285 37.1808 40.5358 34.0078C40.5468 28.4922 40.5394 22.9783 40.5394 17.4627V12.024H40.5413ZM12.1803 32.7089C10.887 32.6914 9.86069 31.6966 9.86801 30.4676C9.87532 29.2264 10.9364 28.2299 12.2316 28.2474C13.5249 28.2649 14.5512 29.2596 14.5439 30.4886C14.5366 31.7299 13.4774 32.7246 12.1803 32.7089ZM12.1913 25.0062C10.8998 24.9975 9.86801 24.0062 9.86801 22.7755C9.86801 21.5343 10.9217 20.5343 12.2206 20.5448C13.5121 20.5535 14.5439 21.5448 14.5439 22.7755C14.5457 24.0167 13.4902 25.0167 12.1913 25.0062ZM20.5534 32.7089C19.2491 32.6931 18.2137 31.6774 18.2393 30.4414C18.2649 29.2072 19.3149 28.2317 20.601 28.2474C21.9053 28.2631 22.9408 29.2789 22.9152 30.5148C22.8896 31.7491 21.8395 32.7246 20.5534 32.7089ZM20.5918 25.0062C19.293 25.015 18.2393 24.015 18.2393 22.7755C18.2393 21.5465 19.2729 20.5553 20.5644 20.5465C21.8633 20.5378 22.917 21.5378 22.917 22.7772C22.9152 24.0062 21.8816 24.9975 20.5918 25.0062ZM28.9448 32.7089C27.6551 32.7071 26.6178 31.7211 26.6087 30.4904C26.6014 29.2509 27.6496 28.2474 28.9503 28.2492C30.24 28.2509 31.2773 29.2369 31.2864 30.4676C31.2956 31.7054 30.2455 32.7106 28.9448 32.7089ZM28.9247 25.0062C27.6313 24.9905 26.6032 23.9958 26.6105 22.7668C26.616 21.5255 27.677 20.529 28.9723 20.5448C30.2656 20.5605 31.2937 21.5552 31.2864 22.7842C31.2809 24.0255 30.2217 25.022 28.9247 25.0062ZM37.2667 13.0729C37.2667 13.9033 36.5752 14.5781 35.7208 14.5781H5.75006C4.89574 14.5781 4.20424 13.9051 4.20424 13.0729V10.5205C4.20424 8.73208 5.69335 7.28281 7.52823 7.28281H33.939C35.7757 7.28281 37.263 8.73208 37.263 10.5205V13.0729H37.2667Z" fill="#636CF5"/>
</svg>
