<svg width="41" height="41" viewBox="0 0 41 41" fill="none" xmlns="http://www.w3.org/2000/svg">
<path fill-rule="evenodd" clip-rule="evenodd" d="M19.6734 21.2985C19.2996 16.7213 20.9434 12.8117 24.5793 9.70073C28.2322 6.57383 32.6411 5.66 37.6617 6.26392C30.8741 -0.840138 17.1971 -2.64396 7.929 5.30241C-1.28388 13.1971 -1.43255 26.4636 7.55947 34.5808C15.9016 42.114 30.2115 41.9193 37.598 34.0285C27.268 34.3504 20.336 29.4157 19.6734 21.2985ZM40.1816 19.4315C40.0033 19.3597 39.8234 19.2901 39.6432 19.2204C39.1754 19.0393 38.7064 18.8578 38.2617 18.6369C37.9772 18.4938 37.6968 18.2435 37.5482 17.9773C37.2761 17.4893 37.0475 16.9787 36.8186 16.4677L36.8186 16.4677C36.7438 16.3005 36.6689 16.1334 36.5925 15.9669C36.4056 15.5656 36.087 15.3511 35.624 15.3272C35.1908 15.355 34.8892 15.5537 34.6938 15.9152C34.6215 16.0506 34.5496 16.1861 34.4777 16.3216L34.4776 16.3217C34.1698 16.9019 33.8624 17.4812 33.5215 18.0449C33.3813 18.2793 33.135 18.4978 32.8801 18.6289C32.3427 18.9071 31.7778 19.1436 31.2163 19.3787L31.024 19.4593C30.5992 19.6381 30.3359 19.9202 30.3359 20.3612C30.3359 20.7983 30.5907 21.0883 31.0197 21.2671C31.2954 21.383 31.5693 21.505 31.843 21.627L31.8431 21.627C32.1512 21.7644 32.4593 21.9016 32.7697 22.03C33.1477 22.1849 33.4153 22.4194 33.5937 22.773C33.7767 23.1303 33.9696 23.4819 34.1623 23.8333C34.3275 24.1344 34.4926 24.4354 34.6513 24.7397C34.8595 25.141 35.1653 25.4072 35.6538 25.3953C36.1422 25.3834 36.4396 25.1092 36.6264 24.7C36.7533 24.4159 36.8854 24.1334 37.0176 23.8507L37.0177 23.8505C37.1776 23.5086 37.3376 23.1664 37.4887 22.8207C37.6544 22.4432 37.9135 22.1929 38.317 22.0419C38.7241 21.8891 39.1257 21.7244 39.5267 21.56C39.7407 21.4723 39.9546 21.3846 40.1689 21.2989C40.6191 21.1201 40.9207 20.8341 40.9165 20.3493C40.9122 19.8805 40.6149 19.6063 40.1816 19.4315Z" fill="#636CF5"/>
</svg>
