<svg width="41" height="41" viewBox="0 0 41 41" fill="none" xmlns="http://www.w3.org/2000/svg">
<path fill-rule="evenodd" clip-rule="evenodd" d="M20.9284 0.370377C18.7731 0.36402 16.8978 2.24567 16.9248 4.44728C16.9497 6.42429 18.5221 8.58564 20.9076 8.53266C23.1128 8.53266 24.9133 6.71035 24.9113 4.47907C24.9113 2.2605 23.0858 0.376734 20.9284 0.370377ZM14.5698 17.4854H20.8722C21.544 17.4854 22.2159 17.4861 22.8881 17.4868H22.8883H22.8885H22.8887H22.8888C24.4577 17.4885 26.028 17.4902 27.6005 17.4827C28.7407 17.4773 29.1575 16.9639 29.1665 15.5903C29.1681 15.3602 29.171 15.1298 29.1739 14.8992V14.8991V14.899C29.1831 14.1602 29.1924 13.4201 29.1598 12.6846C29.0584 10.4026 28.1706 8.70108 26.4468 7.63934C26.0683 7.40548 25.8294 7.43236 25.5207 7.85437C22.7965 11.5772 19.1101 11.5799 16.3251 7.8705C16.0254 7.47268 15.7978 7.39742 15.399 7.63665C14.0696 8.43766 13.2133 9.6795 12.8303 11.3917C12.6284 12.2948 12.65 13.2119 12.6716 14.1279V14.1279V14.1279V14.1279V14.128C12.6799 14.4797 12.6882 14.8312 12.6838 15.1818C12.659 17.101 12.9902 17.4854 14.5698 17.4854ZM7.0126 40.3695H7.01237C5.49209 40.3706 3.97134 40.3717 2.45169 40.3659C1.30125 40.3632 0.971927 39.9562 0.963261 38.5006C0.962054 38.283 0.959877 38.0652 0.9577 37.8473C0.948147 36.8914 0.938585 35.9346 1.01093 34.9885C1.17125 32.9238 2.09854 31.4818 3.56098 30.5303C3.91846 30.2985 4.14595 30.312 4.44061 30.7459C6.97766 34.4683 10.793 34.4737 13.278 30.7648C13.564 30.3389 13.7872 30.2715 14.1533 30.5141C15.6916 31.5303 16.6384 33.0586 16.7489 35.2581C16.8045 36.3668 16.7877 37.4853 16.771 38.5973L16.7684 38.7729C16.7511 39.878 16.3654 40.347 15.4641 40.3524C13.8862 40.364 12.3093 40.3618 10.732 40.3596H10.7318H10.7315H10.7313H10.7311H10.7309C10.0995 40.3587 9.46815 40.3578 8.83657 40.3578V40.3686C8.22903 40.3686 7.62131 40.369 7.01351 40.3695H7.01328H7.01305H7.01283H7.0126ZM32.9191 40.3673C32.3938 40.3673 31.8685 40.3674 31.3432 40.3676H31.3393C29.7639 40.3681 28.1886 40.3686 26.6133 40.3646C25.389 40.3619 25.064 39.9684 25.0596 38.4834C25.0591 38.2001 25.0564 37.9166 25.0537 37.633C25.0462 36.8433 25.0387 36.0536 25.077 35.2683C25.1875 33.0691 26.1301 31.5384 27.6665 30.5196C28.0262 30.2798 28.2515 30.3229 28.5441 30.7568C31.0469 34.4759 34.8564 34.4732 37.383 30.7514C37.6777 30.3175 37.9053 30.2933 38.2628 30.525C39.6973 31.4521 40.6334 32.8616 40.8046 34.8802C40.9046 36.0506 40.8875 37.2387 40.8705 38.4205V38.4206L40.8653 38.7934C40.8501 39.9037 40.4622 40.3511 39.5435 40.3592C37.9266 40.373 36.3086 40.3709 34.6894 40.3688H34.689H34.6885H34.6881H34.6876H34.6871C34.098 40.368 33.5086 40.3673 32.9191 40.3673ZM8.96289 24.0439C6.74552 24.0333 4.95705 25.8326 4.94456 28.0904C4.93207 30.3417 6.70805 32.1857 8.90876 32.2069C11.0907 32.2281 12.9229 30.3799 12.9313 28.1477C12.9417 25.8899 11.1678 24.0566 8.96289 24.0439ZM28.9044 28.1127C28.9024 25.8713 30.7054 24.0396 32.9062 24.0438C35.1194 24.0481 36.8892 25.8628 36.8913 28.1233C36.8913 30.3668 35.0882 32.2113 32.8958 32.2071C30.7075 32.2028 28.9044 30.3562 28.9044 28.1127ZM22.1539 24.8934L25.3288 28.4975C25.513 28.7084 25.5997 28.9713 25.5726 29.2424C25.5455 29.519 25.402 29.7655 25.1717 29.9408C24.7085 30.2913 24.0258 30.2256 23.6465 29.7956L21.5579 27.4212C21.4007 27.2432 21.1678 27.1418 20.9185 27.1418C20.6693 27.1418 20.4363 27.2432 20.2792 27.4212L18.1905 29.7956C17.9765 30.0393 17.6623 30.1653 17.348 30.1653C17.1069 30.1653 16.8658 30.0914 16.6654 29.9408C16.4351 29.7682 16.2915 29.519 16.2644 29.2424C16.2373 28.9713 16.324 28.7056 16.5082 28.4975L19.6128 24.9701C19.7293 24.8359 19.7943 24.6716 19.7943 24.5018V20.3034C19.7943 19.7392 20.2819 19.2819 20.8833 19.2819C21.4847 19.2819 21.9723 19.742 21.9723 20.3034V24.4251C21.9723 24.5949 22.0374 24.7619 22.1539 24.8934Z" fill="#636CF5"/>
</svg>
