<svg width="41" height="41" viewBox="0 0 41 41" fill="none" xmlns="http://www.w3.org/2000/svg">
<path fill-rule="evenodd" clip-rule="evenodd" d="M40.3149 17.2184C39.3862 11.2702 36.3889 6.62081 31.3791 3.29178C24.6126 -1.20703 15.2957 -0.935682 8.76341 3.94038C0.381898 10.1964 -1.84668 21.4823 3.52929 30.5229C3.74869 30.8919 3.80147 31.2063 3.68765 31.6183C3.21435 33.3223 2.75974 35.0322 2.30514 36.742L2.04797 37.7088C2.00479 37.8723 1.9715 38.038 1.93283 38.2303L1.93282 38.2304C1.91241 38.3319 1.89051 38.4409 1.86487 38.5609C1.97615 38.5325 2.07757 38.5067 2.17222 38.4827L2.17498 38.482C2.37659 38.4308 2.54752 38.3874 2.7177 38.3425C3.22024 38.2069 3.72246 38.0703 4.22463 37.9337L4.22728 37.9329L4.22761 37.9329C5.70909 37.5299 7.19014 37.1271 8.67763 36.7491C8.9729 36.6747 9.3886 36.7078 9.63933 36.8666C13.9942 39.6397 18.7104 40.6109 23.8059 39.8333C34.4061 38.2134 41.9793 27.8739 40.3149 17.2184ZM23.0622 24.2526H17.6029C17.5974 24.1513 17.5916 24.0501 17.5858 23.949L17.5858 23.9486C17.4796 22.096 17.3758 20.285 18.945 18.8776C19.263 18.5922 19.582 18.3079 19.9011 18.0235L19.9014 18.0233C20.2768 17.6888 20.6522 17.3541 21.0263 17.0176C21.2224 16.842 21.4153 16.6616 21.5936 16.4697C22.37 15.6373 22.5029 14.8975 22.0248 14.122C21.5174 13.2993 20.4314 12.8734 19.488 13.1319C18.4977 13.4034 17.8379 14.1155 17.2009 14.8585C17.1042 14.9717 17.0106 15.0874 16.9112 15.2103L16.9112 15.2104C16.8506 15.2852 16.788 15.3626 16.7211 15.4438C16.6671 15.3963 16.6153 15.351 16.5654 15.3073C16.4326 15.1913 16.3126 15.0863 16.196 14.9788C15.3333 14.1792 14.472 13.3783 13.6143 12.5808L13.3205 12.3076C16.0306 8.48363 19.6923 7.28214 23.0848 8.33406C26.4644 9.38109 28.536 13.1384 27.6266 16.5526C27.3462 17.6078 26.7497 18.4614 25.9733 19.193C25.3703 19.7604 24.7349 20.2969 24.0979 20.8269C23.3653 21.435 22.9454 22.1617 23.0557 23.1503C23.0833 23.3932 23.0763 23.6391 23.069 23.8927C23.0656 24.0108 23.0622 24.1306 23.0622 24.2526ZM23.4518 28.7903C23.4339 27.0279 21.9897 25.6102 20.2197 25.6167C18.4334 25.6232 17.0281 27.0409 17.041 28.8228C17.0524 30.621 18.4464 32.0273 20.2278 32.0354C22.014 32.0436 23.4696 30.5803 23.4518 28.7903Z" fill="#636CF5"/>
</svg>
