<svg width="263" height="99" viewBox="0 0 263 99" fill="none" xmlns="http://www.w3.org/2000/svg">
<path d="M149.668 38.3403H118.5V47.6245H149.668V38.3403Z" fill="#7185FF"/>
<path d="M212.669 38.3403H184.816V47.6245H212.669V38.3403Z" fill="#7185FF"/>
<path d="M212.669 58.6648V50.2773H197.66H184.868H184.816V70.1477H184.868V70.1721H212.669V60.8188H197.66V58.6648H212.669Z" fill="#7185FF"/>
<path d="M141.047 70.1721V50.2773H127.784V70.1721H141.047Z" fill="#7185FF"/>
<path d="M228.584 70.1719V38.3403H215.984V70.1719H228.584Z" fill="#7185FF"/>
<path d="M231.9 47.6245H261.079C261.079 47.6245 257.673 38.7216 246.573 38.3404C246.567 38.3404 235.932 38.2335 231.9 47.6245Z" fill="#7185FF"/>
<path d="M151.658 47.6245H181.5C181.5 47.6245 178.017 38.7216 166.664 38.3404C166.658 38.3404 155.797 38.2335 151.658 47.6245Z" fill="#FF33AE"/>
<path d="M231.047 50.4668H243.638V57.6906H262.499C262.499 57.6906 260.178 70.1432 245.893 70.1676C245.893 70.1676 237.868 70.551 232.563 62.2142C231.536 60.5254 230.918 58.489 230.668 56.53C230.417 54.5709 230.478 52.3583 231.047 50.4668Z" fill="#7185FF"/>
<path d="M182.297 50.2773H151.09C151.09 50.2773 148.816 59.1826 156.27 66.1065C156.27 66.1065 165.99 75.1098 177.294 66.3203C177.285 66.3203 184.437 60.3194 182.297 50.2773Z" fill="#FF33AE"/>
<path d="M1.08984 80.9076L16.1113 87.4131L43.649 75.5564L28.6275 68.7607L1.08984 80.9076Z" fill="#AA0778"/>
<path d="M36.874 72.3745L16.1094 87.4125L43.6471 75.5558L36.874 72.3745Z" fill="#7F0064"/>
<path d="M0.5 45.913L15.5215 52.4206L43.0592 40.5618L28.0377 33.7661L0.5 45.913Z" fill="#3B52DD"/>
<path d="M36.2861 37.3809L15.5215 52.4209L43.0592 40.5621L36.2861 37.3809Z" fill="#293BA7"/>
<path d="M52.3379 0.0737305L74.8691 14.9687L0.941406 46.2011V22.7758L52.3379 0.0737305Z" fill="#7185FF"/>
<path d="M1.08984 57.7697V80.907L104.322 37.5256L83.1161 23.2109L1.08984 57.7697Z" fill="#FF33AE"/>
<path d="M16.1094 87.4121L83.5573 58.9258L105.5 72.6643L43.3537 98.6927L16.1094 87.4121Z" fill="#FF33AE"/>
</svg>
