<svg width="45" height="44" viewBox="0 0 45 44" fill="none" xmlns="http://www.w3.org/2000/svg">
<path fill-rule="evenodd" clip-rule="evenodd" d="M24.6562 0.465236C24.3953 0.435712 24.1345 0.406185 23.8748 0.371338H21.3835C21.1226 0.405952 20.861 0.436716 20.5995 0.467475C20.0391 0.533384 19.4789 0.59927 18.9257 0.70296C11.5565 2.08965 6.19577 6.09974 2.83907 12.635C1.19692 15.8319 0.501166 19.2685 0.704275 22.8382C1.06836 29.2457 3.82221 34.5073 8.88263 38.5839C12.2393 41.2866 16.1211 42.8612 20.4458 43.2626C26.6309 43.8371 32.145 42.1536 36.8922 38.2291C40.7113 35.0713 43.1345 31.0612 44.19 26.2791C44.3223 25.6804 44.3977 25.0696 44.4732 24.4588C44.5092 24.1667 44.5453 23.8746 44.5876 23.5838C44.6036 23.478 44.6234 23.3727 44.6431 23.2676C44.6514 23.2237 44.6596 23.1799 44.6675 23.136V21.8761H40.2931C40.2893 21.9233 40.2855 21.9642 40.282 22.0009C40.2758 22.0677 40.2708 22.1208 40.2694 22.1739C40.211 24.7878 39.5823 27.2634 38.3679 29.5932C36.688 32.8165 34.215 35.3036 30.9653 37.0177C27.6885 38.7455 24.1806 39.4035 20.4717 38.9335C16.47 38.4266 13.0334 36.7579 10.2093 33.9655C7.14109 30.9313 5.41466 27.2591 5.1208 22.9776C4.85071 19.0362 5.89867 15.4316 8.16851 12.1904C10.3595 9.06216 13.3164 6.86649 16.9897 5.61287C20.153 4.53246 23.3757 4.38671 26.6265 5.11966C27.2931 5.27069 27.7069 5.19993 28.1725 4.69721C28.7983 4.02242 29.4652 3.38408 30.1386 2.73941C30.4243 2.46591 30.7112 2.19127 30.9966 1.91222C30.9676 1.89543 30.9433 1.87956 30.9218 1.86551C30.8824 1.83977 30.8523 1.82008 30.8194 1.81189C30.4008 1.70742 29.9828 1.60068 29.5649 1.49395C28.504 1.22302 27.4433 0.952159 26.3737 0.718802C25.8105 0.595876 25.2334 0.53056 24.6562 0.465236ZM11.6899 19.7981C11.3473 20.134 11.0061 20.4685 10.666 20.8021C13.9417 24.0032 17.2195 27.2074 20.4757 30.3906L42.3531 9.00413L42.2672 8.92003C41.3037 7.97716 40.3167 7.0112 39.3011 6.01636L20.4206 24.4731C19.3012 23.3767 18.1825 22.2816 17.0678 21.1903C15.9287 20.0752 14.7937 18.9641 13.6662 17.8597C13.0014 18.5123 12.3432 19.1577 11.6899 19.7981Z" fill="#91A3C8"/>
</svg>
