<svg width="16" height="17" viewBox="0 0 16 17" fill="none" xmlns="http://www.w3.org/2000/svg">
<rect y="0.15625" width="16" height="16" rx="5" fill="#E4E6EC"/>
<g clip-path="url(#clip0_335_1047)">
<path d="M3.00009 10.4579C3.00038 10.1782 3.19561 9.97191 3.45506 9.9722C3.71424 9.97248 3.90918 10.1785 3.9106 10.4582C3.91231 10.7949 3.91089 11.1317 3.91117 11.4684C3.91117 11.5023 3.91117 11.5361 3.91117 11.5924C3.95096 11.556 3.97398 11.5364 3.99529 11.5153C4.2573 11.2562 4.5196 10.997 4.78133 10.7372C5.34514 10.1782 5.90981 9.62009 6.47192 9.05939C6.60889 8.92269 6.76689 8.8633 6.95474 8.91275C7.30939 9.00596 7.40829 9.42684 7.14002 9.69597C6.32954 10.5096 5.51792 11.3221 4.70688 12.1352C4.67789 12.1641 4.65032 12.1945 4.60429 12.2431C4.67107 12.2431 4.71 12.2431 4.74893 12.2431C5.0891 12.2431 5.42954 12.2394 5.76971 12.2446C6.02803 12.2485 6.22553 12.4472 6.22894 12.6944C6.23235 12.9371 6.03883 13.1503 5.79045 13.152C5.02118 13.1571 4.2519 13.1579 3.48291 13.1517C3.20271 13.1494 3.00038 12.9272 3.00009 12.6484C2.99924 11.9183 2.99896 11.188 3.00009 10.4579Z" fill="#757575"/>
<path d="M6.78535 7.47009C6.68532 7.44366 6.58358 7.38 6.50913 7.30639C5.67591 6.48026 4.8481 5.64901 4.01858 4.81918C3.98988 4.79048 3.95947 4.76348 3.91201 4.71915C3.91201 4.77599 3.91201 4.8098 3.91201 4.84362C3.91201 5.18039 3.9194 5.51743 3.90746 5.85363C3.90377 5.95735 3.86683 6.07188 3.81056 6.15913C3.70484 6.32282 3.49285 6.37625 3.30955 6.31316C3.12228 6.24865 3.00207 6.0824 3.00178 5.8738C3.00008 5.13293 3.00065 4.39205 3.00122 3.65146C3.0015 3.34425 3.19076 3.15811 3.5008 3.15754C3.83415 3.15697 4.16721 3.15725 4.50055 3.15754C4.90835 3.15754 5.31586 3.15526 5.72366 3.15839C5.978 3.16038 6.17096 3.35022 6.17948 3.59774C6.18801 3.84357 6.00585 4.04477 5.75321 4.06665C5.70035 4.0712 5.64693 4.06893 5.59379 4.06893C5.25817 4.06921 4.92227 4.06893 4.58665 4.06893C4.57955 4.08058 4.57244 4.09251 4.56506 4.10417C4.59887 4.12974 4.63639 4.15191 4.66622 4.18175C5.4085 4.9232 6.15021 5.66578 6.89164 6.40779C6.99422 6.51067 7.0988 6.61184 7.19855 6.71727C7.33837 6.86533 7.36479 7.07563 7.27045 7.2487C7.17582 7.42121 6.98229 7.52209 6.78535 7.47009Z" fill="#757575"/>
<path d="M11.3335 4.22143C11.3631 4.19187 11.4012 4.17084 11.435 4.14583C11.4273 4.13361 11.4196 4.12168 11.4117 4.10946C11.2847 4.10946 11.1579 4.10946 11.0309 4.10946C10.7791 4.10917 10.5273 4.11429 10.2758 4.10747C10.0081 4.10008 9.81631 3.89973 9.82057 3.64566C9.82483 3.39075 10.0232 3.19949 10.2906 3.1992C11.0352 3.19778 11.7797 3.19807 12.5243 3.1992C12.8013 3.19949 12.9974 3.38989 12.998 3.66385C13.0003 4.41524 13.0022 5.16692 12.9943 5.91831C12.9932 6.01408 12.9511 6.12094 12.8968 6.20193C12.7908 6.36051 12.5842 6.41507 12.404 6.35625C12.2125 6.29373 12.09 6.12605 12.0883 5.91121C12.0855 5.57104 12.0878 5.23058 12.0872 4.89012C12.0872 4.85346 12.0841 4.8168 12.0826 4.77986C12.0735 4.77474 12.0647 4.76934 12.0556 4.76423C12.0295 4.79691 12.0062 4.83215 11.9769 4.8617C11.1605 5.67988 10.3437 6.49749 9.52673 7.31453C9.48922 7.35204 9.45142 7.39041 9.40823 7.42081C9.15133 7.60213 8.78786 7.47112 8.71056 7.16675C8.66254 6.97748 8.72932 6.82317 8.86629 6.68704C9.69013 5.86659 10.5108 5.04301 11.3335 4.22143Z" fill="#757575"/>
<path d="M9.05797 8.89131C9.24354 8.84329 9.39586 8.9078 9.52914 9.04108C10.3453 9.85926 11.1635 10.6757 11.9813 11.4925C12.0103 11.5212 12.0407 11.5485 12.0885 11.5934C12.0885 11.5365 12.0885 11.503 12.0885 11.4692C12.0885 11.1395 12.0868 10.8099 12.0899 10.4802C12.0904 10.4103 12.0984 10.3375 12.1203 10.2716C12.1899 10.063 12.3962 9.94622 12.6168 9.98203C12.8401 10.0181 12.9916 10.2026 12.9924 10.4529C12.9947 11.1904 12.9947 11.9276 12.9924 12.665C12.9916 12.9683 12.8012 13.1538 12.4977 13.1541C11.7673 13.155 11.037 13.155 10.3067 13.1541C10.0174 13.1538 9.81048 12.9623 9.81104 12.6983C9.81161 12.4349 10.0185 12.2442 10.3084 12.2433C10.6417 12.2422 10.975 12.2433 11.3081 12.2427C11.3419 12.2427 11.3755 12.2396 11.4275 12.2373C11.3843 12.1919 11.3541 12.1592 11.3226 12.1276C10.8315 11.636 10.3402 11.1446 9.84884 10.6533C9.51805 10.3222 9.185 9.9934 8.85734 9.65919C8.60158 9.39831 8.71127 8.9814 9.05797 8.89131Z" fill="#757575"/>
</g>
<defs>
<clipPath id="clip0_335_1047">
<rect width="10" height="10" fill="white" transform="matrix(-1 0 0 1 13 3.15625)"/>
</clipPath>
</defs>
</svg>
