<svg width="16" height="17" viewBox="0 0 16 17" fill="none" xmlns="http://www.w3.org/2000/svg">
<rect y="0.15625" width="16" height="16" rx="5" fill="#E4E6EC"/>
<path fill-rule="evenodd" clip-rule="evenodd" d="M11.4844 7.36244C10.747 7.36443 10.0098 7.36443 9.27235 7.36244C8.97214 7.36159 8.78877 7.17486 8.78848 6.87642C8.78791 6.14285 8.78791 5.40928 8.78877 4.67571C8.78905 4.38921 8.98379 4.17946 9.24591 4.18003C9.50604 4.1806 9.70192 4.39348 9.70277 4.6777C9.70338 4.91821 9.70326 5.15857 9.70314 5.39899V5.39902V5.39905L9.70305 5.68782V5.81373L10.0435 5.47471L10.044 5.47425L10.0447 5.47359C10.3181 5.20143 10.5848 4.93587 10.851 4.66974C11.0593 4.46155 11.2671 4.25301 11.475 4.04446C11.7175 3.80116 11.96 3.55787 12.2031 3.31515C12.3723 3.14632 12.5778 3.11108 12.764 3.21396C13.0256 3.35863 13.0807 3.69799 12.8718 3.92139C12.7586 4.0424 12.6404 4.1587 12.5223 4.27494C12.4737 4.32279 12.4251 4.37062 12.3768 4.41877L10.405 6.38671C10.3964 6.39529 10.3882 6.40424 10.3778 6.41563L10.3777 6.41569L10.3777 6.41572L10.3777 6.41574C10.3702 6.42396 10.3615 6.43345 10.3507 6.44498C10.3647 6.44612 10.3773 6.44735 10.3889 6.44848L10.3889 6.44849L10.3889 6.44849L10.3889 6.44849C10.4121 6.45076 10.4314 6.45265 10.4507 6.45265C10.5982 6.4529 10.7455 6.45283 10.8929 6.45276C11.0894 6.45266 11.2859 6.45257 11.4824 6.45322C11.7653 6.45407 11.9666 6.64308 11.9672 6.90598C11.9677 7.16803 11.767 7.36159 11.4844 7.36244ZM4.72628 8.95029C5.37244 8.94975 6.01861 8.94922 6.66477 8.95048C6.96811 8.95134 7.16996 9.15512 7.17081 9.46009C7.17224 10.1974 7.17252 10.9349 7.17167 11.6722C7.1711 11.9942 6.90557 12.1968 6.5974 12.1144C6.40834 12.0638 6.29775 11.9206 6.29661 11.7151C6.29522 11.4492 6.2955 11.1833 6.29579 10.9073V10.9072V10.9072L6.29605 10.5481L6.25625 10.5845C6.23238 10.6062 6.21323 10.6237 6.19484 10.6419L5.75371 11.0795L5.75333 11.0799C5.11517 11.7129 4.47695 12.346 3.84004 12.9802C3.72206 13.0975 3.5856 13.1632 3.42042 13.145C3.23194 13.1243 3.09747 13.0199 3.03407 12.8398C2.97067 12.6604 3.00763 12.4953 3.14096 12.3591C3.3749 12.12 3.61065 11.8828 3.84647 11.6454L3.8466 11.6453L3.84686 11.645L4.02369 11.467L4.77309 10.7121L5.52249 9.95719C5.53667 9.94285 5.55047 9.92823 5.56809 9.90958L5.56809 9.90957L5.56811 9.90956C5.58121 9.89568 5.59642 9.87958 5.61545 9.8597L5.32878 9.85974H5.32844H5.32811C5.05068 9.85979 4.78424 9.85985 4.51779 9.85942L4.48915 9.85943C4.44547 9.85958 4.40131 9.85972 4.35887 9.85203C4.14082 9.81252 3.98475 9.61727 3.99015 9.39643C3.99583 9.17189 4.15475 8.99198 4.37821 8.95873C4.41317 8.95361 4.44871 8.95048 4.48396 8.95048L4.72628 8.95029ZM7.18251 4.5637C7.12935 4.33235 6.92267 4.19052 6.68216 4.21695C6.4661 4.24083 6.30007 4.425 6.29779 4.65465C6.29544 4.89909 6.29579 5.14352 6.29614 5.38795C6.2963 5.49794 6.29646 5.60793 6.29637 5.71792C6.29637 5.74014 6.2949 5.76224 6.29343 5.78438L6.29154 5.81484L6.27689 5.82237L6.26226 5.8299C6.25486 5.82007 6.24777 5.80986 6.24068 5.79964L6.24067 5.79963C6.22541 5.77765 6.2101 5.75559 6.19147 5.73696L5.4006 4.94775C4.87359 4.42195 4.34671 3.89628 3.82047 3.36998C3.72665 3.27619 3.62231 3.20996 3.48813 3.20058C3.29936 3.18722 3.12139 3.29438 3.04207 3.46747C2.96162 3.64255 2.99659 3.82302 3.14669 3.97252C3.92253 4.7456 4.69922 5.51811 5.47647 6.28977C5.50881 6.32171 5.54488 6.34978 5.58103 6.3779L5.58104 6.37791C5.59765 6.39083 5.61427 6.40377 5.63056 6.4171L5.60497 6.4532L5.33282 6.45294C5.09091 6.45261 4.84901 6.45227 4.6071 6.45433C4.53006 6.4549 4.45188 6.46428 4.37683 6.48219C4.18436 6.52766 4.02999 6.71155 4.01947 6.89829C4.00384 7.17654 4.20881 7.38743 4.50078 7.388C4.97251 7.38909 5.44436 7.38913 5.91618 7.38917H5.91618C6.17825 7.38919 6.44032 7.38922 6.70234 7.38942C7.00909 7.3897 7.19218 7.20922 7.19275 6.90198C7.19388 6.16841 7.19388 5.43455 7.1936 4.70098L7.1936 4.70078C7.19303 4.6548 7.19245 4.60769 7.18251 4.5637ZM10.4051 9.95981C10.4248 9.98166 10.4409 9.9995 10.4578 10.0164C10.6292 10.1879 10.8006 10.3595 10.9719 10.5311C11.5723 11.1322 12.1728 11.7333 12.7748 12.3336C12.8854 12.4442 12.9607 12.5667 12.9479 12.7276C12.9328 12.9134 12.8384 13.0476 12.6653 13.1187C12.4916 13.1897 12.3287 13.1599 12.1897 13.0371C12.1121 12.9683 12.0393 12.8941 11.9666 12.8199C11.9375 12.7902 11.9084 12.7606 11.879 12.7313C11.1884 12.0429 10.4979 11.3545 9.80817 10.6653C9.78938 10.6465 9.77423 10.6239 9.7591 10.6014C9.75225 10.5912 9.7454 10.581 9.73823 10.5712L9.70383 10.5934C9.70383 10.7047 9.70395 10.8161 9.70408 10.9274C9.70437 11.1945 9.70467 11.4615 9.70326 11.7285C9.70212 11.9516 9.55941 12.1313 9.3533 12.1776C9.05308 12.2452 8.79551 12.0295 8.79409 11.7041C8.79269 11.3187 8.79298 10.9333 8.79328 10.548C8.7934 10.3874 8.79352 10.2267 8.79352 10.0661C8.79352 10.0074 8.79339 9.9487 8.79325 9.88999C8.79294 9.76084 8.79264 9.63168 8.79381 9.50252C8.79637 9.21205 8.99111 9.0111 9.27966 9.01025C10.0242 9.00798 10.7691 9.00798 11.5136 9.01025C11.7885 9.0111 11.987 9.20608 11.987 9.465C11.987 9.72393 11.7883 9.91805 11.5142 9.92004C11.2799 9.92162 11.0455 9.921 10.8111 9.92038C10.7086 9.92011 10.6061 9.91984 10.5035 9.91975H10.3688C10.3825 9.93465 10.3944 9.94783 10.4051 9.95981Z" fill="#757575"/>
</svg>
