<svg width="299" height="180" viewBox="0 0 299 180" fill="none" xmlns="http://www.w3.org/2000/svg">
<path d="M38.667 26.1191H262.422V179.5H38.667V26.1191Z" fill="#ECECEC"/>
<path d="M38.667 26.1191H262.422V57.8286H38.667V26.1191Z" fill="#00C17C"/>
<path d="M218.31 15.3499C219.192 12.3907 223.035 12.3907 223.918 15.3499L225.063 19.1912C225.458 20.5146 226.59 21.4106 227.867 21.4106H231.575C234.431 21.4106 235.618 25.3923 233.308 27.2212L230.308 29.5952C229.275 30.4132 228.843 31.863 229.237 33.1864L230.383 37.0276C231.266 39.9869 228.157 42.4477 225.846 40.6188L222.847 38.2447C221.813 37.4268 220.414 37.4268 219.381 38.2447L216.381 40.6188C214.071 42.4477 210.962 39.9869 211.844 37.0276L212.99 33.1864C213.385 31.863 212.952 30.4132 211.919 29.5952L208.92 27.2212C206.609 25.3923 207.797 21.4106 210.653 21.4106H214.36C215.637 21.4106 216.769 20.5146 217.164 19.1912L218.31 15.3499Z" fill="#FFC825"/>
<path d="M252.462 15.3499C253.345 12.3907 257.188 12.3907 258.07 15.3499L259.216 19.1912C259.61 20.5146 260.742 21.4106 262.02 21.4106H265.727C268.583 21.4106 269.771 25.3923 267.46 27.2212L264.461 29.5952C263.427 30.4132 262.995 31.863 263.39 33.1864L264.535 37.0276C265.418 39.9869 262.309 42.4477 259.998 40.6188L256.999 38.2447C255.966 37.4268 254.566 37.4268 253.533 38.2447L250.534 40.6188C248.223 42.4477 245.114 39.9869 245.997 37.0276L247.142 33.1864C247.537 31.863 247.105 30.4132 246.071 29.5952L243.072 27.2212C240.761 25.3923 241.949 21.4106 244.805 21.4106H248.512C249.79 21.4106 250.922 20.5146 251.316 19.1912L252.462 15.3499Z" fill="#FFC825"/>
<path d="M282.093 15.3499C282.976 12.3907 286.818 12.3907 287.701 15.3499L288.847 19.1912C289.241 20.5146 290.373 21.4106 291.651 21.4106H295.358C298.214 21.4106 299.402 25.3923 297.091 27.2212L294.092 29.5952C293.058 30.4132 292.626 31.863 293.021 33.1864L294.166 37.0276C295.049 39.9869 291.94 42.4477 289.629 40.6188L286.63 38.2447C285.597 37.4268 284.197 37.4268 283.164 38.2447L280.165 40.6188C277.854 42.4477 274.745 39.9869 275.628 37.0276L276.773 33.1864C277.168 31.863 276.736 30.4132 275.702 29.5952L272.703 27.2212C270.392 25.3923 271.58 21.4106 274.436 21.4106H278.143C279.421 21.4106 280.553 20.5146 280.947 19.1912L282.093 15.3499Z" fill="#FFC825"/>
<path fill-rule="evenodd" clip-rule="evenodd" d="M38.0856 76.1768C35.7006 76.528 33.7712 78.996 31.7766 82.6921L31.4731 81.844L31.7766 82.6921C29.955 86.0678 27.928 88.4965 25.3617 88.8423C22.8064 89.1866 19.7791 87.4571 15.9568 82.8087C8.57963 73.8372 2.85401 79.1323 0.975928 82.6851C0.771794 83.0713 0.468742 83.0078 0.299041 82.5432C0.129341 82.0787 0.157254 81.3891 0.361388 81.0029C2.5306 76.8993 8.67706 71.4754 16.4099 80.8794C20.1424 85.4186 22.9893 86.9705 25.3049 86.6586C27.6094 86.3481 29.4498 84.183 31.1696 80.9959L31.4334 81.7331L31.1696 80.9959C33.2346 77.1693 35.3525 74.3871 38.0235 73.9939C40.6841 73.6022 43.8132 75.592 47.9003 80.8938C55.7945 91.1342 63.7696 85.1523 66.7444 80.9168C66.9695 80.5964 67.2661 80.7518 67.4069 81.2639C67.5477 81.776 67.4794 82.4508 67.2543 82.7713C64.0833 87.286 55.7192 93.5545 47.4242 82.7942C43.4168 77.5957 40.4811 75.8242 38.0856 76.1768Z" fill="#00C17C"/>
<path fill-rule="evenodd" clip-rule="evenodd" d="M238.353 171.714C236.4 171.929 234.821 173.441 233.187 175.706L232.939 175.186L233.187 175.706C231.696 177.774 230.036 179.262 227.935 179.474C225.842 179.685 223.363 178.626 220.233 175.777C214.193 170.281 209.504 173.525 207.966 175.702C207.799 175.938 207.551 175.899 207.412 175.615C207.273 175.33 207.296 174.908 207.463 174.671C209.24 172.157 214.272 168.833 220.604 174.595C223.661 177.377 225.992 178.327 227.888 178.136C229.775 177.946 231.282 176.619 232.69 174.667L232.906 175.118L232.69 174.667C234.381 172.322 236.115 170.617 238.303 170.376C240.481 170.136 243.043 171.356 246.39 174.604C252.854 180.879 259.384 177.213 261.82 174.618C262.005 174.422 262.247 174.517 262.363 174.831C262.478 175.145 262.422 175.558 262.238 175.754C259.641 178.521 252.792 182.361 246 175.769C242.719 172.583 240.315 171.498 238.353 171.714Z" fill="#00C17C"/>
<path d="M130.496 151.652C129.843 152.48 74.9228 154.94 72.305 154.189C72.205 154.165 72.0815 154.106 71.9403 154.036C68.7107 152.527 54.8217 142.058 52.6098 137.648C50.8333 134.101 61.3103 114.842 64.9634 111.542C67.393 109.346 71.8991 108.489 71.8991 108.489C71.8991 108.489 84.6233 71.8496 92.4649 64.1811C94.4297 62.2552 128.49 61.5036 134.579 64.2751C137.185 65.4612 143.521 71.9259 143.697 73.0827C143.697 73.0827 143.697 73.0827 143.691 73.0944C143.856 74.7737 131.155 150.812 130.496 151.652Z" fill="#37474F"/>
<path d="M130.891 151.652C130.238 152.48 75.317 154.94 72.6992 154.188C72.5992 154.165 72.4757 154.106 72.3345 154.036C77.5936 139.838 102.336 73.188 103.042 72.7594C103.73 72.3425 136.291 72.5245 144.085 73.0882C144.244 74.7734 131.544 150.812 130.891 151.652Z" fill="#263238"/>
<path d="M110.719 66.876C110.172 66.3593 109.807 58.908 110.813 57.4284C111.948 55.7667 125.008 56.5887 125.778 58.0038C126.549 59.4189 126.914 66.8642 126.526 67.1343C126.131 67.4044 123.955 67.6628 123.661 67.1813C123.367 66.7057 123.384 60.5463 123.155 60.2233C122.925 59.9004 113.778 59.3015 113.466 59.7712C113.154 60.2409 113.919 66.4649 113.548 66.735C113.178 67.011 111.254 67.3751 110.719 66.876Z" fill="#37474F"/>
<path d="M83.7409 100.71L79.7085 98.8235L77.534 103.455L81.5663 105.341L83.7409 100.71Z" fill="#DBDBDB"/>
<path d="M83.539 104.432L76.9658 101.357L74.4842 106.641L81.0574 109.717L83.539 104.432Z" fill="#C7C7C7"/>
<path d="M82.5112 118.377C80.264 123.162 71.1517 142.562 71.1517 142.562L55.5215 135.252C55.5215 135.252 64.6337 115.852 66.8809 111.066C69.1281 106.281 73.8813 103.997 78.6757 106.24C83.4818 108.483 84.7642 113.591 82.5112 118.377Z" fill="#FFC727"/>
<path opacity="0.1" d="M82.5112 118.377C80.264 123.162 71.1517 142.562 71.1517 142.562L55.5215 135.252C55.5215 135.252 64.6337 115.852 66.8809 111.066C69.1281 106.281 73.8813 103.997 78.6757 106.24C83.4818 108.483 84.7642 113.591 82.5112 118.377Z" fill="black"/>
<path d="M76.9874 107.649C76.8285 107.984 76.4285 108.131 76.0932 107.972C75.7579 107.814 75.6108 107.414 75.7696 107.08C75.9285 106.745 76.3285 106.598 76.6638 106.757C77.005 106.915 77.1462 107.314 76.9874 107.649Z" fill="white"/>
<path d="M82.1822 116.75C82.0234 117.085 81.6233 117.232 81.288 117.073C80.9527 116.915 80.8056 116.515 80.9645 116.181C81.1233 115.846 81.5233 115.699 81.8586 115.858C82.194 116.016 82.341 116.416 82.1822 116.75Z" fill="white"/>
<path d="M74.9815 114.12C74.8227 114.454 74.4226 114.601 74.0873 114.442C73.752 114.284 73.605 113.885 73.7638 113.55C73.9226 113.215 74.3226 113.069 74.658 113.227C74.9933 113.386 75.1403 113.785 74.9815 114.12Z" fill="white"/>
<path d="M72.8633 120.215C72.7045 120.549 72.3045 120.696 71.9692 120.538C71.6339 120.379 71.4868 119.98 71.6456 119.645C71.8045 119.31 72.2045 119.164 72.5398 119.322C72.8751 119.481 73.0222 119.88 72.8633 120.215Z" fill="white"/>
<path d="M63.7217 123.338C63.5629 123.673 63.1629 123.82 62.8276 123.661C62.4923 123.503 62.3452 123.103 62.504 122.769C62.6629 122.434 63.0629 122.287 63.3982 122.446C63.7335 122.604 63.8806 123.003 63.7217 123.338Z" fill="white"/>
<path d="M65.6451 117.654C65.4862 117.989 65.0862 118.136 64.7509 117.977C64.4156 117.819 64.2685 117.419 64.4274 117.085C64.5862 116.75 64.9862 116.603 65.3215 116.762C65.6627 116.92 65.8039 117.32 65.6451 117.654Z" fill="white"/>
<path d="M68.4864 112C68.3276 112.334 67.9275 112.481 67.5922 112.323C67.2569 112.164 67.1098 111.765 67.2687 111.43C67.4275 111.095 67.8275 110.949 68.1628 111.107C68.4982 111.266 68.6452 111.665 68.4864 112Z" fill="white"/>
<path d="M72.7759 109.734C72.6171 110.068 72.2171 110.215 71.8818 110.057C71.5465 109.898 71.3994 109.499 71.5582 109.164C71.7171 108.829 72.1171 108.683 72.4524 108.841C72.7877 109 72.9289 109.399 72.7759 109.734Z" fill="white"/>
<path d="M70.5518 116.046C70.393 116.381 69.993 116.527 69.6577 116.369C69.3223 116.21 69.1753 115.811 69.3341 115.476C69.4929 115.142 69.893 114.995 70.2283 115.153C70.5636 115.312 70.7106 115.711 70.5518 116.046Z" fill="white"/>
<path d="M79.5875 112.276C79.4286 112.611 79.0286 112.758 78.6933 112.599C78.358 112.441 78.2109 112.041 78.3697 111.707C78.5286 111.372 78.9286 111.225 79.2639 111.384C79.5992 111.542 79.7463 111.941 79.5875 112.276Z" fill="white"/>
<path d="M77.5577 118.517C77.3988 118.852 76.9988 118.999 76.6635 118.84C76.3282 118.682 76.1811 118.283 76.34 117.948C76.4988 117.613 76.8988 117.466 77.2341 117.625C77.5694 117.783 77.7106 118.183 77.5577 118.517Z" fill="white"/>
<path d="M68.2227 121.853C68.0639 122.187 67.6639 122.334 67.3285 122.176C66.9932 122.017 66.8462 121.618 67.005 121.283C67.1638 120.948 67.5639 120.802 67.8992 120.96C68.2345 121.119 68.3815 121.518 68.2227 121.853Z" fill="white"/>
<path d="M72.5284 129.721C72.3695 130.055 71.9695 130.202 71.6342 130.044C71.2989 129.885 71.1518 129.486 71.3107 129.151C71.4695 128.816 71.8695 128.67 72.2048 128.828C72.5401 128.987 72.6872 129.386 72.5284 129.721Z" fill="white"/>
<path d="M70.2925 134.248C70.1337 134.582 69.7337 134.729 69.3984 134.571C69.0631 134.412 68.916 134.013 69.0748 133.678C69.2337 133.343 69.6337 133.197 69.969 133.355C70.3043 133.514 70.4455 133.913 70.2925 134.248Z" fill="white"/>
<path d="M66.2867 126.926C66.1278 127.261 65.7278 127.408 65.3925 127.249C65.0572 127.09 64.9101 126.691 65.069 126.357C65.2278 126.022 65.6278 125.875 65.9631 126.034C66.2984 126.192 66.4455 126.591 66.2867 126.926Z" fill="white"/>
<path d="M59.9747 132.663C59.8158 132.997 59.4158 133.144 59.0805 132.986C58.7452 132.827 58.5981 132.428 58.757 132.093C58.9158 131.758 59.3158 131.612 59.6511 131.77C59.9864 131.929 60.1276 132.328 59.9747 132.663Z" fill="white"/>
<path d="M70.7154 125.669C70.5566 126.004 70.1565 126.151 69.8212 125.992C69.4859 125.834 69.3388 125.435 69.4977 125.1C69.6565 124.765 70.0565 124.618 70.3918 124.777C70.733 124.936 70.8742 125.335 70.7154 125.669Z" fill="white"/>
<path d="M68.4752 130.643C68.3163 130.977 67.9163 131.124 67.581 130.966C67.2457 130.807 67.0986 130.408 67.2574 130.073C67.4163 129.738 67.8163 129.592 68.1516 129.75C68.4869 129.903 68.634 130.302 68.4752 130.643Z" fill="white"/>
<path d="M66.1695 135.563C66.0107 135.898 65.6106 136.045 65.2753 135.886C64.94 135.728 64.7929 135.328 64.9518 134.994C65.1106 134.659 65.5106 134.512 65.8459 134.671C66.1813 134.823 66.3224 135.223 66.1695 135.563Z" fill="white"/>
<path d="M68.192 139.286C68.0331 139.62 67.6331 139.767 67.2978 139.609C66.9625 139.45 66.8154 139.051 66.9742 138.716C67.1331 138.382 67.5331 138.235 67.8684 138.393C68.2037 138.552 68.3508 138.951 68.192 139.286Z" fill="white"/>
<path d="M62.0743 127.995C61.9154 128.329 61.5154 128.476 61.1801 128.317C60.8448 128.159 60.6977 127.76 60.8566 127.425C61.0154 127.09 61.4154 126.944 61.7507 127.102C62.086 127.261 62.2272 127.66 62.0743 127.995Z" fill="white"/>
<path d="M64.087 131.606C63.9281 131.941 63.5281 132.087 63.1928 131.929C62.8575 131.77 62.7104 131.371 62.8693 131.036C63.0281 130.702 63.4281 130.555 63.7634 130.713C64.0987 130.872 64.2458 131.271 64.087 131.606Z" fill="white"/>
<path d="M72.1636 138.364C72.0048 138.699 71.6048 138.846 71.2695 138.687C70.9342 138.529 70.7871 138.129 70.9459 137.795C71.1048 137.46 71.5048 137.313 71.8401 137.472C72.1754 137.63 72.3166 138.029 72.1636 138.364Z" fill="white"/>
<path d="M61.9859 136.444C61.8271 136.779 61.427 136.925 61.0917 136.767C60.7564 136.608 60.6094 136.209 60.7682 135.874C60.927 135.54 61.327 135.393 61.6624 135.551C61.9977 135.71 62.1388 136.109 61.9859 136.444Z" fill="white"/>
<path d="M76.8047 128.717C76.6459 129.051 76.2459 129.198 75.9106 129.04C75.5753 128.881 75.4282 128.482 75.587 128.147C75.7459 127.812 76.1459 127.666 76.4812 127.824C76.8165 127.983 76.9577 128.382 76.8047 128.717Z" fill="white"/>
<path d="M74.5635 133.485C74.4047 133.819 74.0047 133.966 73.6694 133.808C73.3341 133.649 73.187 133.25 73.3458 132.915C73.5047 132.58 73.9047 132.434 74.24 132.592C74.5753 132.751 74.7224 133.15 74.5635 133.485Z" fill="white"/>
<path d="M74.9991 124.801C74.8402 125.135 74.4402 125.282 74.1049 125.123C73.7696 124.965 73.6225 124.566 73.7814 124.231C73.9402 123.896 74.3402 123.749 74.6755 123.908C75.0108 124.061 75.152 124.46 74.9991 124.801Z" fill="white"/>
<path d="M79.7169 123.309C79.558 123.643 79.158 123.79 78.8227 123.632C78.4874 123.473 78.3403 123.074 78.4991 122.739C78.658 122.405 79.058 122.258 79.3933 122.416C79.7286 122.575 79.8698 122.974 79.7169 123.309Z" fill="white"/>
<path d="M53.6986 135.593C55.0222 142.057 69.3994 149.015 70.3759 148.986C71.3525 148.957 80.9 125.382 80.9 125.382C80.9 125.382 69.27 121.565 64.0168 114.789C64.0168 114.789 53.2868 133.579 53.6986 135.593Z" fill="#455A64"/>
<path d="M164.687 179.5H109.042C105.654 169.734 102.542 161.1 100.554 155.652C99.3066 152.226 98.5066 150.053 98.3536 149.645C98.336 149.596 98.3242 149.574 98.3242 149.574H156.186C156.186 149.574 156.845 151.857 157.951 155.701C158.651 158.176 159.545 161.304 160.563 164.881C160.651 165.192 160.745 165.512 160.828 165.837C161.998 169.934 163.316 174.577 164.687 179.5Z" fill="#455A64"/>
<path d="M117.472 179.5H116.425C113.584 171.577 110.783 163.641 108.089 155.687L107.86 155.016C107.807 154.83 108.166 154.75 108.242 154.932C108.342 155.185 108.442 155.434 108.536 155.687C111.613 163.601 114.56 171.546 117.472 179.5Z" fill="#263238"/>
<path d="M151.674 149.644C151.45 151.004 150.738 153.204 149.697 155.772C149.05 157.363 148.273 159.082 147.385 160.855C147.197 161.26 146.985 161.651 146.779 162.05C143.973 167.449 140.285 172.95 136.52 175.559C136.514 175.559 136.514 175.559 136.508 175.563C136.496 175.563 136.496 175.563 136.496 175.563C136.008 175.905 135.531 176.199 135.043 176.425L131.82 177.931C131.82 177.931 131.82 177.945 131.808 177.967V177.971C131.772 178.118 131.661 178.647 131.472 179.5H77.2048C75.8165 170 78.7108 161.108 81.2344 155.541C82.8875 151.875 84.3875 149.644 84.3875 149.644H151.674Z" fill="#455A64"/>
<path d="M145.226 173.244C141.838 174.715 138.273 175.879 134.696 177.048C133.737 177.359 132.778 177.665 131.808 177.963H131.802C131.743 177.985 131.684 178.003 131.619 178.016C130.778 178.279 129.943 178.527 129.096 178.776C128.278 179.012 127.454 179.265 126.625 179.496H124.784C126.048 179.012 127.372 178.607 128.66 178.172C130.455 177.568 132.243 176.968 134.043 176.377C134.861 176.11 135.684 175.839 136.496 175.564C136.502 175.564 136.514 175.559 136.526 175.559C139.332 174.617 142.126 173.68 145.014 172.884C145.297 172.804 145.479 173.129 145.226 173.244Z" fill="#263238"/>
<path d="M131.819 177.994C131.825 178.314 131.784 178.843 131.707 179.5H131.102C131.29 178.887 131.46 178.385 131.619 178.021C131.625 178.007 131.625 177.994 131.637 177.981C131.666 177.918 131.772 177.914 131.796 177.967H131.802V177.972C131.819 177.981 131.819 177.985 131.819 177.994Z" fill="#263238"/>
<path d="M89.6411 152.2C88.9058 153.306 88.241 154.435 87.6234 155.586C83.9349 162.509 82.4231 170.125 83.529 177.563C83.629 178.212 83.7467 178.856 83.882 179.5H82.9231C82.5643 177.621 82.3231 175.737 82.276 173.835C82.0878 167.556 83.6996 161.313 87.0174 155.577C87.7116 154.381 88.4822 153.208 89.3234 152.066C89.4352 151.906 89.747 152.044 89.6411 152.2Z" fill="#263238"/>
<path d="M130.461 166.556C130.514 164.979 130.661 163.402 130.767 161.824C131.014 158.1 131.202 154.355 131.661 150.644C131.679 150.498 131.967 150.498 131.967 150.649C132.032 153.528 131.879 156.421 131.802 159.3C131.761 160.74 131.708 162.184 131.655 163.624C131.608 164.997 131.484 166.383 131.62 167.756C131.72 168.796 132.026 170.813 133.82 170.938C135.508 171.053 136.849 169.68 137.273 168.667C138.344 166.103 138.726 163.33 139.073 160.664C139.279 159.087 139.52 152.657 139.408 151.058C139.403 150.955 139.614 150.96 139.62 151.062C139.738 152.688 140.032 154.306 140.103 155.941C140.173 157.563 140.179 159.194 140.044 160.815C139.908 162.371 139.738 163.935 139.426 165.477C139.15 166.863 138.838 168.303 138.102 169.596C137.479 170.689 136.408 171.693 134.79 171.933C134.585 171.964 134.385 171.977 134.19 171.977C134.173 172.311 134.108 172.648 134.079 172.977C134.032 173.502 133.943 174.017 133.849 174.537C133.761 175.043 133.602 175.554 133.426 176.048C133.249 176.536 133.073 177.052 132.726 177.492C132.667 177.563 132.537 177.523 132.532 177.447C132.479 176.954 132.608 176.448 132.696 175.959C132.79 175.452 132.885 174.937 133.02 174.439C133.155 173.946 133.279 173.453 133.408 172.959C133.496 172.631 133.561 172.289 133.643 171.951C132.602 171.826 131.737 171.311 131.249 170.529C130.479 169.311 130.414 167.876 130.461 166.556Z" fill="#263238"/>
<path d="M129.455 77.6151C136.473 86.3933 163.992 117.549 179.287 120.443C189.587 122.393 222.677 105.6 229.931 99.5165C232.896 97.0269 216.33 72.3834 212.306 73.3757C207.93 74.4561 184.111 90.251 181.016 90.0748C177.922 89.8987 153.527 76.2117 138.726 70.1345C129.861 66.494 125.502 72.677 129.455 77.6151Z" fill="#AD6359"/>
<path d="M220.842 105.382C227.208 102.934 246.509 89.4231 249.715 85.9177C252.921 82.4123 261.409 71.6495 258.968 68.9309C256.527 66.2064 253.785 69.1599 253.785 69.1599C253.785 69.1599 257.003 63.6111 253.944 61.5325C251.503 59.8708 247.432 63.8225 247.432 63.8225C247.432 63.8225 250.638 57.5574 247.338 55.8839C244.332 54.3573 241.02 59.724 241.02 59.724C241.02 59.724 243.167 54.2105 239.991 53.2945C236.167 52.1965 232.443 61.738 228.613 65.3433C227.743 66.1594 202.053 78.7425 202.053 78.7425L220.842 105.382Z" fill="#FFCEB9"/>
<path d="M240.879 59.4423C237.361 66.3063 235.702 69.0425 229.719 73.4346C229.601 73.5227 229.701 73.7106 229.837 73.6342C236.09 69.8646 238.29 66.7585 241.226 59.5597C241.367 59.2074 241.037 59.1194 240.879 59.4423Z" fill="#263238"/>
<path d="M247.355 63.8166C243.855 70.8451 241.184 73.5049 235.254 78.5664C235.172 78.6368 235.284 78.7895 235.372 78.7249C241.602 74.2506 245.037 71.3618 247.608 63.8753C247.726 63.5348 247.514 63.4937 247.355 63.8166Z" fill="#263238"/>
<path d="M253.491 69.4068C249.609 75.9714 246.897 79.2008 240.508 83.3697C240.355 83.4695 240.485 83.6985 240.649 83.6104C247.579 79.9876 250.997 75.9831 253.679 69.5418C253.862 69.1073 253.738 68.9958 253.491 69.4068Z" fill="#263238"/>
<path d="M202.047 78.743L220.843 105.383C220.843 105.383 221.284 110.879 215.683 113.327C210.077 115.776 186.888 124.125 177.711 121.031C168.528 117.937 142.327 95.4128 131.026 80.4223C119.725 65.4318 136.432 68.4205 139.609 69.8415C142.785 71.2624 180.152 88.8482 181.482 88.813C182.811 88.7777 191.5 82.2014 195.588 80.1581C199.677 78.1206 202.047 78.743 202.047 78.743Z" fill="#29B2FF"/>
<path opacity="0.1" d="M191.093 120.831C185.805 121.8 180.899 122.117 177.71 121.037C168.521 117.937 142.32 95.4069 131.019 80.4223C130.308 79.4769 129.702 78.5962 129.202 77.7917L191.093 120.831Z" fill="black"/>
<path d="M213.518 110.89C211.795 108.782 210.359 106.434 208.859 104.185C207.377 101.965 205.912 99.7341 204.465 97.4911C201.535 92.9757 198.482 88.4839 195.859 83.7982C195.8 83.6867 195.941 83.5927 196.023 83.6925C199.412 87.9613 202.371 92.5764 205.347 97.1153C206.842 99.3935 208.301 101.689 209.736 103.997C211.112 106.222 212.589 108.448 213.707 110.802C213.76 110.914 213.589 110.978 213.518 110.89Z" fill="#263238"/>
<g opacity="0.1">
<path opacity="0.1" d="M207.495 116.41C206.813 116.639 206.101 116.874 205.372 117.108C205.254 116.322 205.213 115.535 205.213 114.766C205.207 113.28 205.331 111.842 205.313 110.415C205.307 108.994 205.189 107.579 204.901 106.199C204.613 104.825 204.13 103.504 203.483 102.3C203.325 101.995 203.142 101.695 202.972 101.419C202.813 101.155 202.607 100.879 202.413 100.609C201.995 100.075 201.56 99.5227 201.107 98.9825L198.401 95.7002C197.483 94.5963 196.577 93.4866 195.683 92.3533C194.777 91.2201 193.924 90.0457 193.112 88.8185C192.318 87.5737 191.559 86.3113 190.953 84.8493C190.741 84.3384 190.571 83.8158 190.424 83.2991C191.183 82.8 191.93 82.3186 192.636 81.8723C192.877 82.5182 193.142 83.1406 193.442 83.7278C194.036 84.8669 194.812 86.0295 195.589 87.1686C197.165 89.4586 198.824 91.7661 200.489 94.0972C201.319 95.2657 202.172 96.4224 202.948 97.6613C203.336 98.2779 203.725 98.9003 204.072 99.5755C204.242 99.9161 204.413 100.251 204.566 100.627C204.707 100.996 204.83 101.343 204.936 101.707C205.807 104.596 205.936 107.508 206.272 110.356C206.519 112.446 206.913 114.531 207.495 116.41Z" fill="black"/>
<path opacity="0.1" d="M200.071 118.706C199.5 118.87 198.929 119.029 198.347 119.181C197.641 116.751 197.6 114.355 197.547 111.989L197.518 108.325C197.512 107.72 197.494 107.121 197.471 106.528C197.441 105.935 197.412 105.342 197.3 104.813C197.276 104.672 197.247 104.567 197.2 104.438L197.053 104.038L196.876 103.651C196.812 103.522 196.735 103.398 196.671 103.269C196.382 102.77 196.018 102.3 195.612 101.866C194.794 101.008 193.806 100.292 192.759 99.6756C192.235 99.3585 191.694 99.0826 191.147 98.8007L189.494 97.9611C188.394 97.3798 187.252 96.7398 186.346 95.6946C186.123 95.4362 185.911 95.1485 185.735 94.8432C185.646 94.6905 185.57 94.5261 185.493 94.3676L185.311 93.8979C185.088 93.2696 184.946 92.6296 184.835 91.9954C184.611 90.7271 184.582 89.4647 184.611 88.214C184.623 87.8441 184.646 87.4742 184.676 87.1043C185.052 86.8636 185.452 86.6052 185.87 86.3292C185.87 86.9575 185.888 87.5799 185.923 88.2023C185.976 89.4001 186.105 90.5803 186.323 91.7195C186.441 92.289 186.594 92.8409 186.782 93.3635L186.935 93.7511C186.994 93.8626 187.035 93.9801 187.099 94.0975C187.223 94.3206 187.352 94.5437 187.517 94.761C188.158 95.6241 189.052 96.4109 190.011 97.1449C190.97 97.8789 192.011 98.5424 193.041 99.2176C194.076 99.8811 195.123 100.556 196.071 101.39C196.553 101.801 197 102.259 197.406 102.77C197.606 103.022 197.788 103.293 197.965 103.574L198.206 104.003C198.282 104.156 198.359 104.332 198.412 104.49C198.641 105.142 198.747 105.765 198.841 106.393C198.941 107.015 198.994 107.638 199.047 108.254C199.147 109.487 199.206 110.709 199.288 111.918C199.365 113.134 199.459 114.337 199.577 115.523C199.682 116.615 199.83 117.696 200.071 118.706Z" fill="black"/>
</g>
<path d="M78.4296 161.316C78.4884 161.393 158.769 157.652 159.293 157.153C159.534 156.924 160.575 152.362 159.346 146.032C155.657 127.031 144.604 88.2369 134.856 71.8138C132.421 67.7153 121.45 61.6675 113.479 69.424C97.3306 85.1602 84.6476 125.211 79.6532 147.201C77.2119 157.952 78.0943 160.858 78.4296 161.316Z" fill="#29B2FF"/>
<g opacity="0.1">
<path opacity="0.1" d="M158.981 144.218C158.74 144.224 158.499 144.235 158.263 144.253C156.099 144.417 153.769 144.858 151.475 145.322C146.857 146.261 142.157 147.318 137.421 148.369C135.05 148.892 132.68 149.443 130.238 149.843C129.015 150.037 127.785 150.23 126.509 150.324C125.862 150.365 125.226 150.412 124.532 150.401C123.867 150.377 123.25 150.336 122.608 150.26C117.52 149.714 112.89 147.993 108.214 146.637C103.543 145.275 98.7131 144.353 94.4187 144.37C93.3598 144.376 92.2186 144.458 91.0715 144.564C89.9303 144.67 88.7772 144.84 87.6184 145.01C85.3065 145.38 82.9711 145.844 80.6415 146.349C80.3591 146.408 80.0827 146.472 79.8003 146.537C80.0827 145.304 80.3944 144.012 80.7239 142.679C82.7357 142.028 84.777 141.452 86.8771 141.018C88.1007 140.753 89.342 140.542 90.6068 140.383C91.2421 140.307 91.8774 140.243 92.5186 140.207C93.1481 140.16 93.854 140.149 94.5187 140.19C97.213 140.307 99.7308 141.106 102.037 142.08C104.355 143.043 106.519 144.182 108.755 145.104C110.984 146.032 113.273 146.789 115.614 147.242C117.949 147.7 120.332 147.823 122.644 147.612C123.214 147.57 123.809 147.482 124.356 147.406C124.873 147.324 125.432 147.189 125.985 147.06C127.103 146.76 128.244 146.449 129.379 146.108L136.303 144.059C138.621 143.36 140.962 142.679 143.321 142.039C145.68 141.382 148.08 140.83 150.534 140.378C152.945 139.967 155.375 139.626 157.987 139.638C158.352 141.247 158.681 142.779 158.981 144.218Z" fill="black"/>
<path opacity="0.1" d="M155.48 129.321C153.821 128.734 152.145 128.258 150.48 127.9C149.515 127.701 148.55 127.577 147.609 127.524L146.909 127.507C146.691 127.524 146.48 127.513 146.262 127.536C145.827 127.583 145.391 127.642 144.944 127.748C143.179 128.176 141.35 129.051 139.579 130.055C137.797 131.065 136.073 132.239 134.344 133.408C132.62 134.576 130.879 135.762 128.949 136.684C127.99 137.154 126.978 137.553 125.92 137.847C125.39 137.994 124.843 138.099 124.296 138.187L123.461 138.275C123.172 138.293 122.843 138.299 122.561 138.275C121.396 138.205 120.349 137.964 119.307 137.694C118.272 137.436 117.266 137.113 116.272 136.784C114.278 136.126 112.331 135.416 110.383 134.741C108.442 134.054 106.495 133.408 104.566 132.809C102.642 132.21 100.706 131.682 98.824 131.4C97.871 131.265 97.0239 131.241 96.0768 131.341C95.1415 131.435 94.1826 131.635 93.2237 131.875C91.306 132.363 89.3882 133.05 87.494 133.801C85.8116 134.482 84.135 135.21 82.4702 135.986C82.6526 135.31 82.8408 134.629 83.035 133.936C84.2056 133.22 85.3998 132.545 86.6175 131.905C88.4882 130.924 90.4295 130.055 92.4825 129.356C93.512 129.028 94.5768 128.734 95.6945 128.552C96.8004 128.352 98.0475 128.311 99.1476 128.423C103.618 128.869 107.554 130.443 111.425 131.987L117.166 134.353C118.113 134.747 119.066 135.116 120.008 135.475C120.949 135.815 121.896 136.162 122.79 136.338C123.025 136.391 123.214 136.408 123.449 136.432L124.167 136.461L124.89 136.444C125.137 136.426 125.378 136.397 125.62 136.373C126.596 136.256 127.561 135.997 128.508 135.657C130.39 134.946 132.161 133.878 133.82 132.662C134.649 132.057 135.438 131.388 136.244 130.736L138.644 128.71C140.273 127.383 142.026 126.033 144.262 125.317C144.815 125.135 145.397 125 145.991 124.929C146.291 124.888 146.597 124.882 146.897 124.865L147.75 124.888C148.88 124.953 149.968 125.158 151.033 125.405C152.321 125.698 153.556 126.103 154.762 126.567C155.004 127.495 155.245 128.417 155.48 129.321Z" fill="black"/>
</g>
<path d="M105.048 71.3208C78.841 82.4124 58.4928 92.0655 61.4459 102.118C62.6048 106.064 69.4464 116.709 78.2351 116.697C85.1413 116.686 97.4538 105.635 111.478 86.2878C118.726 76.2941 121.59 64.3158 105.048 71.3208Z" fill="#29B2FF"/>
<path d="M109.695 91.6072C108.577 92.535 107.465 93.4744 106.371 94.4374C106.601 94.1673 106.842 93.9031 107.071 93.6271C108.948 91.4076 110.801 89.1705 112.654 86.9333C112.695 86.8864 112.619 86.8276 112.577 86.8687C109.048 90.6149 105.489 94.3258 101.947 98.0602C98.4178 101.783 89.0644 111.254 86.7995 113.115C86.7525 113.151 86.8113 113.233 86.8584 113.192C88.9055 111.595 94.6529 106.791 96.4883 105.001C99.259 102.294 101.924 99.4988 104.483 96.6158C106.365 95.0891 108.136 93.4275 109.824 91.7188C109.883 91.6659 109.765 91.5485 109.695 91.6072Z" fill="#263238"/>
<path d="M70.8171 110.626C59.3576 105.935 51.9337 71.2387 49.1218 47.8869C48.5864 43.442 83.7883 39.1557 83.8178 43.947C83.9648 71.2622 83.3648 115.764 70.8171 110.626Z" fill="#FFCEB9"/>
<path d="M44.6926 29.6842C44.9044 37.1354 51.2989 55.7899 54.2402 58.8314C57.1874 61.873 79.518 51.2275 80.7652 47.0645C82.0123 42.9073 83.0594 18.5221 78.1297 12.7209C73.2059 6.91964 44.475 21.963 44.6926 29.6842Z" fill="url(#paint0_linear_486_346)"/>
<path d="M83.913 23.1664C81.9599 26.6014 79.0245 22.3385 79.0245 22.3385C79.0245 22.3385 81.7717 29.4902 78.3892 32.2558C75.1184 34.9098 71.7535 29.637 71.5064 29.2612C71.6476 29.6429 74.0007 36.2779 70.3123 38.7088C66.4768 41.2278 64.006 35.3561 63.8472 34.9744C63.8707 35.3737 64.0649 40.6758 60.8412 41.8854C55.3056 43.9581 54.4349 30.4238 50.7112 27.4175C50.7112 27.4175 44.8932 30.1126 44.6873 30.2418C44.6873 30.2418 43.5932 20.4008 47.9346 15.6154C50.2229 13.0906 53.029 14.7229 53.029 14.7229C53.029 14.7229 52.2172 10.6127 55.0585 8.61044C56.5233 7.58876 59.4646 9.00972 59.4646 9.00972C59.4646 9.00972 58.9528 5.6922 61.5941 4.06574C63.6943 2.76222 66.3238 4.39456 66.3238 4.39456C66.3238 4.39456 67.3121 0.983092 69.8946 0.348948C75.1007 -0.9487 88.0897 15.8033 83.913 23.1664Z" fill="url(#paint1_linear_486_346)"/>
<path d="M66.7824 4.58264C66.7353 4.5298 66.8 4.45347 66.853 4.50044C72.4709 8.96881 77.2712 15.598 79.2066 22.5501C79.2713 22.7791 78.9242 22.9787 78.8066 22.7438C75.4417 15.9561 71.9121 10.2077 66.7824 4.58264Z" fill="#263238"/>
<path d="M59.4405 8.89834C59.3817 8.83962 59.4876 8.74568 59.5523 8.79852C65.3173 13.4372 70.5176 21.0469 71.8059 29.326C71.8471 29.6079 71.6059 29.9073 71.5294 29.5844C70.2529 24.1472 64.0878 13.9363 59.4405 8.89834Z" fill="#263238"/>
<path d="M63.7412 35.5854C62.2 27.6997 58.2821 21.0999 53.2818 14.8993C53.2171 14.8171 53.3407 14.7349 53.4113 14.7878C56.6879 17.1541 59.4586 21.4404 61.3352 24.9576C63.1294 28.3279 64.0765 31.7218 64.0177 35.5325C64.0177 35.6793 63.7765 35.7498 63.7412 35.5854Z" fill="#263238"/>
<path d="M79.0242 22.3386C79.4183 23.7654 79.7007 25.2216 79.8301 26.6778C79.936 28.1222 79.8889 29.643 79.2713 30.8643C78.9654 31.4632 78.483 31.9388 77.8771 32.1678C77.2594 32.3968 76.5652 32.5025 75.9299 32.3968C74.6416 32.2089 73.518 31.199 72.8356 30.101L71.1296 27.3471L71.7767 30.5237C72.0591 31.9094 72.1591 33.4126 71.9767 34.8101C71.7944 36.2017 71.2414 37.5404 70.1766 38.245C69.0766 38.9966 67.7647 39.0201 66.7647 38.1628C65.7411 37.3643 64.9705 36.0373 64.4646 34.7631L63.0586 31.1931L63.2174 35.0097C63.2586 36.0431 63.1763 37.1529 62.9468 38.1746C62.7115 39.1904 62.3056 40.1827 61.6115 40.8168C60.935 41.4392 59.9055 41.7035 59.0937 41.357C58.2348 41.0047 57.523 40.1357 56.9348 39.2491C55.7523 37.4171 54.9405 35.3092 54.0405 33.2599C53.5934 32.2265 53.1522 31.1931 52.6522 30.1773C52.1463 29.185 51.6168 28.1281 50.7227 27.4176C51.5286 28.2103 51.9286 29.2907 52.3639 30.3065C52.7757 31.3458 53.1404 32.4027 53.5052 33.4654C54.2346 35.591 54.9935 37.7224 56.1465 39.7364C56.7524 40.7111 57.4407 41.7504 58.6584 42.3493C59.9173 42.9541 61.435 42.5725 62.3998 41.6917C63.388 40.7992 63.8528 39.6014 64.1469 38.4564C64.4234 37.2879 64.5293 36.1429 64.4999 34.9334L63.2527 35.18C63.8351 36.6949 64.594 38.11 65.9294 39.2256C66.5882 39.7717 67.4941 40.1592 68.4236 40.1416C69.359 40.1357 70.1943 39.801 70.9179 39.3078C72.4062 38.2744 73.018 36.5187 73.1945 34.9627C73.3768 33.3598 73.2415 31.8096 72.9062 30.2478L71.8414 30.6764C72.7533 32.0386 74.1239 33.1131 75.8122 33.3069C76.6476 33.395 77.4594 33.2247 78.2065 32.9018C78.9771 32.5671 79.583 31.8977 79.9125 31.1637C80.5596 29.6665 80.4243 28.0928 80.2242 26.6249C79.9889 25.1511 79.5772 23.7125 79.0242 22.3386Z" fill="#263238"/>
<path d="M81.4592 48.6616C81.4592 48.6616 99.6131 15.4923 82.6651 15.046C78.5708 14.9404 62.1934 21.5636 63.3758 24.8694C64.9053 29.144 72.2293 27.8346 76.6942 26.2786C76.6942 26.2786 71.3233 35.7262 76.7942 41.4159C80.2238 44.9976 81.4592 48.6616 81.4592 48.6616Z" fill="url(#paint2_linear_486_346)"/>
<path d="M83.8124 15.0283C82.2005 14.8991 80.5887 15.2045 79.0121 15.545C77.4297 15.8915 75.8884 16.3906 74.3707 16.9484C71.347 18.1051 68.388 19.3323 65.5525 21.0233C64.8466 21.4578 64.1466 21.9276 63.523 22.6087C63.2171 22.9434 62.923 23.372 62.77 23.8711C62.6877 24.1177 62.6465 24.3408 62.6406 24.6697C62.6524 24.9574 62.6995 25.2216 62.7936 25.4565C63.1289 26.4312 63.8583 27.1182 64.6466 27.5879C65.4525 28.0283 66.3114 28.2631 67.1644 28.3982C68.8763 28.6448 70.5528 28.4687 72.1588 28.1457C73.7765 27.8404 75.3354 27.3413 76.8708 26.8128L76.2061 25.9967C75.6119 27.124 75.1707 28.2514 74.806 29.4375C74.4471 30.6118 74.2001 31.8214 74.0824 33.0486C73.9765 34.2758 74.0471 35.5147 74.306 36.7125C74.553 37.9104 75.0354 39.0553 75.7119 40.0535C75.1825 38.9731 74.8354 37.8223 74.6942 36.6479C74.5471 35.4736 74.6177 34.2875 74.7883 33.1308C74.9648 31.9682 75.2648 30.8291 75.6707 29.7252C76.0766 28.6331 76.5767 27.5351 77.1649 26.5721L77.912 25.339L76.512 25.7559C74.9942 26.2022 73.4824 26.6602 71.9352 26.895C70.4058 27.1475 68.8351 27.3178 67.3644 27.0771C65.9349 26.8598 64.4643 26.1904 64.0642 25.022C63.623 24.0238 64.976 22.9023 66.2408 22.092C67.5409 21.2406 68.9586 20.5125 70.3763 19.7903C71.7941 19.0681 73.2235 18.3576 74.6883 17.7293C77.6179 16.5315 80.6063 15.2808 83.8124 15.0283Z" fill="#263238"/>
<path d="M85.2296 50.6937L48.6217 58.6792C48.6217 58.6792 46.2098 65.6078 48.3394 72.7948C52.3807 86.4406 64.4343 115.735 74.1584 115.059C84.6825 114.325 87.2414 77.7035 87.065 59.7772C87.0061 53.7293 85.2296 50.6937 85.2296 50.6937Z" fill="#29B2FF"/>
<g opacity="0.1">
<path opacity="0.1" d="M87.0417 64.944C87.03 65.7132 87.0123 66.5059 86.9888 67.3103C86.1064 67.7507 85.2004 68.1676 84.271 68.5258C83.5827 68.7959 82.8768 69.0425 82.1591 69.2539C81.7944 69.3596 81.4297 69.4652 81.059 69.5475C80.7002 69.6355 80.2884 69.706 79.9002 69.753C78.3177 69.9409 76.7706 69.7236 75.3293 69.3772C73.8881 69.0425 72.5115 68.5845 71.1173 68.2674C69.729 67.9445 68.3231 67.7272 66.9171 67.692C65.5112 67.6509 64.1052 67.8094 62.7816 68.1559C62.4522 68.2381 62.1169 68.3437 61.8051 68.4436C61.5109 68.5375 61.1992 68.6726 60.8874 68.8017C60.2697 69.0836 59.6344 69.3772 58.999 69.6884L55.1694 71.5556C53.887 72.1838 52.5869 72.8121 51.2751 73.411C50.4809 73.7868 49.6691 74.1333 48.8455 74.4679C48.6632 73.8866 48.4926 73.3347 48.3338 72.8004C48.2102 72.3952 48.1043 71.9901 48.022 71.5849C50.028 70.7981 52.0575 69.9761 54.0929 69.1482C55.4283 68.6197 56.7519 68.0619 58.1402 67.5922C58.8343 67.3632 59.5285 67.1283 60.2638 66.9522C60.6344 66.8641 61.005 66.776 61.4109 66.7173C61.7992 66.6644 62.1639 66.6292 62.5404 66.6116C65.5641 66.4354 68.429 66.9874 71.2821 67.3221C74.141 67.6626 77.0471 67.7272 79.5472 67.3045C80.1649 67.1988 80.8179 67.0402 81.4767 66.8641C82.1356 66.6938 82.7886 66.4824 83.4474 66.2652C84.6475 65.8659 85.8417 65.4196 87.0417 64.944Z" fill="black"/>
<path opacity="0.1" d="M86.8413 71.356C86.8237 71.7788 86.806 72.2015 86.7825 72.6302C86.3001 73.0353 85.8118 73.4287 85.3059 73.8104C84.3118 74.562 83.2646 75.2548 82.1411 75.8655C81.5704 76.1591 80.9763 76.4292 80.3468 76.6464C79.7174 76.8696 78.9997 77.0105 78.3467 77.0575C75.6937 77.2277 73.2523 76.6934 70.8404 76.1708L67.2638 75.3488C66.6755 75.2137 66.0873 75.0904 65.499 74.973C64.9225 74.8673 64.3342 74.7557 63.793 74.7381C63.6518 74.7323 63.5401 74.7381 63.4048 74.7499L62.9812 74.8027L62.5577 74.8849C62.4224 74.9143 62.2812 74.9613 62.14 74.9965C61.587 75.1609 61.0458 75.4016 60.5281 75.6952C59.4987 76.2883 58.5751 77.0809 57.728 77.9558C57.2985 78.3903 56.9044 78.8542 56.4985 79.3122L55.2984 80.7273C54.4807 81.6609 53.5866 82.618 52.3571 83.2521C52.2394 83.3167 52.1159 83.3754 51.9865 83.4224C51.8041 82.9468 51.6277 82.477 51.4512 82.0073C51.5394 81.9721 51.6335 81.9427 51.7218 81.9016C52.7101 81.4788 53.6866 80.7919 54.6219 80.0344C55.5632 79.2711 56.4514 78.4197 57.3456 77.5742C58.2398 76.7228 59.1398 75.8596 60.1752 75.1374C60.687 74.7675 61.2341 74.4387 61.8223 74.1627C62.1223 74.0276 62.4282 73.9161 62.74 73.8104L63.2165 73.6753C63.3812 73.6401 63.5754 73.6049 63.7401 73.5873C64.4225 73.5168 65.0578 73.5579 65.6931 73.6108C66.3226 73.6636 66.9402 73.7517 67.552 73.8456C68.7756 74.0394 69.9816 74.2625 71.1816 74.468C72.3817 74.6794 73.5759 74.8673 74.7583 75.0258C75.9407 75.1902 77.1231 75.3077 78.2409 75.2901C78.8115 75.2725 79.3115 75.2079 79.8527 75.0552C80.388 74.9084 80.9233 74.7029 81.4587 74.468C82.5352 73.9983 83.5823 73.4111 84.6118 72.7887C85.3648 72.3307 86.106 71.8551 86.8413 71.356Z" fill="black"/>
</g>
<path d="M84.7593 60.5287C66.6583 65.6019 53.5576 67.9564 51.0398 68.3498C50.9751 68.3616 50.9457 68.2676 51.0104 68.25C63.5934 64.3982 83.5062 60.4172 84.7298 60.3174C84.8593 60.2997 84.8769 60.4935 84.7593 60.5287Z" fill="#263238"/>
<path d="M86.5416 82.2481C86.1122 85.6713 85.1357 91.1026 84.3474 94.4613C84.3003 94.6726 84.2474 94.884 84.1944 95.0954C84.4121 96.305 84.5415 97.5087 84.5297 98.7476C84.518 100.174 84.4003 101.595 84.2591 103.016C84.2533 103.075 84.1591 103.069 84.165 103.01C84.2709 101.601 84.2356 100.174 84.1297 98.7711C84.065 97.9314 84.0003 97.0859 83.9238 96.2404C83.1532 99.4463 82.3414 102.646 81.3413 105.788C81.3237 105.846 81.2413 105.811 81.2531 105.758C82.012 102.347 82.8179 98.9414 83.4473 95.5005C84.0709 92.095 85.5122 84.0096 86.1122 80.5982C86.5887 77.8972 86.6769 81.1794 86.5416 82.2481Z" fill="#263238"/>
<path d="M119.913 67.9916C120.336 69.2422 127.272 76.9635 133.113 76.118C135.013 75.842 133.955 65.4139 133.955 65.4139L134.055 64.6271L135.419 53.6059L119.983 45.8024C119.983 45.8024 119.736 67.4572 119.913 67.9916Z" fill="#FFCEB9"/>
<path d="M135.413 53.6059L134.048 64.6213L133.954 65.4139C133.954 65.4139 134.142 67.2988 134.219 69.4889C126.113 69.0779 121.859 63.441 119.865 59.46C119.901 53.2067 119.989 45.8024 119.989 45.8024L135.413 53.6059Z" fill="#263238"/>
<path d="M152.626 34.8043C158.256 57.9271 145.02 63.9045 140.019 65.114C135.484 66.212 119.895 69.3652 111.9 46.9411C103.906 24.5229 112.894 14.5997 123.136 11.5464C133.384 8.49315 146.99 11.6815 152.626 34.8043Z" fill="url(#paint3_linear_486_346)"/>
<path d="M145.966 35.4741C145.402 35.5034 144.878 35.4388 144.319 35.4095C143.69 35.3801 143.184 35.4153 142.655 35.0219C142.372 34.8106 142.302 34.2997 142.484 34.0003C142.902 33.3133 143.684 33.1606 144.443 33.1665C145.266 33.1724 145.902 33.3896 146.537 33.9181C147.155 34.4348 146.714 35.433 145.966 35.4741Z" fill="#263238"/>
<path d="M129.49 38.9971C130.031 38.8386 130.501 38.6037 131.019 38.3924C131.602 38.1516 132.096 38.0224 132.466 37.4764C132.666 37.1828 132.56 36.6778 132.29 36.4606C131.666 35.9497 130.878 36.0672 130.166 36.3255C129.39 36.6074 128.86 37.0184 128.437 37.723C128.019 38.4041 128.772 39.2026 129.49 38.9971Z" fill="#263238"/>
<path d="M136.461 54.962C136.89 55.2967 137.331 55.7782 137.92 55.7606C138.484 55.7488 139.12 55.4259 139.608 55.1675C139.655 55.1441 139.714 55.191 139.684 55.2439C139.331 55.9074 138.49 56.3889 137.731 56.3419C136.984 56.2949 136.555 55.7019 136.308 55.056C136.278 54.962 136.402 54.9151 136.461 54.962Z" fill="#263238"/>
<path d="M142.308 51.1162C142.308 51.1162 141.643 52.8836 140.313 53.829C139.825 54.1813 139.26 54.4279 138.596 54.4396C137.237 54.469 136.872 53.3181 136.819 52.2612C136.772 51.3922 136.948 50.5819 136.948 50.5819C136.948 50.5819 139.296 51.7797 142.308 51.1162Z" fill="white"/>
<path d="M141.496 52.6198C141.431 52.7078 141.36 52.8076 141.29 52.8957C140.86 52.931 140.425 52.9427 139.996 52.884C140.502 52.8018 141.007 52.7137 141.496 52.6198Z" fill="#DBDBDB"/>
<path d="M138.637 52.784C138.308 52.7781 137.978 52.7546 137.649 52.6724C137.366 52.6137 137.102 52.4963 136.837 52.3847C136.837 52.3495 136.831 52.3025 136.825 52.2673C136.825 52.2086 136.813 52.1499 136.813 52.0853C137.396 52.373 138.014 52.5667 138.637 52.784Z" fill="#DBDBDB"/>
<path d="M142.196 48.0746C142.196 48.0746 142.925 50.4057 143.114 51.5331C143.131 51.6388 142.867 51.7327 142.484 51.8208C142.467 51.8267 142.461 51.8384 142.443 51.8267C140.502 52.4667 138.384 52.1144 136.902 50.6934C136.807 50.5936 136.931 50.4586 137.043 50.5114C138.713 51.3569 140.402 51.3628 142.172 51.0986C142.202 50.7756 140.79 47.0999 140.966 47.0999C141.737 47.0999 143.114 47.2174 143.625 47.2526C143.19 45.726 141.725 41.4572 140.937 38.674C140.89 38.4979 141.149 38.3981 141.219 38.5507C143.037 42.614 143.92 44.7571 144.943 48.0218C145.025 48.2802 142.678 48.1921 142.196 48.0746Z" fill="#263238"/>
<path d="M130.778 43.3242C130.789 42.9485 130.889 42.5433 131.125 42.1675C131.36 41.7917 131.807 41.551 132.242 41.4805C132.695 41.4101 133.201 41.6156 133.49 41.9327C133.778 42.2497 133.96 42.6079 134.066 42.9719C134.137 43.2009 134.178 43.4358 134.207 43.6765C134.272 44.1756 134.243 44.6806 134.078 45.1503C134.054 44.7863 133.984 44.4281 133.884 44.0934C133.79 43.7705 133.678 43.471 133.543 43.1775C133.26 42.5785 132.819 42.1029 132.325 42.2028C131.795 42.2615 131.46 42.7371 131.337 43.4006C131.213 44.0465 131.201 44.7511 131.207 45.4674C130.907 44.8039 130.742 44.0817 130.778 43.3242Z" fill="#263238"/>
<path d="M146.796 40.2302C146.643 39.8838 146.396 39.5491 146.037 39.2908C145.678 39.0324 145.173 38.9737 144.743 39.0735C144.302 39.1792 143.908 39.5609 143.755 39.9601C143.608 40.3594 143.572 40.7646 143.614 41.1404C143.637 41.3811 143.69 41.616 143.749 41.845C143.878 42.3323 144.096 42.7903 144.425 43.1602C144.308 42.8079 144.237 42.4556 144.208 42.1033C144.173 41.7686 144.161 41.4457 144.178 41.1286C144.214 40.4651 144.437 39.8603 144.937 39.7664C145.449 39.6196 145.943 39.9367 146.302 40.5003C146.661 41.0523 146.937 41.6982 147.202 42.3675C147.231 41.6512 147.114 40.9231 146.796 40.2302Z" fill="#263238"/>
<path d="M109.612 49.0257C116.701 49.102 119.889 40.4882 117.836 33.8238C117.836 33.8238 136.755 35.2037 136.76 20.1075C136.76 20.1075 140.837 26.4196 149.361 26.1378L151.785 31.5574C153.679 30.888 155.403 25.304 150.438 21.2995C150.438 21.2995 149.667 13.8189 143.867 9.65001C138.066 5.47523 132.737 8.75751 132.737 8.75751C132.737 8.75751 128.119 5.35192 121.254 6.63782C114.389 7.9296 111.918 14.3885 111.918 14.3885C111.918 14.3885 102.729 16.7195 101.535 23.4074C100.341 30.0953 104.017 34.3112 104.017 34.3112C104.017 34.3112 101.835 37.0357 103.359 42.5962C104.329 46.1662 107.482 49.0022 109.612 49.0257Z" fill="#263238"/>
<path d="M136.266 18.798C136.46 20.0193 136.584 21.2465 136.525 22.4678C136.525 23.6891 136.342 24.8928 136.054 26.0613C135.431 28.3806 134.048 30.4592 132.03 31.7157C130.083 33.1308 127.589 33.4831 125.212 33.8589C123.995 33.8941 122.771 34.0174 121.542 33.9822C120.312 33.9294 119.083 33.853 117.835 33.8237C119.053 34.0468 120.283 34.2112 121.518 34.405C122.753 34.5283 124.012 34.4813 125.265 34.5224C127.736 34.2758 130.342 33.9118 132.513 32.438C134.672 31.017 136.201 28.7035 136.707 26.2139C137.201 23.7302 137.007 21.1584 136.266 18.798Z" fill="#263238"/>
<path d="M111.923 14.4001C109.564 14.5587 107.229 15.1987 105.093 16.3085C102.958 17.4006 101.081 19.1856 100.134 21.4873C99.7049 22.6499 99.4931 23.8595 99.4519 25.0632C99.3755 26.2669 99.5049 27.4999 99.8461 28.6625C100.499 30.9936 101.993 33.0839 104.017 34.317C102.223 32.7962 100.976 30.7176 100.493 28.4981C100.023 26.3021 100.128 23.8771 100.94 21.8102C101.34 20.7651 101.964 19.8197 102.734 18.9918C103.529 18.1933 104.429 17.4769 105.417 16.8898C107.394 15.7095 109.623 14.911 111.923 14.4001Z" fill="#263238"/>
<path d="M132.742 8.76333C134.501 8.02349 136.342 7.5244 138.195 7.37173C140.043 7.22494 141.907 7.47155 143.56 8.23487C145.213 8.99232 146.596 10.2665 147.696 11.7579C148.784 13.2669 149.625 14.9756 150.237 16.7782C149.973 14.8816 149.267 13.0438 148.249 11.388C147.225 9.72629 145.743 8.30533 143.925 7.44806C142.102 6.62602 140.048 6.39703 138.119 6.7141C136.184 7.01356 134.336 7.70055 132.742 8.76333Z" fill="#263238"/>
<path d="M146.455 26.9188C144.32 26.2847 142.314 25.4391 140.578 24.1943C139.696 23.5954 138.937 22.8439 138.243 22.0336C137.519 21.2291 137.043 20.2603 136.496 19.2797C136.696 20.3719 137.049 21.4816 137.702 22.427C138.313 23.3958 139.131 24.2413 140.072 24.8989C141.013 25.5566 142.043 26.0792 143.125 26.408C144.208 26.7485 145.331 26.9599 146.455 26.9188Z" fill="#263238"/>
<path d="M131.542 52.1144C127.836 52.3727 124.271 50.1121 123.054 46.4306C121.612 42.0796 123.989 37.3705 128.348 35.932C132.707 34.4934 137.425 36.8597 138.866 41.2165C140.308 45.5674 137.931 50.2765 133.572 51.7151C132.901 51.9382 132.219 52.0674 131.542 52.1144ZM130.454 36.6424C129.866 36.6835 129.278 36.7951 128.695 36.9889C124.918 38.2337 122.86 42.3145 124.107 46.0841C125.354 49.8538 129.448 51.9089 133.219 50.6582C136.996 49.4134 139.055 45.3326 137.807 41.5629C136.754 38.3746 133.666 36.4193 130.454 36.6424Z" fill="#171717"/>
<path d="M149.578 48.5265C146.402 48.7497 143.29 45.7023 142.478 41.4394C142.072 39.2903 142.302 37.1472 143.125 35.4033C143.978 33.6007 145.361 32.4381 147.02 32.121C148.684 31.8039 150.396 32.3852 151.849 33.7533C153.255 35.0745 154.249 36.9886 154.661 39.1377C155.514 43.6413 153.473 47.8219 150.12 48.4561C149.943 48.4854 149.761 48.5089 149.578 48.5265ZM147.655 33.1603C147.514 33.172 147.372 33.1896 147.237 33.2131C145.937 33.4597 144.837 34.4051 144.137 35.873C143.413 37.4055 143.213 39.308 143.578 41.228C144.319 45.1268 147.155 47.8865 149.92 47.3581C152.673 46.8355 154.314 43.242 153.579 39.3432C153.214 37.4231 152.332 35.7262 151.096 34.5636C150.031 33.5654 148.825 33.0781 147.655 33.1603Z" fill="#171717"/>
<path d="M138.848 42.197L138.119 41.604C139.001 40.5295 141.195 38.8913 143.219 40.3768L142.666 41.1342C140.86 39.8014 138.93 42.0972 138.848 42.197Z" fill="#171717"/>
<path d="M105.9 50.2643L105 49.9942C105.123 49.5773 106.282 45.884 108.276 45.1618C110.141 44.4924 122.724 43.3181 123.259 43.2653L123.348 44.1989C119.741 44.5335 110.041 45.52 108.6 46.0426C107.276 46.5182 106.2 49.2485 105.9 50.2643Z" fill="#171717"/>
<path d="M116.824 48.01C116.824 48.01 110.553 41.4513 107.494 43.7941C104.435 46.1369 109.935 56.1893 114.077 57.0465C118.218 57.9038 119.089 54.0931 119.089 54.0931L116.824 48.01Z" fill="#FFCEB9"/>
<path d="M109.142 46.6362C109.077 46.6421 109.077 46.7301 109.136 46.7419C112.054 47.4347 113.889 49.7541 115.307 52.2378C114.336 51.3453 113.136 50.9636 111.925 52.138C111.86 52.2026 111.948 52.3024 112.019 52.273C113.107 51.862 113.948 51.9325 114.848 52.7134C115.484 53.2653 115.978 54.0169 116.472 54.6922C116.637 54.9153 117.06 54.7157 116.925 54.4514C116.913 54.4338 116.901 54.4103 116.895 54.3927C116.437 50.8932 112.96 46.4131 109.142 46.6362Z" fill="#263238"/>
<path d="M110.283 69.5828C109.324 68.3908 115.525 64.8795 117.142 66.2124C118.76 67.5394 126.908 88.1961 124.261 110.608C121.613 133.021 78.1345 157.153 76.5344 153.807C75.8638 152.397 76.7226 148.469 77.7815 147.213C79.2757 145.439 110.654 126.004 113.754 112.106C116.513 99.7458 112.736 72.6185 110.283 69.5828Z" fill="#455A64"/>
<path d="M134.75 69.1011C133.444 66.6291 140.168 68.6196 140.903 69.9466C141.644 71.2795 150.627 92.6936 152.18 106.692C152.798 112.299 154.98 127.395 154.98 127.395C154.98 127.395 148.409 107.126 143.003 90.1864C139.544 79.359 135.291 70.1169 134.75 69.1011Z" fill="#455A64"/>
<path d="M215.441 40.6164C214.489 35.8778 217.558 31.2647 222.297 30.3127L245.421 25.6669C250.16 24.7149 254.773 27.7845 255.725 32.5231L266.958 88.4335C267.91 93.1721 264.84 97.7853 260.101 98.7373L236.977 103.383C232.238 104.335 227.625 101.265 226.673 96.5268L215.441 40.6164Z" fill="#32495E"/>
<path d="M217.626 39.5177C217.054 36.6745 218.896 33.9066 221.739 33.3354L247.102 28.24C249.945 27.6688 252.713 29.5106 253.284 32.3538L264.771 89.5319C265.343 92.3751 263.501 95.1429 260.658 95.7141L235.295 100.81C232.452 101.381 229.684 99.539 229.113 96.6958L217.626 39.5177Z" fill="white"/>
<path d="M249.779 48.1744C250.997 54.2365 247.035 60.1452 240.93 61.3718C234.825 62.5984 228.888 58.6783 227.67 52.6162C226.452 46.554 230.414 40.6453 236.519 39.4187C242.625 38.1922 248.561 42.1122 249.779 48.1744Z" fill="#00C170"/>
<path fill-rule="evenodd" clip-rule="evenodd" d="M243.829 44.0935C243.162 43.6897 242.323 43.9257 241.955 44.6206L237.304 53.4051L233.615 50.6986C232.983 50.2349 232.126 50.3912 231.701 51.0476C231.275 51.7041 231.443 52.6122 232.075 53.0759L236.299 56.1756C237.355 56.9504 238.793 56.6177 239.408 55.4566L244.371 46.0829C244.739 45.388 244.496 44.4973 243.829 44.0935Z" fill="white"/>
<path d="M232.964 72.6904C232.807 71.9115 233.312 71.1531 234.091 70.9966L250.256 67.749C251.035 67.5925 251.793 68.0972 251.949 68.8761C252.106 69.6551 251.601 70.4135 250.822 70.57L234.657 73.8175C233.878 73.974 233.12 73.4694 232.964 72.6904Z" fill="#D9D9D9"/>
<path d="M234.272 79.2038C234.115 78.4248 234.62 77.6665 235.399 77.51L251.564 74.2624C252.343 74.1059 253.101 74.6105 253.257 75.3895C253.414 76.1685 252.909 76.9268 252.13 77.0833L235.965 80.3309C235.187 80.4874 234.428 79.9828 234.272 79.2038Z" fill="#D9D9D9"/>
<path d="M235.659 86.1088C235.503 85.3298 236.007 84.5714 236.786 84.4149L252.951 81.1674C253.73 81.0109 254.489 81.5155 254.645 82.2945C254.802 83.0735 254.297 83.8318 253.518 83.9883L237.353 87.2359C236.574 87.3924 235.816 86.8878 235.659 86.1088Z" fill="#D9D9D9"/>
<path d="M202.048 78.7427C202.048 78.7427 208.301 72.3542 211.119 69.1718C213.937 65.9893 220.649 55.9135 224.29 56.1542C228.385 56.4243 225.431 67.0404 220.449 72.7535C220.449 72.7535 227.067 83.2874 222.543 89.0005C221.567 90.2395 214.431 94.1442 212.66 93.786L202.048 78.7427Z" fill="#FFCEB9"/>
<path d="M220.148 73.5167C222.872 77.5271 224.766 83.6219 222.813 88.0433C222.754 88.1725 222.931 88.2723 223.007 88.149C225.742 83.6924 223.619 76.617 220.966 73.182C220.46 72.5185 219.448 72.4774 220.148 73.5167Z" fill="#263238"/>
<defs>
<linearGradient id="paint0_linear_486_346" x1="63.2476" y1="11.4208" x2="63.2476" y2="59.3701" gradientUnits="userSpaceOnUse">
<stop stop-color="#FFCEB9"/>
<stop offset="1" stop-color="#F9B89C"/>
</linearGradient>
<linearGradient id="paint1_linear_486_346" x1="64.6459" y1="0.277649" x2="64.6459" y2="42.1002" gradientUnits="userSpaceOnUse">
<stop stop-color="#FFCEB9"/>
<stop offset="1" stop-color="#F9B89C"/>
</linearGradient>
<linearGradient id="paint2_linear_486_346" x1="76.606" y1="15.0448" x2="76.606" y2="48.6616" gradientUnits="userSpaceOnUse">
<stop stop-color="#FFCEB9"/>
<stop offset="1" stop-color="#F9B89C"/>
</linearGradient>
<linearGradient id="paint3_linear_486_346" x1="131.412" y1="10.573" x2="131.412" y2="65.914" gradientUnits="userSpaceOnUse">
<stop stop-color="#FFB494"/>
<stop offset="1" stop-color="#FFC6AD"/>
</linearGradient>
</defs>
</svg>
