<svg width="276" height="178" viewBox="0 0 276 178" fill="none" xmlns="http://www.w3.org/2000/svg">
<path d="M24.6514 23.2207H248.406V176.602H24.6514V23.2207Z" fill="#ECECEC"/>
<path d="M24.6514 23.2207H248.406V54.9301H24.6514V23.2207Z" fill="#00C17C"/>
<path fill-rule="evenodd" clip-rule="evenodd" d="M38.0695 73.2784C35.6845 73.6295 33.7551 76.0975 31.7605 79.7937L31.457 78.9456L31.7605 79.7937C29.9389 83.1693 27.9119 85.5981 25.3456 85.9439C22.7903 86.2881 19.763 84.5587 15.9406 79.9102C8.56351 70.9388 2.8379 76.2338 0.959815 79.7867C0.755681 80.1728 0.452628 80.1093 0.282928 79.6448C0.113227 79.1803 0.141141 78.4907 0.345275 78.1045C2.51449 74.0009 8.66095 68.5769 16.3937 77.9809C20.1263 82.5202 22.9732 84.0721 25.2888 83.7601C27.5933 83.4496 29.4336 81.2845 31.1535 78.0975L31.4173 78.8347L31.1535 78.0974C33.2185 74.2709 35.3364 71.4887 38.0074 71.0954C40.668 70.7037 43.7971 72.6935 47.8842 77.9954C55.7784 88.2358 63.7535 82.2538 66.7283 78.0183C66.9534 77.6979 67.2499 77.8533 67.3907 78.3654C67.5315 78.8775 67.4633 79.5524 67.2382 79.8728C64.0672 84.3876 55.7031 90.6561 47.4081 79.8958C43.4007 74.6973 40.465 72.9257 38.0695 73.2784Z" fill="#00C17C"/>
<path d="M130.992 90.5284C134.431 114.63 142.904 145.496 150.891 152.246C157.33 157.692 192.54 169.3 194.527 169.685C199.446 170.604 212.189 136.381 207.169 134.529C200.838 132.191 170.128 128.644 168.526 126.698C166.864 124.664 156.938 108.542 145.729 89.9C137.992 77.0147 128.857 75.5755 130.992 90.5284Z" fill="#FFCEB9"/>
<path d="M190.709 167.428C191.277 167.78 199.311 172.705 204.371 174.645C208.148 176.091 219.128 179.969 221.135 175.969C222.507 173.246 216.318 170.205 211.986 167.955C209.703 166.773 207 164.05 207.824 162.59C209.263 160.036 215.128 163.219 218.932 165.874C226.291 171.023 235.919 179.983 240.973 176.456C242.886 175.124 241.034 172.246 238.223 169.341C242.886 172.841 247.926 175.82 250.109 174.422C251.359 173.624 251.514 172.401 250.98 170.949C252.46 171.57 253.811 171.584 254.832 170.678C256.575 169.138 256.001 166.597 254.46 163.915C255.028 163.901 255.555 163.658 255.994 163.084C259.818 158.198 244.102 141.935 238.352 140.05C221.432 134.495 202.946 134.448 202.946 134.448C195.716 139.293 190.695 167.415 190.709 167.428Z" fill="#FFCEB9"/>
<path d="M217.432 153.671C221.446 154.651 225.317 156.509 228.574 159.07C232.709 162.327 235.324 165.949 238.709 169.665C238.797 169.759 238.649 169.901 238.561 169.807C236.946 168.043 230.209 161.347 228.452 159.807C225.229 156.982 221.547 154.881 217.412 153.739C217.364 153.725 217.385 153.658 217.432 153.671Z" fill="#263238"/>
<path d="M221.263 146.617C225.696 148.239 230.236 149.887 234.27 152.387C238.682 155.124 241.966 159.252 245.203 163.239C247.149 165.631 249.041 168.063 250.872 170.543C250.946 170.645 250.804 170.786 250.723 170.685C247.446 166.577 244.047 162.563 240.52 158.658C237.202 154.989 233.412 152.077 228.952 149.928C226.439 148.719 223.837 147.705 221.243 146.698C221.189 146.678 221.216 146.597 221.263 146.617Z" fill="#263238"/>
<path d="M226.648 140.617C230.979 141.894 234.763 142.989 238.466 145.678C243.371 149.239 247.919 154.928 249.506 156.942C251.263 159.165 252.952 161.448 254.601 163.759C254.669 163.854 254.506 163.976 254.439 163.881C250.655 158.82 246.52 153.962 242.114 149.435C240.006 147.273 237.682 145.34 235.006 143.914C232.364 142.502 229.479 141.583 226.641 140.644C226.621 140.644 226.628 140.61 226.648 140.617Z" fill="#263238"/>
<path d="M137.946 131.374L164.642 116.421C164.642 116.421 154.25 97.9475 143.595 84.0351C132.939 70.1227 128.682 78.1228 130.209 93.2177C131.736 108.313 137.946 131.374 137.946 131.374Z" fill="#0E9AE9"/>
<path d="M160.575 112.684C152.967 116.522 145.42 120.61 138.244 125.218C138.136 125.286 138.244 125.462 138.359 125.407C146.035 121.691 153.46 117.38 160.704 112.887C160.819 112.819 160.697 112.623 160.575 112.684Z" fill="#263238"/>
<path opacity="0.1" d="M159.926 119.063L137.946 131.374C137.946 131.374 131.736 108.313 130.209 93.2177C129.236 83.6702 130.588 76.9606 134.412 76.8458L159.926 119.063Z" fill="black"/>
<path d="M64.0841 167.001H163.878C165.133 166.114 153.574 101.904 138.885 79.7424C136.135 75.5915 122.961 69.2605 112.65 76.7702C81.5296 99.4262 62.9162 165.582 64.0841 167.001Z" fill="#29B2FF"/>
<path d="M181.581 122.205C181.581 122.205 187.183 119.232 192.014 117.988C196.845 116.745 207.453 114.819 209.352 114.036L212.555 113.921L191.804 168.672L163.371 174.51L116.087 163.219L132.959 111.137L136.216 110.975C136.216 110.975 142.222 112.617 147.189 113.542C152.155 114.468 169.318 115.225 181.581 122.205Z" fill="white"/>
<path d="M159.162 175.895L177.723 123.137L130.925 110.59L113.344 164.442L159.162 175.895Z" fill="#455A64"/>
<path d="M159.162 175.895L165.98 176.266L184.615 123.515L177.723 123.137L159.162 175.895Z" fill="#37474F"/>
<path d="M165.98 176.266L184.616 123.515L213.941 113.441L192.569 169.192L165.98 176.266Z" fill="#455A64"/>
<path d="M109.133 79.8188C85.1322 107.042 54.679 157.746 59.9426 167.787C66.6117 180.51 112.721 178.152 123.484 175.652C128.072 174.584 112.207 134.813 107.274 135.854C102.977 136.759 99.2744 137.664 99.119 137.07C98.9635 136.455 111.795 117.522 119.606 90.2244C124.937 71.6092 114.221 74.0485 109.133 79.8188Z" fill="#FABFA5"/>
<path d="M85.6748 154.786C85.6748 154.786 87.4654 152.955 95.3304 141.739C100.77 133.982 118.973 118.57 144.838 124.86C154.75 127.272 157.385 135.279 146.642 134.604C139.074 134.131 133.878 133.151 131.365 133.685C131.365 133.685 139.973 141.469 139.182 148.144C138.831 151.131 137.676 159.253 135.878 165.442C135.878 165.442 134.426 165.415 132.588 165.111C132.588 165.111 131.317 173.483 122.128 175.942L85.6748 154.786Z" fill="#FABFA5"/>
<path d="M101.701 135.171C106.519 133.982 116.783 131.637 125.837 132.637C135.898 133.745 154.986 138.604 154.087 146.023C153.432 151.462 145.979 150.253 145.979 150.253C145.979 150.253 153.445 153.921 151.776 158.705C150.256 163.064 144.546 161.78 144.546 161.78C144.546 161.78 148.695 164.787 146.418 168.699C143.682 173.408 135.445 166.341 128.546 168.719C127.006 169.253 101.701 135.171 101.701 135.171Z" fill="#FABFA5"/>
<path d="M122.891 143.07C127.607 142.698 138.54 144.597 145.898 150.05C146.067 150.171 146.06 150.367 145.884 150.286C136.499 146.002 126.972 143.84 122.877 143.165C122.83 143.158 122.843 143.077 122.891 143.07Z" fill="#263238"/>
<path d="M122.067 153.259C126.169 153.354 137.345 155.82 144.622 161.597C144.784 161.726 144.771 161.922 144.595 161.834C134.973 156.955 126.101 154.273 122.054 153.354C122 153.347 122.013 153.259 122.067 153.259Z" fill="#263238"/>
<path d="M78.4901 149.57C81.3821 145.827 90.1322 139.009 99.1188 137.218C99.3215 137.178 99.4634 137.313 99.2878 137.387C89.8079 141.462 81.8077 147.063 78.5509 149.644C78.5104 149.671 78.4563 149.611 78.4901 149.57Z" fill="#263238"/>
<path d="M80.7949 113.394L109.39 124.279C109.39 124.279 116.89 104.454 120.728 87.3527C124.566 70.2511 115.694 72.116 105.099 82.9743C94.4979 93.8326 80.7949 113.394 80.7949 113.394Z" fill="#0E9AE9"/>
<path d="M118.247 102.137C118.274 102.062 118.173 102.008 118.139 102.083C117.639 103.015 117.153 103.948 116.659 104.88C117.173 102.988 117.653 101.083 118.092 99.157C118.105 99.0962 118.011 99.0624 117.984 99.1232C116.531 103.252 115.105 107.387 113.72 111.542C112.335 115.698 110.761 119.792 109.416 123.961C108.592 123.793 108.153 123.664 107.538 123.556C107.396 123.536 107.308 123.691 107.436 123.759C108.213 124.151 109.734 124.752 109.781 124.651C111.592 120.664 113.065 116.191 114.477 112.049C115.173 110.009 115.801 107.954 116.382 105.887C117.058 104.664 117.707 103.434 118.247 102.137Z" fill="#263238"/>
<path d="M109.646 118.759C101.822 115.387 93.8419 112.218 85.6998 109.671C85.5782 109.63 85.5107 109.833 85.6255 109.88C93.3959 113.387 101.47 116.313 109.565 118.988C109.7 119.036 109.775 118.813 109.646 118.759Z" fill="#263238"/>
<path d="M117.905 78.2715C117.919 79.9201 123.108 91.792 130.351 93.069C132.71 93.4812 135.541 80.7039 135.541 80.7039L135.966 79.8053L141.899 67.2645L126.682 51.9872C126.689 51.9872 117.912 77.5688 117.905 78.2715Z" fill="#F0A180"/>
<path d="M141.899 67.2713L135.967 79.8053L135.548 80.7107C135.548 80.7107 135.034 83.0216 134.264 85.65C124.825 81.9945 122 73.6498 121.196 68.1429C123.683 60.7442 126.69 51.994 126.69 51.994L141.899 67.2713Z" fill="#F0A180"/>
<path d="M166.102 47.4737C162.973 77.035 144.912 78.5012 138.54 77.8188C132.757 77.1972 113.128 74.3593 113.189 44.6291C113.249 14.8988 127.979 7.01356 141.29 7.72979C154.595 8.43926 169.23 17.9056 166.102 47.4737Z" fill="#FFB99C"/>
<path d="M158.561 51.913C161.824 52.4062 160.595 58.8928 157.574 58.4334C154.601 57.9807 155.824 51.4941 158.561 51.913Z" fill="#263238"/>
<path d="M143.479 49.7373C140.243 49.1224 139.243 55.6428 142.243 56.2171C145.202 56.7779 146.195 50.2508 143.479 49.7373Z" fill="#263238"/>
<path d="M161.42 48.1967C160.751 47.994 160.163 47.6967 159.514 47.4264C158.784 47.1224 158.176 46.9602 157.723 46.271C157.48 45.9061 157.615 45.271 157.953 45.0007C158.73 44.3723 159.717 44.521 160.609 44.8453C161.575 45.2034 162.23 45.7237 162.751 46.6088C163.251 47.4737 162.305 48.4602 161.42 48.1967Z" fill="#263238"/>
<path d="M141.364 45.6155C142.067 45.6561 142.716 45.5818 143.419 45.548C144.209 45.5142 144.838 45.5682 145.5 45.0817C145.858 44.8182 145.946 44.1763 145.723 43.8115C145.209 42.9533 144.236 42.7574 143.283 42.7574C142.256 42.7574 141.459 43.0277 140.662 43.6763C139.891 44.3115 140.439 45.5615 141.364 45.6155Z" fill="#263238"/>
<path d="M141.121 67.5618C141.479 68.1362 141.796 68.8862 142.499 69.1159C143.168 69.3389 144.046 69.224 144.736 69.1294C144.803 69.1227 144.85 69.2038 144.796 69.2511C144.1 69.8862 142.918 70.0957 142.04 69.7173C141.188 69.3457 140.931 68.4673 140.911 67.6024C140.911 67.4808 141.067 67.474 141.121 67.5618Z" fill="#263238"/>
<path d="M150.756 61.8658C150.756 61.8658 150.628 64.9132 150.371 66.3186C150.344 66.447 149.993 66.4537 149.513 66.3929C149.486 66.3929 149.472 66.3997 149.459 66.3862C146.911 66.3253 144.574 65.0145 143.432 62.7239C143.357 62.5685 143.567 62.4537 143.675 62.5685C145.276 64.2645 147.256 64.9807 149.452 65.4199C149.621 65.0483 149.513 60.136 149.722 60.2171C150.628 60.5415 152.195 61.2577 152.776 61.5144C152.905 59.5347 152.993 53.8995 153.229 50.298C153.243 50.0751 153.594 50.0616 153.614 50.271C154.04 55.8116 154.175 58.7036 153.999 62.9739C153.986 63.2983 151.27 62.2104 150.756 61.8658Z" fill="#263238"/>
<path d="M109.621 46.1088C117.912 49.1832 125.284 40.3857 125.675 31.6896C125.675 31.6896 147.297 41.2641 153.669 23.5206C153.669 23.5206 155.791 32.6559 165.919 35.9127L166.487 43.3047C168.987 43.3115 173.365 37.4735 169.23 30.6761C169.23 30.6761 171.48 21.5611 166.426 14.2096C161.372 6.8649 153.737 8.47979 153.737 8.47979C153.737 8.47979 149.75 2.52699 141.149 1.1621C132.547 -0.202787 126.925 6.35138 126.925 6.35138C126.925 6.35138 115.155 5.21622 110.939 12.5745C106.722 19.9327 109.256 26.4396 109.256 26.4396C109.256 26.4396 105.547 28.7301 104.993 35.8992C104.628 40.5276 107.128 45.1899 109.621 46.1088Z" fill="#263238"/>
<path d="M153.636 21.7705C153.352 23.2908 152.98 24.7841 152.392 26.1963C151.879 27.6355 151.156 28.9733 150.325 30.2234C148.615 32.6896 146.115 34.5477 143.216 35.1829C140.331 36.0275 137.264 35.3924 134.311 34.8383C132.865 34.3653 131.378 33.9937 129.946 33.4396C128.527 32.8653 127.115 32.2504 125.662 31.6963C127 32.4666 128.372 33.1829 129.737 33.9329C131.142 34.595 132.628 35.068 134.081 35.6491C137.088 36.3991 140.297 37.0681 143.46 36.2437C146.588 35.4802 149.365 33.4058 151.007 30.6896C152.663 27.9598 153.514 24.8584 153.636 21.7705Z" fill="#263238"/>
<path d="M126.918 6.35812C124.087 5.55406 121.073 5.32432 118.1 5.72973C115.134 6.11488 112.181 7.43247 110.1 9.73656C109.107 10.9258 108.35 12.2569 107.796 13.6555C107.202 15.0407 106.837 16.5407 106.742 18.0475C106.526 21.0611 107.404 24.149 109.256 26.4531C107.789 23.9125 107.208 20.9394 107.573 18.1286C107.945 15.3515 109.094 12.5407 110.918 10.4528C111.83 9.39196 112.958 8.54735 114.208 7.89193C115.479 7.28381 116.837 6.82435 118.242 6.55407C121.053 5.99325 124.006 5.99325 126.918 6.35812Z" fill="#263238"/>
<path d="M153.729 8.48653C156.101 8.35139 158.48 8.54059 160.716 9.14195C162.946 9.75007 165.034 10.8177 166.649 12.4123C168.27 14.0001 169.351 16.0745 170.014 18.2975C170.655 20.5273 170.919 22.8922 170.885 25.2706C171.372 22.926 171.318 20.4732 170.824 18.0948C170.324 15.7164 169.182 13.4123 167.405 11.642C165.615 9.91223 163.297 8.77708 160.899 8.33788C158.513 7.87166 156.047 7.90544 153.729 8.48653Z" fill="#263238"/>
<path d="M162.176 35.6087C159.939 33.96 157.939 32.1289 156.426 29.9329C155.635 28.8585 155.068 27.6558 154.595 26.4126C154.088 25.1625 153.932 23.8247 153.703 22.4395C153.473 23.8044 153.426 25.2571 153.791 26.649C154.101 28.041 154.703 29.3856 155.527 30.5478C156.358 31.7167 157.345 32.764 158.48 33.6086C159.615 34.4532 160.845 35.1762 162.176 35.6087Z" fill="#263238"/>
<path d="M131.121 53.413C131.006 53.6495 130.723 53.7509 130.479 53.636C130.243 53.5211 130.142 53.2373 130.256 52.9941C130.371 52.7576 130.655 52.6562 130.898 52.7711C131.135 52.886 131.236 53.1698 131.121 53.413Z" fill="#FFB99C"/>
<path d="M140.371 57.3252C140.256 57.5617 139.973 57.6631 139.729 57.5482C139.493 57.4334 139.392 57.1496 139.506 56.9063C139.621 56.6698 139.905 56.5685 140.148 56.6833C140.385 56.7982 140.486 57.0887 140.371 57.3252Z" fill="#FFB99C"/>
<path d="M135.661 58.9739C135.546 59.2104 135.263 59.3117 135.019 59.1968C134.783 59.082 134.682 58.7982 134.796 58.5549C134.911 58.3184 135.195 58.2171 135.438 58.332C135.675 58.4468 135.776 58.7306 135.661 58.9739Z" fill="#FFB99C"/>
<path d="M133.081 49.9602C132.966 50.1967 132.683 50.2981 132.439 50.1832C132.203 50.0684 132.101 49.7846 132.216 49.5413C132.331 49.3048 132.615 49.2035 132.858 49.3183C133.095 49.4332 133.196 49.717 133.081 49.9602Z" fill="#FFB99C"/>
<path d="M136.182 54.4401C136.067 54.6765 135.783 54.7779 135.54 54.663C135.303 54.5482 135.202 54.2644 135.317 54.0211C135.432 53.7846 135.716 53.6833 135.959 53.7981C136.195 53.913 136.297 54.1968 136.182 54.4401Z" fill="#FFB99C"/>
<path d="M161.426 58.859C161.311 59.0955 161.027 59.1968 160.784 59.082C160.548 58.9671 160.446 58.6833 160.561 58.4401C160.676 58.2036 160.96 58.1022 161.203 58.2171C161.439 58.3387 161.534 58.6225 161.426 58.859Z" fill="#FFB99C"/>
<path d="M156.872 59.6969C156.757 59.9334 156.474 60.0347 156.23 59.9199C155.994 59.805 155.893 59.5212 156.007 59.278C156.122 59.0415 156.406 58.9401 156.649 59.055C156.886 59.1766 156.987 59.4604 156.872 59.6969Z" fill="#FFB99C"/>
<path d="M156.371 62.9604C156.256 63.1969 155.973 63.2983 155.729 63.1834C155.493 63.0685 155.392 62.7848 155.506 62.5415C155.621 62.305 155.905 62.2037 156.148 62.3185C156.385 62.4334 156.486 62.7172 156.371 62.9604Z" fill="#FFB99C"/>
<path d="M160.257 62.3862C160.142 62.6226 159.858 62.724 159.615 62.6091C159.379 62.4943 159.277 62.2105 159.392 61.9672C159.507 61.7307 159.791 61.6294 160.034 61.7443C160.271 61.8659 160.372 62.1497 160.257 62.3862Z" fill="#FFB99C"/>
<path d="M136.006 60.359C131.574 59.0144 128.432 54.7846 128.655 49.9534C128.918 44.2304 133.783 39.7979 139.499 40.0546C145.223 40.3181 149.655 45.1831 149.398 50.8994C149.135 56.6157 144.27 61.055 138.554 60.7982C137.668 60.7577 136.817 60.609 136.006 60.359ZM141.641 41.8182C140.939 41.6019 140.202 41.4736 139.439 41.4398C134.486 41.21 130.27 45.0615 130.04 50.0142C129.817 54.967 133.662 59.1901 138.614 59.4063C143.567 59.6293 147.783 55.7846 148.013 50.8318C148.202 46.6493 145.479 42.9871 141.641 41.8182Z" fill="#455A64"/>
<path d="M158.621 64.197C154.817 63.0415 152.554 58.1023 153.513 52.7711C154 50.0819 155.223 47.6832 156.959 46.0142C158.756 44.2912 160.885 43.548 162.959 43.9196C165.04 44.2912 166.77 45.7304 167.858 47.9737C168.905 50.1427 169.216 52.8184 168.73 55.5076C167.716 61.1429 163.479 65.1091 159.283 64.3591C159.054 64.3118 158.838 64.2578 158.621 64.197ZM163.223 45.4061C163.054 45.352 162.885 45.3115 162.709 45.2845C161.088 44.9939 159.378 45.6088 157.912 47.0142C156.385 48.4805 155.304 50.6089 154.871 53.0143C153.993 57.8928 156.067 62.3726 159.52 62.9875C162.959 63.6091 166.473 60.1361 167.351 55.2576C167.784 52.8522 167.513 50.4805 166.594 48.5751C165.811 46.9399 164.628 45.8318 163.223 45.4061Z" fill="#455A64"/>
<path d="M148.945 52.0346L148.364 51.021C149.871 50.1561 153.155 49.2305 154.851 51.8589L153.871 52.494C152.351 50.1359 149.08 51.9602 148.945 52.0346Z" fill="#455A64"/>
<path d="M106.965 46.7845L106.039 46.075C106.37 45.6426 109.363 41.852 112.012 41.8925C114.485 41.9398 129.661 46.1696 130.31 46.3453L129.992 47.4737C125.641 46.2575 113.904 43.0953 111.992 43.0615C110.242 43.0277 107.769 45.7372 106.965 46.7845Z" fill="#455A64"/>
<path d="M118.512 47.9467C118.512 47.9467 113.917 37.6019 109.343 39.0681C104.769 40.5344 106.992 54.6697 111.492 57.4198C115.992 60.1698 118.62 56.0549 118.62 56.0549L118.512 47.9467Z" fill="#FFB99C"/>
<path d="M110.08 43.102C110.005 43.0817 109.965 43.1898 110.026 43.2236C113.161 45.2642 114.337 48.7643 114.958 52.2846C114.188 50.8319 112.945 49.8724 111.026 50.744C110.924 50.7913 110.985 50.9467 111.08 50.9467C112.532 50.9197 113.492 51.3589 114.215 52.6562C114.728 53.5751 114.992 54.663 115.289 55.6698C115.391 56.0076 115.972 55.9468 115.924 55.5752C115.918 55.5482 115.918 55.5211 115.911 55.4941C116.843 51.1697 114.647 44.4466 110.08 43.102Z" fill="#263238"/>
<path d="M168.411 110.84C168.225 110.873 168.037 110.783 167.944 110.607C167.931 110.575 167.572 109.863 167.024 108.595C166.929 108.372 167.034 108.113 167.251 108.019C167.475 107.925 167.733 108.03 167.827 108.247C168.357 109.491 168.716 110.202 168.724 110.208C168.831 110.422 168.747 110.684 168.534 110.797C168.49 110.819 168.451 110.833 168.411 110.84Z" fill="#231822"/>
<path d="M165.898 104.691C165.692 104.728 165.478 104.608 165.407 104.401C164.917 102.992 164.468 101.548 164.077 100.115C164.014 99.8787 164.15 99.6417 164.38 99.5804C164.616 99.5179 164.853 99.6542 164.914 99.8835C165.302 101.297 165.747 102.721 166.227 104.111C166.309 104.337 166.188 104.585 165.956 104.667C165.945 104.683 165.918 104.687 165.898 104.691ZM163.542 96.0989C163.309 96.1402 163.083 95.9882 163.035 95.7565C162.942 95.3132 162.862 94.8608 162.783 94.415C162.599 93.3772 162.441 92.3347 162.322 91.3195C162.293 91.0776 162.461 90.8625 162.703 90.8333C162.945 90.8041 163.16 90.9717 163.189 91.2136C163.312 92.2143 163.466 93.2369 163.648 94.2615C163.725 94.6939 163.81 95.1384 163.896 95.583C163.945 95.8213 163.787 96.0485 163.555 96.0965C163.548 96.0977 163.548 96.0977 163.542 96.0989ZM162.486 87.2552C162.466 87.2588 162.446 87.2623 162.425 87.2592C162.186 87.2673 161.981 87.0773 161.973 86.8385C161.921 85.3105 161.947 83.7961 162.046 82.3442C162.065 82.1007 162.273 81.9197 162.51 81.9394C162.753 81.9579 162.934 82.1659 162.914 82.4028C162.817 83.8268 162.793 85.3135 162.84 86.8149C162.851 87.0325 162.699 87.2174 162.486 87.2552ZM200.782 75.6779C200.582 75.7134 200.37 75.6001 200.3 75.3998C200.212 75.1752 200.325 74.9218 200.55 74.8339C201.918 74.3095 203.039 73.4722 203.868 72.3437C204.012 72.1466 204.286 72.1048 204.476 72.2495C204.673 72.3929 204.715 72.6668 204.57 72.8572C203.642 74.1202 202.394 75.0554 200.865 75.6426C200.842 75.6673 200.815 75.672 200.782 75.6779ZM196.415 76.2819C196.368 76.2902 196.314 76.293 196.264 76.2813C194.814 76.0379 193.461 75.1457 192.368 73.7065C192.224 73.5125 192.258 73.2389 192.452 73.0946C192.646 72.9504 192.919 72.9841 193.064 73.1781C194.021 74.4355 195.175 75.212 196.406 75.4189C196.646 75.4585 196.803 75.6846 196.763 75.925C196.735 76.1152 196.588 76.2512 196.415 76.2819ZM163.114 78.387C163.061 78.3965 163.013 78.3981 162.956 78.3876C162.721 78.3401 162.565 78.114 162.605 77.8803C162.882 76.3832 163.258 74.9095 163.71 73.5117C163.785 73.2787 164.03 73.1528 164.263 73.2281C164.496 73.3034 164.616 73.5498 164.547 73.7816C164.104 75.1505 163.74 76.5807 163.471 78.0422C163.434 78.2203 163.287 78.3563 163.114 78.387ZM205.919 68.9393C205.873 68.9475 205.825 68.9492 205.776 68.9441C205.537 68.9111 205.374 68.6862 205.407 68.447C205.599 67.1364 205.569 65.7281 205.31 64.2711L205.29 64.158C205.247 63.9185 205.406 63.6913 205.639 63.65C205.878 63.6074 206.106 63.7661 206.147 63.999L206.168 64.1187C206.445 65.6755 206.477 67.1726 206.267 68.5756C206.245 68.7647 206.099 68.9074 205.919 68.9393ZM190.866 69.8832C190.653 69.921 190.438 69.7944 190.373 69.5796C190.18 68.9207 190.016 68.2292 189.889 67.5107C189.752 66.739 189.655 65.9258 189.598 65.0988C189.582 64.8545 189.765 64.6504 190.003 64.6357C190.247 64.6197 190.451 64.8031 190.466 65.0407C190.517 65.8344 190.615 66.6132 190.747 67.3583C190.869 68.0436 191.021 68.7096 191.207 69.3286C191.275 69.5567 191.147 69.8058 190.912 69.8749C190.899 69.8773 190.886 69.8797 190.866 69.8832ZM165.876 69.9428C165.79 69.9581 165.692 69.948 165.609 69.9078C165.391 69.8024 165.303 69.5367 165.41 69.3256C166.068 67.9733 166.838 66.6632 167.689 65.4278C167.826 65.2319 168.097 65.1768 168.293 65.3136C168.489 65.4504 168.544 65.722 168.408 65.9245C167.586 67.1274 166.837 68.3995 166.192 69.715C166.132 69.8356 166.009 69.9191 165.876 69.9428ZM204.409 60.2793C204.223 60.3123 204.027 60.2167 203.941 60.0398C203.308 58.7179 202.514 57.4933 201.581 56.4101C201.424 56.2251 201.445 55.9538 201.629 55.7908C201.814 55.6344 202.085 55.6549 202.248 55.8387C203.227 56.9825 204.066 58.2678 204.731 59.6593C204.838 59.8737 204.741 60.138 204.526 60.2447C204.482 60.2663 204.442 60.2734 204.409 60.2793ZM190.203 61.052C190.164 61.0591 190.122 61.0596 190.08 61.0533C189.842 61.027 189.667 60.8111 189.693 60.5731C189.844 59.1051 190.114 57.6092 190.496 56.1277C190.556 55.8905 190.793 55.7524 191.03 55.8132C191.267 55.874 191.405 56.1103 191.344 56.3476C190.975 57.7856 190.712 59.2392 190.567 60.6649C190.54 60.8618 190.39 61.019 190.203 61.052ZM170.887 62.6089C170.761 62.6313 170.624 62.5939 170.518 62.5028C170.339 62.3425 170.324 62.0639 170.484 61.8844C171.486 60.7662 172.566 59.6961 173.689 58.7144C173.874 58.558 174.144 58.5718 174.307 58.7556C174.463 58.9406 174.449 59.2107 174.266 59.3737C173.166 60.3307 172.116 61.375 171.137 62.4685C171.068 62.5425 170.98 62.5923 170.887 62.6089ZM198.573 53.7325C198.473 53.7502 198.374 53.7335 198.283 53.6812C197.062 52.992 195.699 52.5066 194.245 52.2365C194.011 52.1957 193.846 51.9641 193.894 51.7292C193.933 51.4889 194.166 51.3309 194.401 51.3784C195.955 51.6652 197.406 52.183 198.717 52.9178C198.93 53.0378 198.998 53.307 198.884 53.5126C198.81 53.6356 198.693 53.7113 198.573 53.7325ZM177.583 56.7601C177.416 56.7897 177.24 56.7249 177.144 56.5704C177.012 56.3674 177.06 56.098 177.263 55.9659C178.532 55.1093 179.852 54.3532 181.172 53.7071C181.386 53.6004 181.649 53.691 181.757 53.912C181.864 54.1264 181.773 54.3895 181.552 54.4974C180.264 55.1243 178.987 55.8588 177.75 56.6962C177.7 56.7256 177.643 56.7495 177.583 56.7601ZM192.387 52.4428C192.307 52.457 192.224 52.4512 192.149 52.4165C191.927 52.3255 191.82 52.0701 191.911 51.848C192.47 50.4724 193.126 49.1068 193.873 47.7869C193.993 47.5735 194.254 47.4996 194.468 47.6195C194.681 47.7395 194.755 48.0009 194.635 48.2143C193.91 49.5028 193.269 50.8383 192.724 52.1771C192.66 52.3189 192.534 52.4169 192.387 52.4428ZM185.586 52.9027C185.373 52.9405 185.158 52.8139 185.093 52.5991C185.023 52.3643 185.152 52.1219 185.387 52.0528C186.893 51.6069 188.398 51.3121 189.844 51.1856C190.087 51.1631 190.298 51.3452 190.32 51.5816C190.342 51.8247 190.167 52.0343 189.924 52.0568C188.545 52.1781 187.092 52.4568 185.646 52.8921C185.619 52.8968 185.599 52.9003 185.586 52.9027ZM196.747 44.6893C196.634 44.7094 196.506 44.6841 196.41 44.6051C196.22 44.4605 196.178 44.1865 196.322 43.9962C197.205 42.8237 198.217 41.6832 199.317 40.6095C199.493 40.441 199.768 40.447 199.936 40.6163C200.104 40.7922 200.098 41.0678 199.929 41.2351C198.858 42.2763 197.881 43.3831 197.026 44.5164C196.947 44.6127 196.847 44.6716 196.747 44.6893ZM203.089 38.471C202.929 38.4994 202.761 38.4401 202.661 38.3001C202.516 38.1061 202.557 37.8313 202.751 37.687C203.915 36.8215 205.179 35.9794 206.509 35.201C206.715 35.0822 206.987 35.1504 207.106 35.3557C207.226 35.5677 207.157 35.834 206.952 35.9528C205.653 36.7186 204.412 37.5361 203.273 38.3836C203.22 38.4341 203.156 38.4592 203.089 38.471ZM210.753 33.9396C210.56 33.9738 210.364 33.8781 210.284 33.6935C210.182 33.4713 210.274 33.2148 210.496 33.1136C211.814 32.4953 213.205 31.9051 214.634 31.37C214.858 31.2821 215.113 31.4016 215.194 31.6273C215.282 31.8519 215.162 32.1065 214.937 32.1877C213.528 32.7192 212.156 33.2992 210.863 33.9062C210.825 33.9199 210.793 33.9325 210.753 33.9396ZM219.085 30.7785C218.872 30.8163 218.658 30.6897 218.592 30.4749C218.524 30.2467 218.652 29.9977 218.886 29.9285C220.3 29.5058 221.762 29.116 223.224 28.7738C223.455 28.7192 223.694 28.8688 223.749 29.0993C223.805 29.3365 223.654 29.5691 223.423 29.6238C221.979 29.9557 220.538 30.342 219.137 30.7624C219.119 30.7726 219.099 30.7761 219.085 30.7785Z" fill="#231822"/>
<path d="M229.963 28.4625C229.95 28.4648 229.943 28.466 229.93 28.4684C229.923 28.4696 229.127 28.5491 227.793 28.7654C227.553 28.8013 227.332 28.6415 227.289 28.402C227.255 28.1679 227.407 27.9419 227.646 27.8994L227.653 27.8982C229.014 27.6772 229.809 27.5976 229.843 27.5917C230.086 27.5691 230.295 27.7447 230.323 27.9799C230.345 28.2163 230.182 28.4235 229.963 28.4625Z" fill="#231822"/>
<path d="M227.047 35.8735L230.479 30.1596C230.479 30.1596 251.477 24.0306 251.747 23.8365C252.015 23.6305 262.04 16.1487 262.04 16.1487L248.068 17.8016L226.043 25.0754L227.047 35.8735Z" fill="#007AFF"/>
<path d="M218.963 14.9175L262.053 16.1584L226.054 25.0733L218.963 14.9175Z" fill="#1BADFF"/>
<path d="M230.492 30.1692L237.957 40.9894L262.054 16.1583L230.492 30.1692Z" fill="#1BADFF"/>
<path d="M76.9988 59.4877L69.6068 58.0552C66.1 60.2174 61.9648 61.4674 57.5391 61.4674C44.8159 61.4674 34.5049 51.1497 34.5049 38.4265C34.5049 25.7033 44.8226 15.3923 57.5458 15.3923C70.269 15.3923 80.58 25.7101 80.58 38.4333C80.58 43.7442 78.7759 48.6361 75.7556 52.5348L75.7691 52.5281L76.9988 59.4877Z" fill="#FAFAFA"/>
<path d="M77.0018 59.4876C77.0018 59.4876 76.9815 59.3457 76.9342 59.0484C76.8801 58.7376 76.8126 58.2984 76.718 57.7241C76.5153 56.5281 76.2247 54.7781 75.8396 52.5078C75.8328 52.4672 75.7923 52.4402 75.7585 52.447C75.745 52.447 75.7315 52.4537 75.7247 52.4605L75.7112 52.4672L75.8126 52.5686C77.6166 50.251 79.6099 46.7847 80.3802 42.2103C80.5762 41.0751 80.6843 39.8724 80.6978 38.6292C80.6505 37.3859 80.6437 36.0953 80.4005 34.7845C79.9951 32.1561 79.0964 29.4263 77.6099 26.8452C76.1301 24.2708 74.0558 21.8518 71.4611 19.8924C68.8733 17.9396 65.7516 16.4531 62.3394 15.7166C58.9339 14.9936 55.2446 15.0612 51.6905 15.9801C49.8932 16.3991 48.1837 17.1558 46.5013 17.9937C44.8864 18.9464 43.2715 19.9734 41.8931 21.3045C40.4674 22.5546 39.2917 24.0411 38.2241 25.5546L37.5011 26.7438L37.143 27.3384L36.8457 27.9736C36.643 28.3857 36.447 28.8047 36.2511 29.2168C36.0619 29.629 35.9268 30.0682 35.7646 30.4939C34.5213 33.9129 34.0956 37.5413 34.4943 40.967C34.8794 44.3995 36.0281 47.6225 37.6971 50.3726C39.366 53.1294 41.535 55.42 43.9269 57.1565C46.3188 58.893 48.9202 60.0755 51.4743 60.7647C52.7446 61.143 54.0217 61.2985 55.2514 61.4741C56.4879 61.5282 57.6839 61.6295 58.8325 61.5417C63.4542 61.2782 67.1367 59.6903 69.6571 58.116L69.603 58.1227C72.0152 58.5687 73.8733 58.9133 75.1369 59.1498C75.745 59.2579 76.2112 59.3457 76.5423 59.4065C76.8531 59.4673 77.0018 59.4876 77.0018 59.4876C77.0018 59.4876 76.8329 59.4471 76.5085 59.3795C76.1774 59.3119 75.7045 59.2106 75.0896 59.089C73.8396 58.8322 72.0084 58.4673 69.6233 57.9808C69.603 57.9741 69.5827 57.9808 69.5692 57.9876C67.0489 59.5282 63.3867 61.0687 58.8123 61.3052C57.6704 61.3863 56.4879 61.2782 55.2649 61.2174C54.0487 61.0417 52.7919 60.8795 51.5351 60.5011C49.0148 59.8119 46.4472 58.6362 44.0958 56.9132C41.7444 55.197 39.6025 52.9334 37.9673 50.2037C36.3254 47.4874 35.197 44.3049 34.8254 40.9265C34.4402 37.5481 34.8592 33.9737 36.0889 30.6087C36.2511 30.1898 36.3795 29.7574 36.5687 29.352L37.1565 28.129L37.4538 27.5141L37.8052 26.933L38.5146 25.7641C39.5687 24.2708 40.7241 22.8113 42.1296 21.5748C43.4877 20.264 45.0756 19.2437 46.6702 18.3112C48.3256 17.4869 50.0081 16.7369 51.7784 16.3247C55.2852 15.4193 58.9136 15.345 62.2718 16.0545C65.63 16.7707 68.7111 18.2302 71.2652 20.1559C73.8328 22.0748 75.8801 24.46 77.3531 27.0006C78.8329 29.5412 79.7248 32.2372 80.137 34.8318C80.387 36.1291 80.4005 37.4062 80.4545 38.6359C80.4478 39.8657 80.3464 41.0549 80.1572 42.1833C79.414 46.7171 77.468 50.1699 75.6977 52.4875C75.6707 52.5213 75.6774 52.5686 75.7112 52.5888C75.7382 52.6091 75.7788 52.6091 75.799 52.5888L75.8058 52.5821L75.6909 52.5348C76.1099 54.7781 76.4274 56.5011 76.6504 57.6835C76.7585 58.2646 76.8464 58.7106 76.9072 59.0214C76.968 59.3254 77.0018 59.4876 77.0018 59.4876Z" fill="#ED1E1E"/>
<path d="M64.0322 38.4196C64.0322 39.7102 65.0795 40.7575 66.3701 40.7575C67.6607 40.7575 68.708 39.7102 68.708 38.4196C68.708 37.129 67.6607 36.0817 66.3701 36.0817C65.0795 36.0817 64.0322 37.129 64.0322 38.4196Z" fill="#ED1E1E"/>
<path d="M54.667 38.4196C54.667 39.7102 55.7143 40.7575 57.0049 40.7575C58.2954 40.7575 59.3427 39.7102 59.3427 38.4196C59.3427 37.129 58.2954 36.0817 57.0049 36.0817C55.7143 36.0817 54.667 37.129 54.667 38.4196Z" fill="#ED1E1E"/>
<path d="M45.3288 37.2505C44.6801 38.3722 45.0653 39.7978 46.1869 40.4465C47.3086 41.0952 48.7342 40.71 49.3829 39.5884C50.0316 38.4667 49.6464 37.0343 48.5248 36.3924C47.4099 35.7437 45.9774 36.1289 45.3288 37.2505Z" fill="#ED1E1E"/>
</svg>
