<svg width="39" height="39" viewBox="0 0 39 39" fill="none" xmlns="http://www.w3.org/2000/svg">
<path fill-rule="evenodd" clip-rule="evenodd" d="M31.1311 10.6709C29.6868 11.1886 28.6055 12.1725 27.9316 13.5651C25.25 19.1016 22.5757 24.6418 19.9189 30.1895C19.0828 31.9381 18.9911 33.7631 19.5658 35.6182C19.6253 35.8112 19.6847 36.003 19.7603 36.2449C19.6978 36.2479 19.6383 36.2516 19.5805 36.2552C19.4688 36.2622 19.364 36.2687 19.2587 36.2687C14.5939 36.27 9.92795 36.2713 5.26322 36.2687C2.47875 36.2675 0.571241 34.346 0.571241 31.5357C0.570003 21.6874 0.570003 14.9727 0.571241 5.1244C0.571241 2.30164 2.46637 0.373845 5.24464 0.372591C13.0147 0.371338 20.7847 0.370084 28.5547 0.373845C31.3032 0.373845 33.2021 2.30666 33.2058 5.09933C33.2082 6.80117 33.208 7.17112 33.2076 7.94547C33.2073 8.35911 33.207 8.88815 33.207 9.79724V10.1883C32.9741 10.2408 32.7451 10.2853 32.5203 10.329C32.0362 10.4231 31.5718 10.5134 31.1311 10.6709ZM22.686 15.2522C23.4205 15.251 23.963 14.9088 24.1996 14.3084C24.6034 13.2856 23.8577 12.2527 22.7021 12.254C19.2027 12.2513 15.704 12.2518 12.2055 12.2523C10.8063 12.2525 9.40719 12.2527 8.00806 12.2527C7.85338 12.2527 7.6987 12.2516 7.54406 12.2504C7.1885 12.2478 6.83311 12.2451 6.47833 12.2565C5.62738 12.2828 4.99196 12.9735 5.02416 13.8145C5.05513 14.6431 5.71161 15.251 6.6022 15.2522C8.52209 15.2549 10.4426 15.2544 12.3629 15.2539C13.131 15.2537 13.899 15.2535 14.667 15.2535C15.3353 15.2535 16.0035 15.2536 16.6717 15.2536C18.6765 15.2539 20.6812 15.2541 22.686 15.2522ZM6.70221 6.24744C6.53195 6.24716 6.35861 6.24687 6.19468 6.28258C5.4453 6.44428 4.94613 7.15122 5.02912 7.91081C5.10963 8.66162 5.73391 9.24072 6.51921 9.24448C8.29778 9.25091 10.077 9.24993 11.856 9.24895C12.5028 9.24859 13.1495 9.24824 13.7962 9.24824C14.6615 9.24824 15.5268 9.24808 16.3921 9.24792C18.9876 9.24745 21.5831 9.24698 24.1785 9.25074C24.866 9.252 25.3813 8.97248 25.6637 8.33698C26.1108 7.32921 25.3664 6.25125 24.2219 6.24874C22.125 6.24337 20.0282 6.24439 17.9313 6.24542C17.0926 6.24583 16.2539 6.24623 15.4151 6.24623C14.6927 6.24623 13.9704 6.24616 13.2481 6.24608C11.0811 6.24584 8.91446 6.24561 6.74712 6.24749C6.73218 6.24749 6.7172 6.24746 6.70221 6.24744ZM13.1331 27.2632C14.3359 27.2637 15.5385 27.2642 16.7417 27.2615C17.6918 27.2602 18.3606 26.6461 18.3705 25.7787C18.3817 24.8925 17.7054 24.262 16.7318 24.2607C13.3788 24.2582 10.027 24.2582 6.67404 24.2607C5.69055 24.2607 5.02045 24.8749 5.02293 25.7649C5.0254 26.6486 5.70046 27.2602 6.68395 27.2615C7.93529 27.2634 9.18662 27.2631 10.438 27.2629C10.8551 27.2628 11.2722 27.2627 11.6893 27.2627C12.1706 27.2627 12.6519 27.263 13.1331 27.2632ZM11.2118 21.2588C11.8746 21.2582 12.5375 21.2575 13.2004 21.2575C13.854 21.2575 14.5074 21.2578 15.1608 21.2582C16.6858 21.259 18.2107 21.2597 19.7368 21.2562C20.6744 21.255 21.3433 20.617 21.3383 19.7471C21.3334 18.8797 20.6645 18.2593 19.7182 18.2567C18.7245 18.2541 17.7315 18.2546 16.7382 18.2551C16.341 18.2553 15.9438 18.2555 15.5464 18.2555C14.7371 18.2555 13.9278 18.2558 13.1185 18.2561C10.9612 18.2568 8.80402 18.2575 6.64679 18.253C5.98287 18.2505 5.47008 18.4974 5.1728 19.1091C4.67858 20.1256 5.40814 21.25 6.57247 21.255C8.11923 21.262 9.66537 21.2604 11.2118 21.2588ZM36.894 14.7492C36.9705 14.7881 37.0469 14.827 37.1233 14.8659C38.7125 15.6756 39.291 17.3565 38.5094 18.9847C36.5592 23.0482 34.6013 27.1082 32.6436 31.1679C31.9902 32.523 31.3368 33.878 30.6836 35.2331C30.1139 36.4151 29.2183 37.2248 27.9859 37.6497C27.7211 37.7411 27.4564 37.8331 27.1917 37.9251C26.5958 38.1321 25.9998 38.3392 25.4021 38.5397C24.4297 38.8656 23.6965 38.5033 23.3521 37.5257C23.2298 37.1781 23.1129 36.8284 22.9961 36.4789C22.8362 36.0003 22.6763 35.5219 22.5024 35.0488C22.0107 33.7102 22.1184 32.4279 22.739 31.1519C24.2589 28.023 25.769 24.8895 27.2793 21.7557C27.8516 20.5684 28.4238 19.381 28.9966 18.1938C29.159 17.8568 29.3205 17.5194 29.482 17.182C29.8318 16.4512 30.1815 15.7204 30.54 14.995C31.0862 13.8882 31.9916 13.3342 33.4198 13.2539C33.4918 13.2759 33.5796 13.2989 33.6779 13.3246C33.938 13.3926 34.2719 13.4799 34.5829 13.6199C35.3644 13.9709 36.1295 14.3602 36.894 14.7492Z" fill="#C6CCD2"/>
</svg>
