<svg width="34" height="34" viewBox="0 0 34 34" fill="none" xmlns="http://www.w3.org/2000/svg">
<circle cx="17" cy="17" r="17" fill="white"/>
<path d="M16.9954 28C12.7732 27.8564 9.49139 26.0332 7.16275 22.4569C7.06722 22.3304 7.01106 22.178 7.00147 22.0189C6.99189 21.8599 7.02932 21.7016 7.10895 21.5643C8.25514 19.2853 10.068 17.9286 12.5475 17.4941C12.9124 17.4301 13.2036 17.5678 13.4948 17.7648C15.2913 18.9791 17.2118 19.1892 19.2328 18.4473C19.6008 18.3311 19.9471 18.1534 20.2574 17.9215C20.8317 17.4396 21.4363 17.4348 22.0995 17.6176C24.2948 18.2241 25.9077 19.55 26.9217 21.6236C26.9805 21.7322 27.0071 21.8557 26.9984 21.9793C26.9897 22.1029 26.946 22.2214 26.8726 22.3204C24.5615 25.975 21.2574 27.8433 16.9954 28Z" fill="#7F7F7F"/>
<path d="M22.2381 11.2831C22.2337 12.3234 21.9224 13.339 21.3434 14.2016C20.7644 15.0642 19.9438 15.735 18.9853 16.1292C18.0268 16.5235 16.9734 16.6235 15.9583 16.4167C14.9432 16.2098 14.012 15.7053 13.2824 14.967C12.5527 14.2287 12.0573 13.2897 11.8589 12.2687C11.6605 11.2477 11.7679 10.1905 12.1676 9.23078C12.5673 8.27108 13.2413 7.45195 14.1044 6.8769C14.9676 6.30184 15.9811 5.99669 17.0169 6.00003C18.4061 6.00731 19.7359 6.56752 20.7146 7.55784C21.6933 8.54816 22.2412 9.88779 22.2381 11.2831V11.2831Z" fill="#7F7F7F"/>
</svg>
