<svg width="33" height="41" viewBox="0 0 33 41" fill="none" xmlns="http://www.w3.org/2000/svg">
<path d="M31.4106 14.0556C31.3454 13.9524 31.2866 13.842 31.2134 13.7436C28.7447 10.4646 24.3371 9.20632 20.1703 10.9547C17.729 11.9784 15.5486 12.1533 13.1653 10.9587C11.5743 10.1615 9.82703 10.1059 8.07013 10.5766C3.90736 11.6922 0.883919 15.4065 0.495018 20.0768C-0.0911513 27.1113 2.35257 33.1108 6.97429 38.2849C8.82378 40.3557 10.5678 40.695 13.1621 39.5303C15.8329 38.3309 18.3925 38.2817 21.0842 39.4787C23.8098 40.691 25.8589 40.2541 27.7133 37.9061C29.2189 35.9989 30.4227 33.8492 31.7005 31.7703C32.0773 31.1577 32.2512 30.4202 32.5153 29.7487C26.0159 26.6962 25.3017 18.1544 31.4106 14.0556Z" fill="black"/>
<path d="M24.2253 0.600191C20.0207 0.536513 15.5922 5.71222 16.494 9.57728C20.606 10.0045 24.7769 5.20844 24.2253 0.600191Z" fill="black"/>
</svg>
