<svg width="33" height="41" viewBox="0 0 33 41" fill="none" xmlns="http://www.w3.org/2000/svg">
<path d="M31.4106 14.0557C31.3454 13.9525 31.2866 13.8421 31.2134 13.7437C28.7447 10.4647 24.3371 9.20643 20.1703 10.9548C17.729 11.9785 15.5486 12.1534 13.1653 10.9588C11.5743 10.1616 9.82703 10.106 8.07013 10.5767C3.90736 11.6923 0.883919 15.4066 0.495018 20.077C-0.0911513 27.1114 2.35257 33.1109 6.97429 38.285C8.82378 40.3558 10.5678 40.6951 13.1621 39.5304C15.8329 38.331 18.3925 38.2818 21.0842 39.4788C23.8098 40.6911 25.8589 40.2542 27.7133 37.9062C29.2189 35.999 30.4227 33.8493 31.7005 31.7705C32.0773 31.1579 32.2512 30.4203 32.5153 29.7489C26.0159 26.6963 25.3017 18.1545 31.4106 14.0557Z" fill="white"/>
<path d="M24.2251 0.600191C20.0205 0.536513 15.592 5.71222 16.4938 9.57728C20.6059 10.0045 24.7767 5.20844 24.2251 0.600191Z" fill="white"/>
</svg>
