<svg width="35" height="38" viewBox="0 0 35 38" fill="none" xmlns="http://www.w3.org/2000/svg">
<path fillRule="evenodd" clipRule="evenodd" d="M21.9463 17.8931L27.6116 12.2288C27.5817 12.2068 27.5531 12.1844 27.525 12.1624L27.525 12.1624C27.4664 12.1164 27.4098 12.0721 27.3473 12.0359C25.8076 11.1451 24.2681 10.254 22.7286 9.36289L22.7209 9.35842L22.7147 9.35486C17.6101 6.40012 12.5053 3.44533 7.39386 0.50296C6.4291 -0.0514774 5.38165 -0.0903852 4.69092 0.11226L11.4862 7.11434C14.97 10.7042 18.4656 14.3061 21.9463 17.8931ZM20.4465 19.088L2.50039 1.14502C1.33133 2.13393 0.83355 3.39357 0.838414 4.91098C0.847783 9.45617 0.846156 14.0014 0.84453 18.5466C0.843904 20.2947 0.843279 22.0429 0.843279 23.791V33.1516C0.843279 34.7517 1.40916 36.0664 2.60092 36.9305L8.60104 30.9318C12.5736 26.9602 16.5209 23.0141 20.4465 19.088ZM27.4121 26.0784C27.3747 26.1032 27.3333 26.1319 27.2887 26.1629C27.1848 26.235 27.0637 26.3191 26.9354 26.3929C22.4128 28.9902 17.8893 31.5857 13.3655 34.1814L13.3486 34.1912L8.06347 37.2239C7.0144 37.8269 5.90047 38.075 4.89355 37.981C8.26375 34.5126 11.6467 31.0299 15.0299 27.5468C17.3143 25.1949 19.5989 22.8429 21.8798 20.4951C23.8109 22.4421 25.6026 24.2497 27.4121 26.0784ZM30.3067 13.8253C29.9443 13.6133 29.5872 13.4043 29.2411 13.1951L28.9819 13.4546C27.0147 15.4246 25.126 17.3159 23.2061 19.2355C23.2205 19.2513 23.2387 19.2721 23.2597 19.2962C23.314 19.3583 23.3876 19.4425 23.4671 19.5208C23.6963 19.7439 23.9254 19.9671 24.1544 20.1903C25.7163 21.7118 27.2777 23.2328 28.86 24.7329C28.9833 24.8496 29.3578 24.8366 29.5378 24.741C30.5317 24.2109 31.5078 23.6451 32.4807 23.0728C35.5031 21.296 35.649 17.2982 32.7385 15.322C31.9434 14.7831 31.112 14.2966 30.3067 13.8253Z" fill="white"/>
</svg>
