<svg width="35" height="39" viewBox="0 0 35 39" fill="none" xmlns="http://www.w3.org/2000/svg">
<path fillRule="evenodd" clipRule="evenodd" d="M21.9463 18.3927L27.6116 12.7283C27.5817 12.7063 27.5531 12.6839 27.525 12.6619L27.525 12.6619C27.4664 12.6159 27.4098 12.5716 27.3473 12.5354C25.8076 11.6446 24.2681 10.7535 22.7286 9.8624L22.7209 9.85793L22.7147 9.85437C17.6101 6.89963 12.5053 3.94484 7.39386 1.00247C6.4291 0.448034 5.38165 0.409127 4.69092 0.611772L11.4862 7.61385C14.97 11.2037 18.4656 14.8056 21.9463 18.3927ZM20.4465 19.5875L2.50039 1.64453C1.33133 2.63344 0.83355 3.89308 0.838414 5.41049C0.847783 9.95568 0.846156 14.5009 0.84453 19.0461C0.843904 20.7942 0.843279 22.5424 0.843279 24.2905V33.6511C0.843279 35.2512 1.40916 36.566 2.60092 37.43L8.60104 31.4313C12.5736 27.4598 16.5209 23.5136 20.4465 19.5875ZM27.4121 26.5779C27.3747 26.6027 27.3333 26.6315 27.2887 26.6624C27.1848 26.7346 27.0637 26.8186 26.9354 26.8924C22.4128 29.4897 17.8893 32.0852 13.3655 34.6809L13.3486 34.6907L8.06347 37.7234C7.0144 38.3265 5.90047 38.5745 4.89355 38.4805C8.26375 35.0121 11.6467 31.5294 15.0299 28.0463C17.3143 25.6944 19.5989 23.3424 21.8798 20.9946C23.8109 22.9416 25.6026 24.7492 27.4121 26.5779ZM30.3067 14.3248C29.9443 14.1128 29.5872 13.9038 29.2411 13.6946L28.9819 13.9541C27.0147 15.9241 25.126 17.8154 23.2061 19.735C23.2205 19.7509 23.2387 19.7716 23.2597 19.7957C23.314 19.8578 23.3876 19.942 23.4671 20.0203C23.6963 20.2435 23.9254 20.4666 24.1544 20.6898C25.7163 22.2113 27.2777 23.7323 28.86 25.2324C28.9833 25.3491 29.3578 25.3361 29.5378 25.2405C30.5317 24.7104 31.5078 24.1446 32.4807 23.5723C35.5031 21.7955 35.649 17.7977 32.7385 15.8215C31.9434 15.2826 31.112 14.7961 30.3067 14.3248Z" fill="black"/>
</svg>
