<svg width="22" height="22" viewBox="0 0 22 22" fill="none" xmlns="http://www.w3.org/2000/svg">
<path d="M9.53711 6.9562C9.54349 6.94982 9.54987 6.9429 9.55678 6.93652C9.54987 6.9429 9.54349 6.94982 9.53711 6.9562Z" fill="white"/>
<path d="M7.89258 4.01765C7.89789 4.01553 7.90321 4.01287 7.90853 4.01074C7.90321 4.0134 7.89789 4.01553 7.89258 4.01765Z" fill="white"/>
<path d="M7.91602 4.00232C7.93941 3.75456 8.03936 3.52913 8.11964 3.29785C8.03936 3.5286 7.93941 3.75456 7.91602 4.00232Z" fill="white"/>
<path d="M2.7218 5.39014C2.69521 5.42948 2.66863 5.46936 2.64258 5.50923C2.68936 5.47361 2.73775 5.43639 2.79144 5.39652C2.76646 5.39439 2.74306 5.39226 2.7218 5.39014Z" fill="white"/>
<path d="M7.91602 9.92847C7.93462 9.75249 7.98992 9.58714 8.04999 9.42285C7.98992 9.58714 7.93462 9.75249 7.91602 9.92847Z" fill="white"/>
<path d="M17.0395 18.9697C14.5641 18.9708 12.0887 18.9724 9.61328 18.9729C12.0887 18.9724 14.5641 18.9708 17.0395 18.9697Z" fill="white"/>
<path d="M7.89258 9.94911C7.89843 9.94539 7.90374 9.94167 7.90959 9.93848C7.90374 9.94167 7.89843 9.94539 7.89258 9.94911Z" fill="white"/>
<path d="M2.27652 6.96432C2.26482 6.97177 2.25259 6.97974 2.2409 6.98719C2.14094 6.91169 2.04099 6.83619 1.94104 6.76069C1.79377 7.07491 1.66192 7.39817 1.54761 7.72994C1.60397 7.89157 1.66032 8.05319 1.71136 8.21642C1.7422 8.31425 1.78952 8.34934 1.89372 8.34668C2.18188 8.33924 2.47057 8.34402 2.77309 8.38336C2.54607 8.54872 2.32171 8.71885 2.0899 8.87729C1.99208 8.94428 1.96496 9.00489 2.0075 9.12186C2.10373 9.38663 2.18241 9.65779 2.28609 9.98158C2.02026 9.78911 1.79749 9.63652 1.58483 9.47117C1.47637 9.38663 1.3929 9.36271 1.27965 9.46426C1.22277 9.5153 1.16056 9.56102 1.09783 9.60515C1.03349 10.0613 1 10.5265 1 11.0003C1 11.0024 1 11.0045 1 11.0066C4.29204 11.0066 7.58461 11.0066 10.8767 11.0066C10.9229 11.0066 10.9692 11.0024 11.0154 11.0003C11.0175 10.1156 11.0197 9.23085 11.0218 8.34615C11.0218 7.46197 11.0218 6.5778 11.0218 5.69309C11.0218 4.80892 11.0218 3.92421 11.0218 3.04004C11.0181 2.36002 11.0149 1.68001 11.0112 1C11.0074 1 11.0032 1 10.9995 1C9.12271 1 7.36716 1.51732 5.86629 2.41691C5.92264 2.4116 5.97847 2.40522 6.03376 2.41053C6.15764 2.42276 6.28417 2.41319 6.47504 2.41319C6.22197 2.59768 6.021 2.76144 5.80302 2.89648C5.64352 2.99537 5.61481 3.09639 5.68233 3.26706C5.77644 3.50419 5.84343 3.75195 5.93913 4.04809C5.66745 3.8519 5.43458 3.69346 5.21341 3.52067C5.10974 3.43985 5.03956 3.44783 4.94014 3.52545C4.72322 3.69506 4.49567 3.85084 4.24685 4.03161C4.27131 3.82745 4.35159 3.65571 4.40475 3.48239C3.76676 4.04384 3.20001 4.6845 2.72098 5.39004C2.74278 5.39216 2.76564 5.39429 2.79063 5.39642C2.73693 5.43629 2.68855 5.47351 2.64177 5.50913C2.44346 5.81059 2.26004 6.12322 2.09469 6.44594C2.1553 6.61927 2.21591 6.79153 2.27652 6.96432ZM8.18379 2.41691C8.34755 2.42542 8.43049 2.38076 8.47302 2.21169C8.53894 1.9517 8.63571 1.69915 8.73194 1.40301C8.83721 1.72148 8.93556 2.00114 9.01957 2.28453C9.04987 2.38767 9.09825 2.41744 9.20086 2.41532C9.48955 2.40894 9.77878 2.41319 10.1307 2.41319C9.85587 2.61204 9.63257 2.78058 9.40077 2.93742C9.29656 3.00813 9.27157 3.07778 9.31304 3.19794C9.40023 3.45208 9.50178 3.70303 9.56292 4.02948C9.31145 3.84659 9.09719 3.70144 8.89622 3.54087C8.77979 3.44783 8.69578 3.44304 8.5735 3.53821C8.3619 3.7025 8.15296 3.8737 7.91584 4.00237C7.91584 4.00449 7.91531 4.00609 7.91531 4.00821C7.91318 4.00928 7.91052 4.01034 7.9084 4.0114C7.9068 4.01406 7.9052 4.01725 7.90308 4.01938C7.90148 4.02097 7.89617 4.01885 7.89245 4.01832C7.89776 4.01619 7.90308 4.01353 7.9084 4.0114C7.90999 4.00928 7.91159 4.00715 7.91265 4.00449C7.91371 4.00396 7.91478 4.00343 7.91584 4.00237C7.93923 3.75461 8.03918 3.52918 8.11946 3.2979C8.13116 3.2644 8.14233 3.23144 8.15296 3.19794C8.19124 3.07619 8.17476 3.01132 8.06683 2.93955C7.83609 2.78536 7.61598 2.61523 7.33952 2.41372C7.65692 2.41319 7.92115 2.40309 8.18379 2.41691ZM9.31889 6.1817C9.4098 6.42893 9.47786 6.68466 9.55548 6.93668C9.56026 6.94997 9.56452 6.96326 9.5693 6.97709C9.55814 6.97017 9.54697 6.96326 9.53581 6.95688C9.34441 6.85905 9.17534 6.7272 9.00893 6.59428C8.98501 6.57514 8.96161 6.556 8.93769 6.53739C8.78989 6.41883 8.68515 6.40607 8.53575 6.53367C8.34648 6.6953 8.13435 6.82981 7.89564 6.95103C7.98123 6.68307 8.06045 6.41245 8.15509 6.14767C8.19337 6.04081 8.17635 5.98285 8.08331 5.91958C7.84991 5.75955 7.62396 5.58888 7.40225 5.37887C7.66915 5.37887 7.93604 5.36983 8.20187 5.38259C8.3534 5.39004 8.42623 5.34325 8.46664 5.19438C8.53788 4.93386 8.62986 4.67919 8.73087 4.36816C8.82976 4.67281 8.92174 4.92801 8.99458 5.18853C9.03498 5.33368 9.10091 5.39057 9.25669 5.38259C9.52517 5.36877 9.79473 5.37887 10.0792 5.41662C9.85853 5.57719 9.64267 5.74466 9.41565 5.89566C9.29922 5.97222 9.26838 6.044 9.31889 6.1817ZM8.17263 8.34774C8.34542 8.35784 8.43261 8.31318 8.47621 8.13348C8.53841 7.87774 8.63571 7.62998 8.73194 7.33809C8.83402 7.64646 8.93131 7.91709 9.01159 8.19249C9.04508 8.30787 9.09453 8.35093 9.21734 8.34668C9.50019 8.33711 9.78303 8.34349 10.1286 8.34349C9.86172 8.53968 9.64639 8.70822 9.41937 8.85975C9.30135 8.93843 9.26679 9.01234 9.32049 9.14898C9.39811 9.34516 9.455 9.54986 9.51826 9.75189C9.53634 9.80932 9.58153 9.86567 9.54378 9.93107C9.54378 9.93107 9.54378 9.93107 9.54431 9.9316C9.54431 9.9316 9.54431 9.9316 9.54485 9.93213C9.55282 9.92044 9.56186 9.92044 9.57036 9.93479C9.57302 9.93904 9.57037 9.94702 9.56983 9.9534C9.56133 9.94649 9.55335 9.93958 9.54485 9.93213C9.54378 9.93373 9.54272 9.93479 9.54166 9.93692C9.54272 9.93532 9.54325 9.93373 9.54431 9.9316C9.3173 9.77316 9.08549 9.62004 8.86485 9.45309C8.77022 9.38185 8.70854 9.37866 8.60912 9.44884C8.38051 9.61153 8.17263 9.80559 7.91637 9.92894C7.91637 9.93107 7.91584 9.9332 7.91531 9.93532C7.91371 9.93639 7.91159 9.93745 7.90999 9.93851C7.90893 9.94223 7.90786 9.94596 7.90627 9.94861C7.90467 9.95074 7.89776 9.94915 7.89351 9.94915C7.89936 9.94543 7.90467 9.9417 7.91052 9.93851C7.91105 9.93585 7.91159 9.93373 7.91265 9.93107C7.91424 9.93054 7.91531 9.92947 7.9169 9.92894C7.93551 9.75296 7.9908 9.58761 8.05088 9.42332C8.08703 9.3239 8.12478 9.22447 8.15668 9.12346C8.19337 9.00702 8.17529 8.94747 8.0764 8.87995C7.84247 8.71991 7.61651 8.54765 7.33792 8.34402C7.65267 8.34402 7.91371 8.33232 8.17263 8.34774ZM4.54936 5.381C4.69876 5.38791 4.77373 5.34591 4.81413 5.19385C4.88378 4.9328 4.97841 4.67866 5.07996 4.36763C5.18098 4.67706 5.27136 4.92482 5.34048 5.1779C5.38195 5.32996 5.4484 5.39216 5.61481 5.38206C5.88171 5.36558 6.15073 5.37781 6.47823 5.37781C6.19698 5.5825 5.97156 5.7553 5.73709 5.91427C5.63448 5.98392 5.62279 6.0525 5.66107 6.16203C5.75464 6.4284 5.83758 6.69902 5.94125 7.01802C5.66585 6.81865 5.43033 6.6533 5.20118 6.47891C5.11399 6.41245 5.05232 6.40766 4.9614 6.47837C4.73757 6.65223 4.50364 6.81386 4.23728 6.96114C4.31969 6.70859 4.39306 6.45285 4.48769 6.20509C4.54458 6.05569 4.51906 5.9685 4.38189 5.88077C4.16072 5.73882 3.95337 5.57453 3.74762 5.37781C4.01558 5.37728 4.283 5.36877 4.54936 5.381ZM4.59668 8.34668C4.71843 8.35093 4.77054 8.30787 4.8035 8.19462C4.88272 7.9224 4.97469 7.65391 5.0773 7.33437C5.18151 7.64859 5.27827 7.91868 5.35855 8.19356C5.39205 8.30893 5.44255 8.3504 5.5643 8.34615C5.84662 8.33711 6.12946 8.34296 6.42932 8.38017C6.20336 8.54446 5.98166 8.7146 5.75039 8.87091C5.64459 8.94215 5.61907 9.00968 5.66266 9.13143C5.75836 9.39674 5.83864 9.66789 5.94019 9.98211C5.66745 9.78486 5.42979 9.6211 5.20171 9.44512C5.11239 9.37653 5.05391 9.37706 4.96193 9.44246C4.72907 9.60728 4.51906 9.80772 4.25429 9.92682C4.25376 9.92841 4.25376 9.93001 4.25323 9.93213C4.2511 9.93639 4.24951 9.94117 4.24738 9.94542C4.24791 9.94011 4.24898 9.93479 4.24951 9.92894C4.2511 9.92841 4.25217 9.92735 4.25376 9.92682C4.2947 9.68225 4.38668 9.45309 4.46696 9.22022C4.47865 9.18672 4.48982 9.15323 4.50045 9.11973C4.53873 9.00064 4.51481 8.94322 4.41804 8.87676C4.18465 8.71672 3.95922 8.54499 3.68223 8.34296C4.02462 8.34402 4.31065 8.33764 4.59668 8.34668Z" fill="#0153B4"/>
<path d="M9.54403 9.93155L9.54297 9.93368C9.54297 9.93261 9.54403 9.93155 9.54403 9.93155C9.5435 9.93155 9.5435 9.93155 9.54403 9.93155C9.5435 9.93102 9.5435 9.93102 9.54403 9.93155C9.5435 9.93155 9.5435 9.93155 9.54403 9.93155Z" fill="#0153B4"/>
<path d="M4.2539 9.93252L4.2523 9.93146C4.25283 9.93199 4.2539 9.93252 4.2539 9.93252C4.2523 9.93677 4.25017 9.94156 4.24805 9.94581C4.25017 9.94156 4.25177 9.93677 4.2539 9.93252C4.25443 9.93092 4.25443 9.92933 4.25496 9.92773C4.25443 9.92933 4.2539 9.93092 4.2539 9.93252Z" fill="#0153B4"/>
<path d="M20.641 8.34619C17.434 8.34619 14.227 8.34619 11.0201 8.34619C11.0179 9.2309 11.0158 10.1156 11.0137 11.0003C11.0929 11.0024 11.1721 11.0067 11.2513 11.0067C14.5003 11.0072 17.7487 11.0067 20.9977 11.0067C20.9977 11.0046 20.9977 11.0024 20.9977 11.0003C20.9977 10.081 20.8733 9.19102 20.641 8.34619Z" fill="#D70128"/>
<path d="M4.95898 18.9697C6.63744 20.2436 8.72952 21.0002 10.9992 21.0002C13.2688 21.0002 15.3609 20.2436 17.0394 18.9697C14.564 18.9708 12.0886 18.9724 9.61314 18.9729C8.06229 18.9729 6.51037 18.9708 4.95898 18.9697Z" fill="#D70128"/>
<path d="M1.35938 13.6677C1.62148 14.6173 2.02023 15.51 2.53275 16.324C2.55455 16.3229 2.57635 16.3218 2.59868 16.3218C8.20929 16.3213 13.8199 16.3213 19.43 16.3218C19.4417 16.3218 19.4534 16.3224 19.4651 16.3229C19.9776 15.5094 20.3758 14.6168 20.6379 13.6677C14.2149 13.6677 7.79193 13.6677 1.36894 13.6677C1.36575 13.6672 1.36256 13.6677 1.35938 13.6677Z" fill="#D70128"/>
<path d="M19.4738 5.69048C18.8316 4.66754 18.0096 3.76901 17.0516 3.03955C15.0414 3.04008 13.0317 3.04008 11.0215 3.03955C11.0215 3.92373 11.0215 4.80843 11.0215 5.69261C13.8249 5.69208 16.6284 5.69208 19.4324 5.69101C19.4456 5.69154 19.4595 5.69101 19.4738 5.69048Z" fill="#D70128"/>
<path d="M11.2531 11.0059C11.1739 11.0059 11.0946 11.0016 11.0154 10.9995C10.9692 11.0016 10.9229 11.0059 10.8767 11.0059C7.58461 11.0064 4.29204 11.0064 1 11.0059C1.00053 11.9273 1.12654 12.8194 1.36047 13.6669C1.36366 13.6669 1.36738 13.6669 1.37057 13.6669C7.79356 13.6669 14.2165 13.6669 20.6395 13.6669C20.8735 12.82 20.9989 11.9278 21 11.0064C17.7505 11.0064 14.502 11.0064 11.2531 11.0059Z" fill="#EFEEEE"/>
<path d="M17.0519 3.0395C15.3751 1.76242 13.2819 1.00266 11.0117 1C11.0154 1.68001 11.0186 2.36002 11.0224 3.04004C13.032 3.04004 15.0422 3.04004 17.0519 3.0395Z" fill="#EFEEEE"/>
<path d="M11.0215 5.69304C11.0215 6.57722 11.0215 7.46139 11.0215 8.3461C14.2285 8.3461 17.4354 8.3461 20.6424 8.3461C20.3819 7.39706 19.9847 6.50438 19.4738 5.69092C19.46 5.69145 19.4462 5.69198 19.4324 5.69198C16.6284 5.69251 13.8249 5.69304 11.0215 5.69304Z" fill="#EFEEEE"/>
<path d="M2.59913 16.3216C2.57733 16.3216 2.55553 16.3227 2.5332 16.3237C3.17704 17.3451 4.00005 18.242 4.95864 18.9699C6.51002 18.9709 8.06141 18.9731 9.61279 18.9731C12.0882 18.9731 14.5636 18.9715 17.039 18.9699C17.9981 18.242 18.8217 17.3445 19.4655 16.3227C19.4538 16.3221 19.4421 16.3216 19.4304 16.3216C13.8198 16.3205 8.20974 16.3205 2.59913 16.3216Z" fill="#EFEEEE"/>
<path d="M9.53664 6.95635C9.53664 6.95635 9.53717 6.95635 9.53664 6.95635C9.34524 6.85852 9.17618 6.72667 9.00977 6.59375C9.17618 6.72667 9.34524 6.85852 9.53664 6.95635Z" fill="#EBECEE"/>
<path d="M9.5447 9.93114C9.31768 9.7727 9.08587 9.61958 8.86523 9.45264C9.08587 9.61958 9.31768 9.7727 9.5447 9.93114Z" fill="#EBECEE"/>
<path d="M7.91406 9.9346C7.91406 9.93248 7.91459 9.93035 7.91513 9.92822C7.91459 9.93035 7.91406 9.93248 7.91406 9.9346Z" fill="#EBECEE"/>
<path d="M9.54367 9.93164C9.54314 9.93164 9.54314 9.93164 9.54367 9.93164C9.54208 9.93324 9.54208 9.93483 9.54102 9.93643C9.54102 9.93643 9.54208 9.93483 9.54261 9.93377L9.54367 9.93164Z" fill="#EBECEE"/>
<path d="M7.91535 9.9346C7.91535 9.93248 7.91588 9.93035 7.91641 9.92822C7.91482 9.92875 7.91376 9.92982 7.91216 9.93035C7.91163 9.93088 7.91535 9.9346 7.91535 9.9346Z" fill="#EBECEE"/>
<path d="M4.25391 9.92779C4.29484 9.68322 4.38682 9.45406 4.4671 9.22119C4.38682 9.45353 4.29484 9.68322 4.25391 9.92779Z" fill="#EBECEE"/>
<path d="M4.25319 9.93252C4.25372 9.93092 4.25372 9.92933 4.25425 9.92773C4.25266 9.92827 4.25159 9.92933 4.25 9.92986C4.25 9.92986 4.25106 9.93092 4.25213 9.93146L4.25319 9.93252Z" fill="#EBECEE"/>
<path d="M2.08831 8.87733C2.32012 8.7189 2.54448 8.54876 2.7715 8.38341C2.46898 8.34406 2.18029 8.33928 1.89213 8.34672C1.78792 8.34938 1.74061 8.31429 1.70977 8.21646C1.65873 8.05324 1.60238 7.89161 1.54602 7.72998C1.33814 8.3313 1.18609 8.95868 1.0957 9.60573C1.15897 9.5616 1.22064 9.51588 1.27753 9.46483C1.39077 9.36382 1.47478 9.38774 1.5827 9.47175C1.79537 9.6371 2.0176 9.78969 2.28396 9.98215C2.18029 9.65836 2.1016 9.38721 2.00537 9.12244C1.96337 9.0044 1.99049 8.94433 2.08831 8.87733Z" fill="#EBECEE"/>
<path d="M5.21407 3.52132C5.43524 3.69464 5.66811 3.85255 5.93979 4.04874C5.84409 3.75313 5.7771 3.50483 5.683 3.26771C5.61548 3.09651 5.64419 2.99602 5.80369 2.89713C6.02167 2.76155 6.22263 2.5978 6.4757 2.41384C6.28431 2.41384 6.1583 2.42394 6.03443 2.41118C5.97913 2.40586 5.92278 2.41224 5.86695 2.41756C5.34752 2.72912 4.85892 3.08587 4.40595 3.48357C4.35278 3.65689 4.27197 3.82862 4.24805 4.03279C4.49686 3.85255 4.72441 3.69624 4.94133 3.52663C5.04022 3.44848 5.1104 3.43997 5.21407 3.52132Z" fill="#EBECEE"/>
<path d="M2.27635 6.96414C2.21574 6.79135 2.15513 6.61908 2.09452 6.44629C2.04136 6.54997 1.99085 6.65471 1.94141 6.76051C2.04136 6.83601 2.14131 6.9115 2.24126 6.987C2.25296 6.97956 2.26466 6.97212 2.27635 6.96414Z" fill="#EBECEE"/>
<path d="M5.61471 5.38211C5.4483 5.39221 5.38184 5.33001 5.34037 5.17795C5.27125 4.92487 5.18087 4.67711 5.07986 4.36768C4.97831 4.67871 4.88367 4.93285 4.81403 5.1939C4.77362 5.34596 4.69866 5.38796 4.54926 5.38105C4.28237 5.36935 4.01494 5.37786 3.74805 5.37786C3.95327 5.57458 4.16062 5.73833 4.38232 5.88082C4.51895 5.96855 4.54501 6.05574 4.48812 6.20514C4.39348 6.4529 4.32011 6.70864 4.23771 6.96118C4.50407 6.81338 4.738 6.65228 4.96183 6.47842C5.05221 6.40824 5.11441 6.4125 5.20161 6.47896C5.43075 6.65334 5.66681 6.8187 5.94168 7.01807C5.838 6.69907 5.75506 6.42845 5.66149 6.16208C5.62321 6.05255 5.63491 5.98343 5.73752 5.91432C5.97198 5.75535 6.19741 5.58308 6.47865 5.37786C6.15062 5.37733 5.8816 5.36563 5.61471 5.38211Z" fill="#EBECEE"/>
<path d="M9.41574 5.8942C9.64276 5.7432 9.85861 5.57573 10.0793 5.41516C9.79481 5.37741 9.52526 5.36784 9.25678 5.38113C9.101 5.38911 9.03507 5.33222 8.99467 5.18707C8.92236 4.92655 8.83038 4.67135 8.73096 4.3667C8.62995 4.67773 8.53797 4.9324 8.46673 5.19292C8.42632 5.34179 8.35348 5.38858 8.20196 5.38113C7.93613 5.36837 7.66871 5.37741 7.40234 5.37741C7.62351 5.58742 7.85 5.75809 8.0834 5.91813C8.17644 5.98193 8.19345 6.03935 8.15518 6.14621C8.06001 6.41099 7.98079 6.68161 7.89572 6.94957C8.13444 6.82835 8.34657 6.69384 8.53584 6.53221C8.68524 6.40461 8.78998 6.41737 8.93778 6.53593C8.96117 6.55507 8.9851 6.57421 9.00902 6.59282C9.1749 6.72574 9.3445 6.85759 9.5359 6.95542C9.54228 6.94904 9.54866 6.94213 9.55557 6.93575C9.47795 6.68374 9.40989 6.428 9.31898 6.18077C9.26741 6.04413 9.29824 5.97236 9.41574 5.8942Z" fill="#EBECEE"/>
<path d="M9.41845 8.86052C9.64547 8.70899 9.86079 8.54045 10.1277 8.34426C9.78211 8.34426 9.49873 8.33788 9.21642 8.34745C9.09361 8.35171 9.04469 8.30864 9.01067 8.19327C8.93039 7.91786 8.83309 7.64724 8.73101 7.33887C8.63531 7.63129 8.53802 7.87852 8.47529 8.13425C8.43169 8.31396 8.3445 8.35862 8.17171 8.34852C7.91279 8.3331 7.65174 8.34426 7.33594 8.34426C7.61453 8.5479 7.83995 8.72016 8.07441 8.88019C8.1733 8.94771 8.19138 9.00726 8.15469 9.1237C8.12279 9.22472 8.08505 9.32361 8.04889 9.42356C7.98935 9.58785 7.93352 9.7532 7.91492 9.92919C8.17064 9.80584 8.37852 9.61178 8.60767 9.44908C8.70709 9.37837 8.76876 9.38156 8.8634 9.45334C9.08457 9.62028 9.31584 9.77341 9.54286 9.93184C9.58061 9.86645 9.53542 9.81062 9.51734 9.75267C9.45407 9.55063 9.39718 9.34594 9.31956 9.14975C9.26586 9.01311 9.30042 8.93921 9.41845 8.86052Z" fill="#EBECEE"/>
<path d="M5.74927 8.8715C5.98054 8.71519 6.20224 8.54505 6.4282 8.38076C6.12834 8.34408 5.8455 8.3377 5.56319 8.34674C5.44197 8.35099 5.39146 8.30952 5.35743 8.19415C5.27715 7.91927 5.18039 7.64918 5.07619 7.33496C4.97358 7.65397 4.88213 7.92299 4.80238 8.19521C4.76942 8.30846 4.71678 8.35099 4.59556 8.34727C4.30953 8.3377 4.02297 8.34408 3.68164 8.34408C3.95864 8.54612 4.18406 8.71785 4.41746 8.87788C4.51422 8.94434 4.53815 9.00176 4.49987 9.12086C4.48923 9.15435 4.47754 9.18785 4.46637 9.22134C4.38609 9.45368 4.29411 9.68337 4.25318 9.92794C4.51794 9.80884 4.72742 9.60893 4.96082 9.44358C5.05332 9.37819 5.11128 9.37712 5.20059 9.44624C5.42868 9.62222 5.6658 9.78598 5.93907 9.98323C5.83752 9.66901 5.75724 9.39786 5.66154 9.13255C5.61795 9.01027 5.64347 8.94328 5.74927 8.8715Z" fill="#EBECEE"/>
<path d="M8.15133 3.19777C8.1407 3.23126 8.12953 3.26476 8.11784 3.29772C8.03702 3.52847 7.93707 3.75443 7.91421 4.00219C8.15186 3.87352 8.36027 3.70232 8.57187 3.53804C8.69416 3.44287 8.77816 3.44765 8.89459 3.5407C9.09556 3.70179 9.30982 3.84641 9.56129 4.0293C9.50015 3.70286 9.39861 3.45191 9.31141 3.19777C9.26994 3.07708 9.29493 3.00743 9.39914 2.93724C9.63094 2.7804 9.85424 2.61186 10.1291 2.41301C9.77715 2.41301 9.48793 2.40876 9.19923 2.41514C9.09662 2.41727 9.04824 2.38749 9.01794 2.28435C8.93393 2.00097 8.83558 1.72131 8.73031 1.40283C8.63355 1.69897 8.53732 1.95152 8.47139 2.21151C8.42833 2.38005 8.34592 2.42524 8.18217 2.41674C7.919 2.40344 7.65529 2.41301 7.33789 2.41301C7.61435 2.61452 7.83446 2.78465 8.0652 2.93884C8.17313 3.01062 8.18961 3.07548 8.15133 3.19777Z" fill="#EBECEE"/>
<path d="M7.91602 4.0078C7.91602 4.00567 7.91655 4.00408 7.91708 4.00195C7.91655 4.00408 7.91602 4.00621 7.91602 4.0078Z" fill="#EBECEE"/>
<path d="M7.91477 4.0078C7.91477 4.00567 7.9153 4.00408 7.9153 4.00195C7.91424 4.00248 7.91317 4.00302 7.91211 4.00408C7.91211 4.00408 7.91477 4.0078 7.91477 4.0078Z" fill="#EBECEE"/>
<path d="M7.90321 4.01921C7.90534 4.01708 7.90693 4.01389 7.90853 4.01123C7.90321 4.01336 7.89789 4.01602 7.89258 4.01814C7.89577 4.01814 7.90108 4.0208 7.90321 4.01921Z" fill="#EBECEE"/>
<path d="M7.9082 4.011C7.91033 4.00994 7.91299 4.00888 7.91511 4.00781C7.91299 4.00888 7.91086 4.00994 7.9082 4.011Z" fill="#EBECEE"/>
<path d="M7.91246 4.00391C7.91086 4.00603 7.90927 4.00816 7.9082 4.01082C7.91033 4.00975 7.91299 4.00869 7.91511 4.00763L7.91246 4.00391Z" fill="#EBECEE"/>
<path d="M7.91477 4.00763L7.91211 4.00391L7.91477 4.00763Z" fill="#EBECEE"/>
<path d="M9.53711 6.95624C9.54827 6.96315 9.55944 6.97006 9.5706 6.97644C9.56582 6.96315 9.56157 6.94986 9.55678 6.93604C9.54987 6.94295 9.54349 6.94986 9.53711 6.95624Z" fill="#EBECEE"/>
<path d="M9.53711 6.95654C9.54827 6.96345 9.55944 6.97037 9.5706 6.97675C9.55891 6.97037 9.54774 6.96345 9.53711 6.95654Z" fill="#EBECEE"/>
<path d="M4.2523 9.93177L4.25017 9.93018C4.24964 9.93549 4.24858 9.94081 4.24805 9.94666C4.25017 9.9424 4.25177 9.93762 4.2539 9.93337C4.2539 9.93283 4.25283 9.9323 4.2523 9.93177Z" fill="#EBECEE"/>
<path d="M4.25 9.93018L4.25213 9.93177C4.25106 9.93071 4.25 9.93018 4.25 9.93018Z" fill="#EBECEE"/>
<path d="M7.90587 9.94858C7.908 9.94539 7.90906 9.9422 7.90959 9.93848C7.90374 9.9422 7.89843 9.94592 7.89258 9.94911C7.89789 9.94911 7.90481 9.95071 7.90587 9.94858Z" fill="#EBECEE"/>
<path d="M7.91033 9.93115C7.9098 9.93381 7.90927 9.93594 7.9082 9.9386C7.9098 9.93753 7.91193 9.93647 7.91352 9.93541L7.91033 9.93115Z" fill="#EBECEE"/>
<path d="M7.91016 9.93874C7.91175 9.93767 7.91388 9.93661 7.91547 9.93555C7.91388 9.93608 7.91175 9.93714 7.91016 9.93874Z" fill="#EBECEE"/>
<path d="M7.91388 9.93487L7.91016 9.93115L7.91388 9.93487Z" fill="#EBECEE"/>
<path d="M9.57044 9.93446C9.56193 9.92011 9.5529 9.92011 9.54492 9.93181C9.55343 9.93872 9.5614 9.94563 9.56991 9.95307C9.57044 9.94669 9.5731 9.93925 9.57044 9.93446Z" fill="#EBECEE"/>
<path d="M9.56991 9.95291C9.5614 9.946 9.55343 9.93908 9.54492 9.93164C9.55343 9.93908 9.5614 9.946 9.56991 9.95291Z" fill="#EBECEE"/>
<path d="M9.54261 9.93381L9.54102 9.93647C9.54208 9.93434 9.54314 9.93328 9.54421 9.93168C9.54421 9.93168 9.54421 9.93168 9.54367 9.93115C9.54421 9.93168 9.54314 9.93275 9.54261 9.93381Z" fill="#EBECEE"/>
<path d="M9.54102 9.93625L9.54261 9.93359C9.54208 9.93466 9.54102 9.93625 9.54102 9.93625Z" fill="#EBECEE"/>
<circle cx="11" cy="11" r="10.5" stroke="white"/>
</svg>
