<svg width="22" height="22" viewBox="0 0 22 22" fill="none" xmlns="http://www.w3.org/2000/svg">
<circle cx="11" cy="11" r="10" fill="#ED0F0F"/>
<path d="M6.01948 9.81116C7.15563 9.81116 8.29217 9.81116 9.42832 9.81116C9.8119 9.81116 9.8119 9.81158 9.93083 9.42653C10.2592 8.36625 10.5872 7.30597 10.9156 6.24611C10.9355 6.18215 10.9598 6.11988 11.0024 6C11.0524 6.15038 11.0856 6.24611 11.1157 6.34312C11.4526 7.43008 11.7931 8.51578 12.1211 9.60571C12.1719 9.7743 12.2461 9.81709 12.4061 9.81582C13.5292 9.80735 14.6524 9.80946 15.7755 9.80819C15.8462 9.80819 15.9168 9.80819 16 9.85182C15.9371 9.90011 15.875 9.94925 15.8117 9.9967C14.902 10.6834 13.9936 11.3726 13.0807 12.0541C12.9614 12.1431 12.935 12.2206 12.9821 12.368C13.3348 13.4715 13.6786 14.5784 14.0248 15.6844C14.0516 15.77 14.0748 15.8572 14.1117 15.9869C14.0301 15.9322 13.9814 15.903 13.9364 15.8687C13.0125 15.1663 12.087 14.4661 11.1672 13.7579C11.0426 13.6617 10.9606 13.6592 10.8344 13.7566C9.9422 14.4445 9.04433 15.124 8.14767 15.806C8.07704 15.8598 8.00601 15.9119 7.88748 16C7.91874 15.8835 7.93457 15.8153 7.95567 15.7488C8.30597 14.6292 8.65425 13.5092 9.01145 12.3922C9.06259 12.2329 9.04311 12.1448 8.90591 12.0427C7.99667 11.3675 7.09474 10.6817 6.19037 9.99881C6.12664 9.95052 6.06332 9.90096 6 9.85182C6.00649 9.83827 6.01299 9.82471 6.01948 9.81116Z" fill="#FFE70D"/>
<circle cx="11" cy="11" r="10.5" stroke="white"/>
</svg>
