<svg width="24" height="27" viewBox="0 0 24 27" fill="none" xmlns="http://www.w3.org/2000/svg">
<path d="M12.3277 11.05C14.2211 10.9257 15.6539 10.0531 16.6871 8.55666C17.4655 7.42868 17.6665 6.16733 17.4842 4.83364C17.2083 2.80824 15.4552 0.913951 13.4006 0.448291C13.1014 0.380476 12.7975 0.330745 12.4984 0.271973C12.1524 0.271973 11.8065 0.271973 11.4582 0.271973C11.2431 0.30814 11.0304 0.342048 10.8154 0.382737C9.56484 0.62913 8.55272 1.26207 7.71357 2.17756C6.34615 3.67175 5.99319 6.07465 6.86507 7.87626C7.79538 9.79993 9.84066 11.2127 12.3277 11.05Z" fill="#018787"/>
<path d="M23.3057 19.7362C23.1535 18.265 22.8129 16.8358 22.0543 15.5193C21.2043 14.0455 19.9446 13.125 18.1643 12.8784C17.5109 12.7867 16.9073 12.8444 16.3591 13.2325C16.0601 13.4449 15.7334 13.6259 15.415 13.812C13.1309 15.1521 10.8384 15.1548 8.54871 13.8225C8.14448 13.5891 7.76241 13.3216 7.34711 13.1066C7.09516 12.9755 6.80168 12.847 6.52481 12.8444C5.64714 12.8286 4.811 13.0201 4.03023 13.4161C2.78156 14.0507 2.02018 15.0813 1.51074 16.2798C0.65799 18.2913 0.394966 20.4024 0.588773 22.5528C0.696751 23.7565 1.31417 24.7321 2.36349 25.4402C3.28823 26.0643 4.33756 26.2741 5.45056 26.2715C7.62121 26.2715 9.79185 26.2715 11.9625 26.2715C14.1165 26.2715 16.2678 26.2741 18.4218 26.2689C18.7153 26.2689 19.0115 26.2531 19.3022 26.2243C21.7387 25.9856 23.3777 24.3072 23.4054 21.989C23.4193 21.2389 23.3833 20.4837 23.3057 19.7362Z" fill="#018787"/>
</svg>
