<svg width="28" height="27" viewBox="0 0 28 27" fill="none" xmlns="http://www.w3.org/2000/svg">
<path fill-rule="evenodd" clip-rule="evenodd" d="M14.1341 9.75638L26.3949 5.24501C26.5789 5.17608 26.5789 4.92483 26.3949 4.85813L14.1249 0.344535C13.8674 0.248927 13.5846 0.248927 13.3247 0.337865L0.790262 4.74918C0.604005 4.81588 0.601705 5.06936 0.787963 5.13828L13.3201 9.75638C13.5823 9.85199 13.872 9.85199 14.1341 9.75638ZM20.9458 8.2019L14.0934 10.7455C13.8565 10.8256 13.6013 10.8278 13.3621 10.75L6.19007 8.2019V11.7594C7.45479 12.9756 10.6373 14.3542 13.7278 14.3542C17.9197 14.3542 20.9458 11.9084 20.9458 11.9084V8.2019ZM25.3143 6.60791L26.5353 6.08984V8.86915H25.3143V6.60791ZM25.9237 11.0749C26.4431 11.0749 26.8642 10.6677 26.8642 10.1655C26.8642 9.66325 26.4431 9.2561 25.9237 9.2561C25.4043 9.2561 24.9832 9.66325 24.9832 10.1655C24.9832 10.6677 25.4043 11.0749 25.9237 11.0749ZM24.9839 11.1902C24.9839 11.1902 25.8853 11.9306 26.8649 11.1902L27.6904 15.4147H24.3171L24.9839 11.1902ZM9.26722 23.6504C8.50379 23.8283 7.87834 24.0217 7.41384 24.184C8.58888 25.1957 10.0352 25.9228 11.6311 26.2518C10.64 25.4047 9.86509 24.5287 9.26722 23.6504ZM13.0997 23.1636V26.2275C11.8809 25.327 10.9588 24.3865 10.2667 23.4482C11.1037 23.2992 12.0603 23.1903 13.0997 23.1636ZM9.69424 22.5944C10.6761 22.3988 11.8259 22.2498 13.0998 22.2209V17.9541H8.32605C8.36285 19.3037 8.69397 20.9268 9.69424 22.5944ZM20.4484 23.4838C19.7356 23.2148 19.0319 22.9924 18.3467 22.8168C19.0825 21.4805 19.6252 19.8596 19.6758 17.9541H22.8123C22.7019 20.0753 21.8281 22.003 20.4484 23.4838ZM7.41185 17.9541H4.32365C4.43403 20.0686 5.30323 21.9897 6.67372 23.4682C7.13362 23.2859 7.83726 23.0391 8.75015 22.8079C7.77977 21.0714 7.45324 19.3771 7.41185 17.9541ZM14.0513 17.0333V15.4747C15.5437 15.4213 16.9739 15.1323 18.303 14.6409C18.5307 15.4836 18.6641 16.2818 18.7123 17.0333H14.0513ZM19.6619 17.0333H22.8122C22.7317 15.5369 22.2719 14.1361 21.5245 12.9221C20.8002 13.4469 20.0184 13.9027 19.1905 14.2762C19.4642 15.2478 19.6137 16.1683 19.6619 17.0333ZM5.61331 12.9204C6.33765 13.4474 7.12177 13.9032 7.95188 14.2789C7.83461 14.6013 7.50578 15.6197 7.4276 17.0316H4.32561C4.40379 15.5352 4.86368 14.1344 5.61331 12.9204ZM8.34363 17.0338H13.099V15.4752C11.5974 15.424 10.1625 15.1328 8.82882 14.6392C8.70925 14.9549 8.42412 15.8287 8.34363 17.0338ZM19.7075 24.1974C18.5463 25.1913 17.1275 25.9072 15.5593 26.2407C16.279 25.607 17.1137 24.7444 17.845 23.6482C18.4543 23.7927 19.0775 23.975 19.7075 24.1974ZM14.0513 22.2209C15.1114 22.2476 16.2427 22.3632 17.4269 22.6033C18.149 21.3493 18.6825 19.7996 18.7284 17.9541H14.0513V22.2209ZM14.0513 26.2717V23.1611C14.9458 23.1834 15.8955 23.2723 16.882 23.4502C15.9093 24.8243 14.771 25.7603 14.0513 26.2717Z" fill="#018787"/>
</svg>
