<svg width="28" height="27" viewBox="0 0 28 27" fill="none" xmlns="http://www.w3.org/2000/svg">
<path d="M13.5969 6.16681C15.0802 6.15662 16.2953 5.05238 16.4944 3.5338C16.6739 2.16733 15.7423 0.775408 14.3877 0.388444C14.2355 0.345165 14.0801 0.31016 13.926 0.271973C13.6895 0.271973 13.4535 0.271973 13.217 0.271973C13.1783 0.286611 13.1409 0.308887 13.1016 0.315252C11.4863 0.595291 10.4272 2.06614 10.6771 3.68337C10.8978 5.11984 12.1408 6.17699 13.5969 6.16681Z" fill="#018787"/>
<path d="M18.1659 14.8857C18.052 17.3889 15.622 18.7108 13.6082 18.7261C11.7294 18.7407 9.1313 17.527 8.99257 14.8857C6.00694 14.8857 3.04242 14.8857 0.0507546 14.8857C0.0507546 15.4019 0.0454769 15.8996 0.0598019 16.3973C0.0613098 16.4438 0.180434 16.5202 0.252813 16.5272C1.39806 16.636 2.54481 16.7404 3.69232 16.8346C3.88081 16.8498 3.95243 16.9071 4.02255 17.058C4.33016 17.7256 4.65737 18.3875 5.00042 19.0424C5.07355 19.1824 5.06677 19.2607 4.95669 19.3727C4.52091 19.8157 4.09568 20.2657 3.66744 20.7138C3.32892 21.0676 2.99115 21.4221 2.68203 21.7454C3.61316 22.5321 4.51789 23.2971 5.43771 24.0742C6.4186 23.4053 7.42361 22.7205 8.34795 22.0904C9.30395 22.3978 10.1996 22.6829 11.0908 22.9783C11.1579 23.0005 11.225 23.0928 11.2348 23.1584C11.3223 23.7802 11.3977 24.4033 11.4768 25.0257C11.5304 25.4432 11.5854 25.8608 11.6389 26.2719C12.9538 26.2719 14.2325 26.2719 15.5301 26.2719C15.6462 25.3395 15.7638 24.4236 15.8716 23.5065C15.9296 23.0107 15.9221 23.0107 16.4785 22.8739C16.6127 22.8408 16.7484 22.807 16.8766 22.76C17.4994 22.5321 18.1199 22.2992 18.7675 22.0579C19.7424 22.7224 20.7474 23.4079 21.7298 24.0768C22.6526 23.2978 23.5581 22.5334 24.4839 21.7518C24.4274 21.6907 24.349 21.6048 24.2683 21.5201C23.5815 20.8022 22.8901 20.0875 22.2115 19.3638C22.149 19.297 22.1082 19.1532 22.1505 19.0895C22.59 18.4295 22.9316 17.739 23.1706 17.009C23.1932 16.9396 23.3251 16.8575 23.4171 16.8479C24.0338 16.7824 24.6528 16.7359 25.2711 16.6805C25.8757 16.6264 26.4804 16.5685 27.0866 16.5125C27.0866 15.9537 27.0866 15.4185 27.0866 14.8857C24.0926 14.8857 21.1289 14.8857 18.1659 14.8857Z" fill="#018787"/>
<path d="M6.7609 9.70488C6.75487 10.8308 6.7594 11.956 6.76015 13.0819C6.76015 13.1627 6.7707 13.2442 6.77674 13.3314C11.323 13.3314 15.8414 13.3314 20.3847 13.3314C20.3915 13.2614 20.3991 13.2194 20.3991 13.178C20.3998 11.9847 20.4006 10.7913 20.3968 9.59795C20.396 9.44648 20.3855 9.29182 20.3516 9.14352C20.0658 7.87507 18.7909 6.98785 17.2302 6.9834C14.8138 6.97704 12.3974 6.97894 9.98101 6.98276C8.11122 6.98531 6.76995 8.11947 6.7609 9.70488Z" fill="#018787"/>
<path d="M0.0669403 13.3272C1.7015 13.3272 3.31118 13.3272 4.95403 13.3272C4.95403 13.2202 4.95403 13.1292 4.95403 13.0382C4.95403 11.9461 4.95705 10.8533 4.95328 9.76111C4.95177 9.22395 5.0249 8.6976 5.25259 8.19225C5.33251 8.01468 5.42148 7.84029 5.51497 7.64681C4.5944 7.64681 3.71077 7.62263 2.83016 7.65763C2.43057 7.67354 2.00609 7.75246 1.64646 7.89694C0.548713 8.33736 0.0616627 9.12339 0.0518614 10.1296C0.0420601 11.1206 0.0495995 12.1109 0.0503535 13.1019C0.0503535 13.1757 0.0609087 13.2489 0.0669403 13.3272Z" fill="#018787"/>
<path d="M21.6416 7.65325C21.6823 7.73662 21.7057 7.79072 21.7343 7.84291C22.0254 8.36226 22.1927 8.90706 22.1958 9.48305C22.2018 10.6599 22.2025 11.8373 22.2056 13.0141C22.2056 13.1134 22.2056 13.2127 22.2056 13.3272C23.8499 13.3272 25.4603 13.3272 27.067 13.3272C27.067 12.0976 27.1032 10.896 27.0557 9.69754C27.0165 8.7104 25.8893 7.75826 24.7154 7.69207C23.7768 7.63924 22.8321 7.65707 21.8904 7.64434C21.8165 7.6437 21.7419 7.64943 21.6416 7.65325Z" fill="#018787"/>
<path d="M6.31591 6.89363C6.43102 6.90509 6.59191 6.85099 6.67301 6.7708C7.26099 6.18971 7.94902 5.78875 8.76133 5.57935C8.87317 5.55071 9.00136 5.44443 9.05106 5.34196C9.87318 3.63753 8.53046 1.63525 6.57556 1.63843C6.0301 1.63907 5.48333 1.80391 5.05494 2.09604C4.11837 2.73568 3.67494 3.85838 3.94767 4.90344C4.23021 5.98541 5.16286 6.77716 6.31591 6.89363Z" fill="#018787"/>
<path d="M18.3429 5.57104C19.134 5.78107 19.8073 6.18585 20.3752 6.78666C20.4425 6.85795 20.5853 6.91841 20.6713 6.89613C21.0211 6.80639 21.387 6.73065 21.7018 6.56199C22.7386 6.00446 23.2442 4.77801 22.9537 3.62922C22.6594 2.46832 21.6264 1.64348 20.4606 1.63966C18.586 1.63393 17.2955 3.66549 18.1022 5.36228C18.1446 5.45138 18.2493 5.54621 18.3429 5.57104Z" fill="#018787"/>
</svg>
