<svg width="28" height="27" viewBox="0 0 28 27" fill="none" xmlns="http://www.w3.org/2000/svg">
<path fill-rule="evenodd" clip-rule="evenodd" d="M24.7372 8.57054C25.5412 8.94804 25.931 9.58413 25.9553 10.4215C25.9669 10.8183 25.9625 11.2158 25.9581 11.6132L25.9576 11.665C25.95 12.1371 25.661 12.4093 25.1642 12.4107C24.2533 12.4136 23.3424 12.4136 22.4314 12.4107C21.9399 12.4093 21.6434 12.1435 21.6472 11.688C21.6482 11.5611 21.6477 11.4339 21.6472 11.3066C21.6454 10.8534 21.6436 10.3991 21.7093 9.95447C21.8072 9.29402 22.26 8.83486 22.8964 8.5469C23.0117 8.49532 23.0867 8.45306 23.086 8.30622C23.0809 6.70705 23.0809 6.66869 23.0809 5.84974C23.0809 5.57699 23.0809 5.21765 23.0807 4.68522C23.0807 4.66611 23.0788 4.64701 23.0763 4.62093C23.0749 4.60594 23.0732 4.58865 23.0716 4.56774C23.0488 4.57326 23.0265 4.57859 23.0046 4.58382C22.9412 4.59898 22.881 4.61337 22.8213 4.62935C22.5932 4.69044 22.3654 4.75249 22.1376 4.81452C21.5991 4.96123 21.0607 5.10788 20.5185 5.2418C20.2781 5.30125 20.1969 5.38793 20.1947 5.63291C20.1909 6.0276 20.1666 6.43375 20.0619 6.8134C20.0475 6.8657 20.0301 6.91584 20.0111 6.96526C19.9049 7.65723 19.6994 8.31051 19.3861 8.93514C18.6034 10.496 17.3944 11.645 15.6673 12.2696C14.3233 12.756 12.9755 12.776 11.6322 12.2531C8.95101 11.2087 7.62064 9.23743 7.25885 6.59994C7.2515 6.54444 7.24668 6.48854 7.24188 6.43284C7.24024 6.41377 7.23859 6.39473 7.23685 6.37573C7.23633 6.37127 7.23908 6.36681 7.24182 6.36234C7.24304 6.36036 7.24426 6.35838 7.2452 6.35639L7.28236 6.37645C7.27402 6.30983 7.26719 6.2425 7.26416 6.17301C7.2543 5.96242 7.24975 5.75039 7.26416 5.5405C7.27478 5.38363 7.21865 5.32059 7.05709 5.27833C5.8898 4.97103 4.72402 4.65513 3.55976 4.3378C3.00683 4.18738 2.76336 3.68953 3.07509 3.29771C3.19266 3.14943 3.40655 3.0341 3.60072 2.98109C5.54847 2.44871 7.49846 1.92301 9.44833 1.39734C10.2821 1.17257 11.1158 0.947813 11.9493 0.722538C12.3132 0.624048 12.6758 0.52058 13.0384 0.417103C13.2085 0.368557 13.3786 0.320009 13.5489 0.271973H13.8841C14.2036 0.359565 14.5229 0.447458 14.8422 0.535335C15.5098 0.719106 16.1772 0.90281 16.8452 1.08356C18.1338 1.43177 19.4229 1.7789 20.7118 2.12601C21.7696 2.41085 22.8273 2.69568 23.8847 2.98109C24.273 3.08639 24.4884 3.30201 24.5051 3.61217C24.5188 3.86458 24.5188 4.11764 24.5187 4.37011L24.5187 4.408C24.5191 5.50755 24.5197 5.91389 24.5194 6.32022C24.5191 6.72655 24.518 7.13288 24.515 8.23243C24.515 8.40578 24.5658 8.49031 24.7372 8.57054ZM1.63269 26.2718H25.9062C26.6706 26.2718 27.2899 25.6862 27.289 24.9651V21.9165C27.289 17.8763 23.8211 14.6003 19.5423 14.6003H7.99573C3.71773 14.6003 0.249023 17.8755 0.249023 21.9165V24.9651C0.249023 25.687 0.869058 26.2718 1.63269 26.2718Z" fill="#018787"/>
</svg>
