<svg width="51" height="40" viewBox="0 0 51 40" fill="none" xmlns="http://www.w3.org/2000/svg">
<path fill-rule="evenodd" clip-rule="evenodd" d="M47.36 5.64013C48.7426 5.29972 50.1921 6.14303 50.7532 7.61044C51.3263 9.10879 50.8798 10.896 49.6261 11.7264C49.1605 12.0359 48.9886 12.3918 48.8692 12.9462C48.2239 15.9355 47.5563 18.9182 46.8887 21.9009C46.7113 22.6933 46.534 23.4856 46.3571 24.2781C46.3067 24.5039 46.2572 24.7298 46.2078 24.9555C46.0906 25.4901 45.9736 26.024 45.846 26.5552C45.6192 27.5017 45.1917 27.8886 44.3321 27.9556C44.1735 27.968 44.0133 27.9672 43.8541 27.9663C43.8143 27.9661 43.7747 27.9659 43.7351 27.9659C31.5184 27.9994 19.2993 28.0304 7.08263 28.0588C5.86955 28.0639 5.47554 27.7003 5.17944 26.3567C4.63887 23.9144 4.09757 21.4729 3.55635 19.0318C3.11972 17.0624 2.68315 15.0933 2.24705 13.1242C2.24132 13.1001 2.23491 13.076 2.2285 13.052C2.21087 12.9858 2.19324 12.9196 2.18974 12.8534C2.16586 12.3737 1.98199 12.0875 1.5641 11.8682C0.697278 11.4144 0.286553 10.5143 0 9.5369V8.41764C0.257897 7.39896 0.690114 6.52729 1.54977 5.99603C2.87269 5.18882 4.45112 5.56019 5.3848 6.91155C6.26117 8.1778 6.17521 10.0217 5.1866 11.2235C5.11705 11.3055 5.05121 11.3894 4.97268 11.4896C4.96224 11.5029 4.95157 11.5165 4.94064 11.5304C4.97629 11.5756 5.00961 11.6202 5.04209 11.6636C5.09664 11.7364 5.14883 11.8062 5.20571 11.8708C5.49635 12.2008 5.78685 12.531 6.07739 12.8613C6.95411 13.858 7.83115 14.8551 8.71359 15.845C11.2138 18.6431 14.8673 18.3826 17.0045 15.2338C18.1688 13.5167 19.3246 11.7922 20.4807 10.0672C21.3614 8.75319 22.2423 7.43893 23.1272 6.12755C23.3015 5.86966 23.3445 5.70719 23.1463 5.41577C22.1792 3.9922 22.3248 2.0709 23.4567 0.905221C24.622 -0.29656 26.3557 -0.301718 27.5282 0.889747C28.6672 2.04769 28.8129 3.96641 27.872 5.40287C27.8147 5.49314 27.7574 5.5834 27.6786 5.70461C28.1896 6.47313 28.7 7.24229 29.2105 8.01146C29.7209 8.78063 30.2313 9.54979 30.7423 10.3183L33.9016 15.0687C36.1223 18.4084 39.7592 18.7076 42.3859 15.7624C43.3905 14.6354 44.3935 13.5067 45.4104 12.3624C45.6408 12.1031 45.8719 11.843 46.1039 11.582C45.4687 10.8728 45.0437 10.081 45.0126 9.07011C44.9649 7.43765 45.9487 5.98829 47.36 5.64013ZM28.4852 31.4889H43.6749C45.0002 31.4889 45.5065 32.1414 45.5089 33.8486C45.5089 34.2387 45.5091 34.6291 45.5094 35.0196C45.5099 35.8013 45.5104 36.5838 45.5089 37.3663C45.5041 38.8749 44.9763 39.5635 43.811 39.5635H25.5337H7.45466C6.13891 39.5635 5.65893 38.9471 5.65893 37.2528C5.65654 36.0587 5.65654 34.8647 5.65893 33.6707C5.66371 32.1723 6.19622 31.4889 7.36869 31.4889H28.4852Z" fill="white"/>
</svg>
