<svg width="60" height="52" viewBox="0 0 60 52" fill="none" xmlns="http://www.w3.org/2000/svg">
<path fill-rule="evenodd" clip-rule="evenodd" d="M28.7802 0C29.4831 0.374677 29.74 0.953095 29.7018 1.74562C29.6713 2.36578 29.6777 2.9873 29.6842 3.60848V3.60859C29.688 3.97662 29.6918 4.34452 29.6879 4.71195C29.6775 5.58735 29.1446 6.14332 28.3584 6.12606C27.6016 6.10879 27.1035 5.56318 27.0948 4.71195C27.091 4.34917 27.0949 3.98616 27.0988 3.62325V3.62315C27.1055 2.9964 27.1122 2.36997 27.0792 1.74562C27.0393 0.951369 27.2962 0.374677 28.0008 0.00172662C28.2612 0 28.5198 0 28.7802 0ZM14.3882 8.62849C14.3709 9.28979 14.1071 9.69036 13.6072 9.89756C13.1125 10.1013 12.5901 10.0668 12.2325 9.65583C11.2866 8.56806 10.3598 7.46129 9.47804 6.32345C9.09445 5.82791 9.26976 5.09064 9.74359 4.69524C10.2469 4.27568 11.0089 4.24287 11.448 4.73841C12.235 5.62949 12.9831 6.55342 13.7311 7.47732C13.8904 7.6741 14.0498 7.87088 14.2095 8.06734C14.3605 8.24863 14.4004 8.49381 14.3882 8.62849ZM43.6443 9.35308C43.889 9.77611 44.2639 9.99884 44.8315 9.99539C45.1526 10.004 45.4858 9.86589 45.7358 9.56719C45.9067 9.3633 46.078 9.15975 46.2493 8.95621C46.9513 8.12205 47.6532 7.288 48.3271 6.43164C48.7593 5.8843 48.6309 5.12459 48.1206 4.68948C47.6051 4.25092 46.8431 4.25092 46.3745 4.78617C45.4529 5.83941 44.5677 6.92373 43.6964 8.01841C43.3735 8.42243 43.3839 8.90244 43.6443 9.35308Z" fill="white"/>
<path d="M49.8726 33.0274C45.4797 30.7448 41.5154 30.4099 37.7525 32.0053C36.1973 32.6649 34.4946 32.9359 32.2348 32.8876C29.8049 32.8341 27.6665 32.8496 25.7 32.9308C23.8585 33.0085 22.3294 34.5279 22.1402 36.4669C21.9666 38.2487 23.1851 39.9944 24.9728 40.5262C25.4501 40.6677 25.9031 40.6798 26.3266 40.6798H28.8798C30.9504 40.6798 33.0211 40.6781 35.0917 40.6833C35.4163 40.6833 35.6645 40.7662 35.7947 40.9129C35.8936 41.0252 35.9283 41.1909 35.9005 41.4033C35.8797 41.55 35.8346 41.8936 35.0744 41.8936C30.3551 41.8971 25.6376 41.8919 20.9183 41.8988C20.9165 41.8988 20.9165 41.8988 20.9148 41.8988C20.6232 41.8988 20.3386 41.8246 19.9689 41.7175L16.4802 40.7213C12.7485 39.6559 8.89013 38.5561 5.0977 37.4631C4.16912 37.1955 3.38633 37.1972 2.63653 37.4683C1.16468 37.9984 0.182298 39.3711 0.194447 40.8818C0.206597 42.4807 1.21328 43.8188 2.81877 44.3731C4.67073 45.0119 6.52268 45.6456 8.37637 46.2793C12.2504 47.6036 16.2563 48.9728 20.1737 50.3714C23.2441 51.4678 25.9309 51.9978 28.4736 51.9978C29.1436 51.9978 29.8049 51.9616 30.4592 51.8873C32.5403 51.6542 34.6422 51.3573 36.6764 51.0689C38.202 50.8531 39.7797 50.6304 41.3314 50.437C42.2409 50.323 43.1556 50.1814 44.0425 50.0433C46.2781 49.6945 48.5882 49.3354 50.8724 49.4442C51.0112 49.4511 51.4347 49.4718 51.7558 49.1662C52.0735 48.864 52.0717 48.4548 52.07 48.2114C52.0613 46.5797 52.063 44.9187 52.063 43.3129V41.6778C52.063 41.1633 52.0492 40.6436 52.037 40.1394C52.0075 38.9722 51.978 37.8689 52.0995 36.7742C52.339 34.6211 51.1709 33.7008 49.8726 33.0274Z" fill="white"/>
<path d="M53.9715 41.507C53.9715 38.703 53.9819 35.899 53.961 33.0949C53.9576 32.6218 54.0339 32.4267 54.5789 32.4423C56.1358 32.4854 57.6962 32.4716 59.2531 32.4474C59.6697 32.4405 59.805 32.5407 59.805 32.9775C59.7911 38.6719 59.7911 44.3663 59.805 50.0607C59.8068 50.4544 59.7148 50.5752 59.3069 50.5683C57.6841 50.5442 56.0595 50.5407 54.4366 50.5701C53.9923 50.5787 53.9628 50.4026 53.9645 50.0469C53.9767 47.2014 53.9715 44.3542 53.9715 41.507Z" fill="white"/>
<path d="M15.251 21.6756V18.0463C15.251 15.9329 15.7804 14.2649 16.8374 13.039C17.8944 11.8131 19.3367 11.2002 21.1592 11.2002C22.9816 11.2002 24.4257 11.8131 25.4879 13.039C26.5502 14.2649 27.0813 15.9346 27.0813 18.0463V21.6756C27.0813 23.789 26.5502 25.4604 25.4879 26.6897C24.4257 27.9191 22.9834 28.5338 21.1592 28.5338C19.335 28.5338 17.8944 27.9191 16.8374 26.6897C15.7804 25.4604 15.251 23.789 15.251 21.6756ZM19.9807 17.0793V22.6425C19.9807 23.6509 20.3729 24.155 21.1609 24.155C21.9558 24.155 22.3533 23.6509 22.3533 22.6425V17.0793C22.3533 16.071 21.9558 15.5668 21.1609 15.5668C20.3747 15.5686 19.9807 16.071 19.9807 17.0793Z" fill="white"/>
<path d="M30.499 23.2127C31.294 23.5683 32.0229 23.8256 32.6877 23.9862C33.3525 24.1468 33.9235 24.2279 34.4025 24.2279C34.8243 24.2279 35.1853 24.126 35.4856 23.9206C35.7859 23.7151 35.9351 23.4319 35.9351 23.0693C35.9351 22.9813 35.9247 22.8898 35.9039 22.7983C35.8831 22.7067 35.8535 22.6187 35.8119 22.5393C35.772 22.4581 35.706 22.3562 35.6175 22.2302C35.529 22.1059 35.4509 22.0109 35.3867 21.947C35.3207 21.8832 35.0621 21.6328 34.6091 21.1977C33.3125 19.9493 32.4482 19.067 32.0195 18.5508C31.6862 18.1485 31.4293 17.6995 31.2471 17.204C31.0648 16.7085 30.9729 16.2233 30.9729 15.7485C30.9729 15.3772 31.0284 15.0129 31.1377 14.6555C31.2471 14.2964 31.4068 13.9562 31.6185 13.6333C31.8285 13.3105 32.0819 13.0204 32.3787 12.7631C32.6738 12.5059 32.9984 12.2935 33.3507 12.1295C33.7031 11.9637 34.2272 11.7928 34.925 11.6167C34.9406 11.3594 34.9493 11.2057 34.9493 11.1574L34.9371 10.3718V8.99219C35.8206 9.00773 36.5548 9.01636 37.1379 9.01636C37.7871 9.01636 38.5161 9.00773 39.3266 8.99219C39.2867 9.88658 39.2659 10.4115 39.2659 10.5651V11.6046C40.0677 11.7168 40.8592 11.8826 41.6368 12.1001C41.6941 13.402 41.7704 14.7539 41.8676 16.1525C41.2115 15.8538 40.6041 15.6397 40.0504 15.5119C39.4967 15.3841 39.035 15.3185 38.6705 15.3185C38.2574 15.3185 37.9138 15.4135 37.643 15.6034C37.3723 15.7934 37.2351 16.0368 37.2351 16.3355C37.2351 16.5945 37.315 16.8362 37.4729 17.0607C37.6309 17.2869 37.8565 17.5372 38.1481 17.81C39.2016 18.7942 39.9775 19.5798 40.4774 20.1686C40.9755 20.7574 41.3261 21.3151 41.5292 21.8434C41.7322 22.3718 41.8329 22.8932 41.8329 23.4095C41.8329 23.8377 41.7791 24.2383 41.668 24.6129C41.5587 24.9876 41.399 25.3329 41.1872 25.6472C40.9755 25.9614 40.7325 26.2446 40.4583 26.4932C40.1823 26.7436 39.8994 26.9577 39.6078 27.1338C39.3162 27.3099 38.8858 27.5171 38.3182 27.7502L38.2939 29.2869C38.2939 29.7945 38.2974 29.596 38.306 30.0725C37.4226 30.057 36.7214 30.0483 36.2024 30.0483C35.6835 30.0483 34.918 30.057 33.9044 30.0725C33.9443 29.5079 33.9651 29.4855 33.9651 28.6222V28.1266C33.3091 28.0386 32.7589 27.9453 32.318 27.8486C31.8754 27.7519 31.3356 27.5983 30.6952 27.3894C30.6361 25.3623 30.5719 23.9706 30.499 23.2127Z" fill="white"/>
</svg>
